<svg id="Layer_1" data-name="Layer 1" xmlns="http://www.w3.org/2000/svg" width="50" height="50" viewBox="0 0 50 50">
  <defs>
    <style>
      .cls-1 {
        fill: #2493d1;
      }
    </style>
  </defs>
  <title>ads</title>
  <g>
    <g id="Tag_2x.png" data-name="Tag@2x.png">
      <g>
        <path class="cls-1" d="M43.81,2.59H25.47a1,1,0,0,0-.72.3L2.35,25.3a1,1,0,0,0-.3.72,1,1,0,0,0,.3.72L22.72,47.11a1,1,0,0,0,.72.3,1,1,0,0,0,.72-.3l3.44-3.44a3.52,3.52,0,0,1-1-1.9L23.44,45,4.51,26,25.9,4.63H43.81a1,1,0,0,1,1,1V23.56l-2,2a3.24,3.24,0,0,1,1.08,1.79l2.66-2.66a1,1,0,0,0,.3-.72V5.65A3.06,3.06,0,0,0,43.81,2.59Z"/>
        <path class="cls-1" d="M37.7,8.7a3.06,3.06,0,1,0,3,3.06A3.06,3.06,0,0,0,37.7,8.7Zm0,4.08a1,1,0,1,1,1-1A1,1,0,0,1,37.7,12.78Z"/>
      </g>
      <g>
        <path class="cls-1" d="M37.7,8.55a3.21,3.21,0,1,0,3.21,3.21A3.22,3.22,0,0,0,37.7,8.55Zm0,6.11a2.9,2.9,0,1,1,2.9-2.9A2.9,2.9,0,0,1,37.7,14.66Z"/>
        <path class="cls-1" d="M43.81,4.47h-18L4.29,26,23.44,45.17,26.65,42c0-.12-.06-.24-.07-.37l-3.14,3.15L4.73,26,26,4.79H43.81a.86.86,0,0,1,.86.86V23.5l-2,2,.23.2,2-2.05v-18A1.18,1.18,0,0,0,43.81,4.47Z"/>
        <path class="cls-1" d="M43.81,2.44H25.47a1.19,1.19,0,0,0-.83.34L2.24,25.19a1.16,1.16,0,0,0-.35.83,1.18,1.18,0,0,0,.35.83L22.61,47.22a1.16,1.16,0,0,0,.83.34,1.17,1.17,0,0,0,.83-.34l3.44-3.45-.22-.22L24.05,47a.9.9,0,0,1-1.22,0L2.46,26.63a.85.85,0,0,1,0-1.22L24.86,3a.88.88,0,0,1,.61-.25H43.81a2.9,2.9,0,0,1,2.9,2.9V24a.83.83,0,0,1-.26.61l-2.6,2.6a2.41,2.41,0,0,1,.07.37l2.75-2.75A1.13,1.13,0,0,0,47,24V5.65A3.21,3.21,0,0,0,43.81,2.44Z"/>
      </g>
    </g>
    <path class="cls-1" d="M35.66,24.69A10.27,10.27,0,1,1,25.39,35,10.29,10.29,0,0,1,35.66,24.69m0-2.18A12.45,12.45,0,1,0,48.11,35,12.44,12.44,0,0,0,35.66,22.51Z"/>
    <path class="cls-1" d="M36.94,28.06v5.7H42.4v2.46H36.94V42H34.38V36.22H28.92V33.76h5.46v-5.7Z"/>
  </g>
</svg>
