<svg id="Layer_1" data-name="Layer 1" xmlns="http://www.w3.org/2000/svg" viewBox="0 0 15 15"><defs><style>.cls-1{fill:#b9b9ba;}</style></defs><title>arrow top</title><g id="Right_Angle_Arrow_1" data-name="Right Angle Arrow 1"><path class="cls-1" d="M14.28,10.46l-9.76.08L4.45,2.17,7.08,4.76a.32.32,0,0,0,.54-.23.32.32,0,0,0-.1-.22L4.35,1.19a.32.32,0,0,0-.23-.09.36.36,0,0,0-.22.09L.78,4.37a.36.36,0,0,0-.09.22A.32.32,0,0,0,1,4.91a.32.32,0,0,0,.22-.1L3.82,2.18l.08,8.68a.31.31,0,0,0,.31.31l10.08-.09a.31.31,0,0,0,.31-.31A.31.31,0,0,0,14.28,10.46Z"/></g></svg>