<svg xmlns="http://www.w3.org/2000/svg" viewBox="0 0 180.7 38.96"><defs><style>.cls-1{fill:#bababb;}</style></defs><title>Asset 1</title><g id="Layer_2" data-name="Layer 2"><g id="Layer_1-2" data-name="Layer 1"><g id="Clock_1_2x.png" data-name="Clock 1@2x.png"><path class="cls-1" d="M2.56,5a.32.32,0,1,0,.55.31A.32.32,0,1,0,2.56,5Zm1.73,6.45a.31.31,0,0,0,.12.43.32.32,0,1,0,.31-.55A.31.31,0,0,0,4.29,11.49Zm.12-8.3a.32.32,0,1,0,.31.55.32.32,0,0,0-.31-.55Zm5.15.43a.31.31,0,0,0-.12-.43.32.32,0,1,0-.31.55A.31.31,0,0,0,9.56,3.62Zm-6.88,6a.32.32,0,0,0-.12.43.32.32,0,0,0,.55-.31A.32.32,0,0,0,2.68,9.64ZM2.2,7.24a.32.32,0,1,0,.32.32A.31.31,0,0,0,2.2,7.24ZM6.93,12a.32.32,0,1,0,0,.63.32.32,0,0,0,0-.63Zm3.93-7a.32.32,0,1,0,.43.12A.31.31,0,0,0,10.86,4.92ZM6.93.63a6.93,6.93,0,1,0,6.92,6.93A6.93,6.93,0,0,0,6.93.63Zm0,13.22a6.3,6.3,0,1,1,6.29-6.29A6.3,6.3,0,0,1,6.93,13.85Zm4.72-6.61a.32.32,0,1,0,0,.63.32.32,0,0,0,0-.63Zm-.91,2.52a.32.32,0,0,0,.12.43.31.31,0,0,0,.43-.12.32.32,0,1,0-.55-.31Zm-1-2.52H8.14a1.24,1.24,0,0,0-.9-.9V2.83a.32.32,0,0,0-.63,0V6.34A1.26,1.26,0,1,0,8.14,7.87H9.76a.32.32,0,0,0,0-.63Zm-2.83.94a.63.63,0,1,1,0-1.25.63.63,0,1,1,0,1.25Zm2.2,3.19a.32.32,0,1,0,.31.55.32.32,0,1,0-.31-.55Z"/></g><g id="Settings_1_2x.png" data-name="Settings 1@2x.png"><path class="cls-1" d="M31.29,4.09a3.15,3.15,0,1,0,3.15,3.15A3.15,3.15,0,0,0,31.29,4.09Zm0,5.67a2.52,2.52,0,1,1,2.52-2.52A2.52,2.52,0,0,1,31.29,9.76Zm6.47-3.9-.67-.17a6.16,6.16,0,0,0-.6-1.45l.35-.59a.54.54,0,0,0,0-.65l-1.3-1.31a.39.39,0,0,0-.29-.11.83.83,0,0,0-.37.11l-.59.36a6.09,6.09,0,0,0-1.44-.6L32.68.78c-.07-.23-.21-.47-.46-.47H30.37c-.26,0-.4.24-.46.47l-.17.67a5.92,5.92,0,0,0-1.44.6l-.6-.36a.8.8,0,0,0-.37-.11.38.38,0,0,0-.28.11L25.74,3a.54.54,0,0,0,0,.65l.36.59a5.76,5.76,0,0,0-.6,1.45l-.67.17a.51.51,0,0,0-.46.46V8.16c0,.26.23.39.46.47l.67.16a5.62,5.62,0,0,0,.6,1.45l-.36.59a.53.53,0,0,0,0,.65l1.31,1.31a.36.36,0,0,0,.27.11.87.87,0,0,0,.38-.11l.6-.36a5.55,5.55,0,0,0,1.44.6l.17.67c.06.23.2.47.46.47h1.85c.25,0,.39-.24.46-.47l.17-.67a5.7,5.7,0,0,0,1.44-.6l.59.36a.92.92,0,0,0,.38.11.38.38,0,0,0,.28-.11l1.3-1.31a.53.53,0,0,0,0-.65l-.35-.59a6,6,0,0,0,.6-1.45l.67-.16c.22-.08.46-.21.46-.47V6.32C38.22,6.06,38,5.91,37.76,5.86ZM37.59,8h0l-.64.16a.65.65,0,0,0-.46.45,5,5,0,0,1-.54,1.29.64.64,0,0,0,0,.64l.34.58-1.09,1.1h0l-.58-.35a.61.61,0,0,0-.64,0,5.39,5.39,0,0,1-1.29.53.65.65,0,0,0-.45.46l-.16.65H30.51l-.16-.66a.65.65,0,0,0-.45-.46,5.57,5.57,0,0,1-1.29-.53.61.61,0,0,0-.31-.09.63.63,0,0,0-.33.09l-.57.35h0l-1.1-1.1.35-.58a.61.61,0,0,0,0-.64,5.42,5.42,0,0,1-.54-1.29.64.64,0,0,0-.45-.45L25,8h0V6.46l.65-.16a.64.64,0,0,0,.45-.45,5.42,5.42,0,0,1,.54-1.29.61.61,0,0,0,0-.64l-.35-.58h0l1.1-1.1.58.35a.63.63,0,0,0,.33.09.61.61,0,0,0,.31-.09,5.57,5.57,0,0,1,1.29-.53.65.65,0,0,0,.45-.46l.16-.66h1.56l.16.65a.65.65,0,0,0,.45.46A5.39,5.39,0,0,1,34,2.59a.61.61,0,0,0,.64,0l.58-.35,1.1,1.1h0L36,3.92a.64.64,0,0,0,0,.64,5,5,0,0,1,.54,1.29.65.65,0,0,0,.46.45l.65.16Z"/></g><g id="Contact_Cards_2_2x.png" data-name="Contact Cards 2@2x.png"><path class="cls-1" d="M60.44,8.81H61.7A.31.31,0,0,0,62,8.5a.32.32,0,0,0-.31-.32H60.44a.32.32,0,0,0-.32.32A.31.31,0,0,0,60.44,8.81Zm0-1.25H63a.32.32,0,0,0,.31-.32A.31.31,0,0,0,63,6.93H60.44a.31.31,0,0,0-.32.31A.32.32,0,0,0,60.44,7.56Zm0-1.26H61.7a.32.32,0,0,0,0-.63H60.44a.32.32,0,1,0,0,.63ZM52.88,9.44h-.94V1.89H62v.94a.32.32,0,1,0,.63,0V1.89A.63.63,0,0,0,62,1.26H51.94a.63.63,0,0,0-.63.63V9.44a.63.63,0,0,0,.63.63h.94a.32.32,0,1,0,0-.63ZM56,6.3h2.52a.32.32,0,0,0,0-.63H56a.32.32,0,0,0,0,.63Zm8.5-2.52H54.46a.63.63,0,0,0-.63.63V12a.63.63,0,0,0,.63.63H64.53a.63.63,0,0,0,.63-.63V4.41A.63.63,0,0,0,64.53,3.78Zm0,8.18H62v-.63h.32a.32.32,0,0,0,0-.63H61.07a.32.32,0,1,0,0,.63h.31V12H57.6v-.63h.32a.32.32,0,0,0,0-.63H56.66a.32.32,0,1,0,0,.63H57V12H54.46V4.41H64.53ZM56,8.81h2.52a.31.31,0,0,0,.31-.31.32.32,0,0,0-.31-.32H56a.32.32,0,0,0-.31.32A.31.31,0,0,0,56,8.81Zm0-1.25h1.26a.32.32,0,0,0,.31-.32.31.31,0,0,0-.31-.31H56a.31.31,0,0,0-.31.31A.32.32,0,0,0,56,7.56Z"/></g><g id="Add_2x.png" data-name="Add@2x.png"><path class="cls-1" d="M88.64,6.61H85.49V3.46a.32.32,0,0,0-.63,0V6.61H81.71a.32.32,0,0,0,0,.63h3.15v3.15a.32.32,0,0,0,.63,0V7.24h3.15a.32.32,0,0,0,0-.63ZM85.17,0A6.93,6.93,0,1,0,92.1,6.93,6.92,6.92,0,0,0,85.17,0Zm0,13.22a6.3,6.3,0,1,1,6.3-6.29A6.29,6.29,0,0,1,85.17,13.22Z"/></g><g id="Folder_2x.png" data-name="Folder@2x.png"><path class="cls-1" d="M120.25,2.52h-5.67c-1.26,0-1.26-1.26-2.52-1.26h-3.14a1.25,1.25,0,0,0-1.26,1.26v8.81a1.25,1.25,0,0,0,1.26,1.26h11.33a1.26,1.26,0,0,0,1.26-1.26V3.78A1.26,1.26,0,0,0,120.25,2.52Zm.63,8.81a.63.63,0,0,1-.63.63H108.92a.63.63,0,0,1-.63-.63V5h12.59Zm0-6.92H108.29V2.52a.63.63,0,0,1,.63-.63h3.14c1,0,1,1.26,2.52,1.26h5.67a.63.63,0,0,1,.63.63Z"/></g><g id="Folders_2x.png" data-name="Folders@2x.png"><path class="cls-1" d="M147.14,4.72h-3.78c-1.26,0-1.26-1.26-2.52-1.26h-2.52a1.27,1.27,0,0,0-1.26,1.26v7.56a1.27,1.27,0,0,0,1.26,1.26h8.82a1.27,1.27,0,0,0,1.26-1.26V6A1.27,1.27,0,0,0,147.14,4.72Zm.63,7.56a.64.64,0,0,1-.63.63h-8.82a.63.63,0,0,1-.63-.63v-5h10.08Zm0-5.67H137.69V4.72a.63.63,0,0,1,.63-.63h2.52c.95,0,.95,1.26,2.52,1.26h3.78a.63.63,0,0,1,.63.63Zm1.89-4.41h-3.78c-1.26,0-1.26-1.26-2.52-1.26h-2.52a1.27,1.27,0,0,0-1.26,1.26v.32a.32.32,0,0,0,.63,0V2.2a.63.63,0,0,1,.63-.63h2.52c.94,0,.94,1.26,2.52,1.26h3.78a.63.63,0,0,1,.62.63v6.3a.63.63,0,0,1-.62.63h-.32a.32.32,0,0,0,0,.63h.32a1.26,1.26,0,0,0,1.25-1.26V3.46A1.26,1.26,0,0,0,149.66,2.2Z"/></g><g id="Eye_2x.png" data-name="Eye@2x.png"><path class="cls-1" d="M85.17,28.16c-3.82,0-6.92,3.15-6.92,4.4S81.35,37,85.17,37s6.93-3.15,6.93-4.41S89,28.16,85.17,28.16Zm0,8.18c-3.47,0-6.29-2.7-6.29-3.78s2.82-3.77,6.29-3.77,6.3,2.69,6.3,3.77S88.65,36.34,85.17,36.34Zm0-4.72a.95.95,0,1,0,1,.94A.94.94,0,0,0,85.17,31.62Zm0-2.2a3.15,3.15,0,1,0,3.15,3.14A3.15,3.15,0,0,0,85.17,29.42Zm0,5.66a2.52,2.52,0,1,1,2.52-2.52A2.51,2.51,0,0,1,85.17,35.08Z"/></g><g id="Mails"><path class="cls-1" d="M117.73,27.59h-8.81a1.26,1.26,0,0,0-1.26,1.26v5.67a1.26,1.26,0,0,0,1.26,1.26h8.81A1.26,1.26,0,0,0,119,34.52V28.85A1.26,1.26,0,0,0,117.73,27.59Zm-8.81.63h8.81a.6.6,0,0,1,.41.16l-4.39,4.39a.61.61,0,0,1-.43.17.59.59,0,0,1-.42-.17l-4.39-4.39A.6.6,0,0,1,108.92,28.22Zm-.63.82,2.63,2.64-2.63,2.64Zm9.44,6.11h-8.81a.6.6,0,0,1-.41-.16l2.86-2.86,1.08,1.08a1.24,1.24,0,0,0,.87.36,1.22,1.22,0,0,0,.87-.36l1.09-1.08L118.14,35A.6.6,0,0,1,117.73,35.15Zm.63-.83-2.64-2.64,2.64-2.63Zm1.89-9.25h-8.82a1.27,1.27,0,0,0-1.26,1.26v.32a.32.32,0,0,0,.32.31.31.31,0,0,0,.31-.31v-.32a.63.63,0,0,1,.63-.63h8.82a.63.63,0,0,1,.63.63V32a.63.63,0,0,1-.63.63h-.32a.32.32,0,0,0,0,.63h.32A1.27,1.27,0,0,0,121.51,32V26.33A1.27,1.27,0,0,0,120.25,25.07Z"/></g><g id="Location_Pin_1" data-name="Location Pin 1"><path class="cls-1" d="M31.29,27a2.52,2.52,0,1,0,2.52,2.52A2.52,2.52,0,0,0,31.29,27Zm0,4.4a1.89,1.89,0,1,1,1.89-1.88A1.89,1.89,0,0,1,31.29,31.4Zm0-6.92a5,5,0,0,0-5,5c0,4.09,5,8.81,5,8.81s5-4.72,5-8.81A5,5,0,0,0,31.29,24.48Zm0,12.91s-4.4-4.1-4.4-7.87a4.41,4.41,0,1,1,8.81,0C35.7,33.29,31.29,37.39,31.29,37.39Z"/></g><g id="Add_2x.png-2" data-name="Add@2x.png"><path class="cls-1" d="M7.69,32l2.2-2.25a.31.31,0,0,0,0-.44.33.33,0,0,0-.45,0l-2.2,2.25L5,29.38a.31.31,0,0,0-.44.45L6.79,32l-2.2,2.24a.33.33,0,0,0,0,.45.32.32,0,0,0,.45,0l2.2-2.24,2.25,2.21a.31.31,0,0,0,.44-.45Zm4.4-4.94a6.92,6.92,0,1,0,.09,9.8A6.92,6.92,0,0,0,12.09,27.09Zm-.36,9.36a6.3,6.3,0,1,1-.08-8.91A6.29,6.29,0,0,1,11.73,36.45Z"/></g><g id="Eye_2x.png-2" data-name="Eye@2x.png"><path class="cls-1" d="M57.6,29.57a.95.95,0,1,0,.95.95A.95.95,0,0,0,57.6,29.57Zm0-3.46c-3.82,0-6.92,3.15-6.92,4.41s3.1,4.4,6.92,4.4,6.93-3.14,6.93-4.4S61.43,26.11,57.6,26.11Zm0,8.18c-3.47,0-6.29-2.69-6.29-3.77s2.82-3.78,6.29-3.78,6.3,2.7,6.3,3.78S61.08,34.29,57.6,34.29Zm0-6.92a3.15,3.15,0,1,0,3.15,3.15A3.15,3.15,0,0,0,57.6,27.37Zm0,5.67a2.52,2.52,0,1,1,2.52-2.52A2.51,2.51,0,0,1,57.6,33Z"/></g><line class="cls-1" x1="54.05" y1="25.18" x2="61.07" y2="35.98"/><rect class="cls-1" x="57.24" y="24.14" width="0.63" height="12.88" transform="translate(-7.37 36.31) rotate(-33.02)"/><g id="Right_Angle_Arrow_1" data-name="Right Angle Arrow 1"><path class="cls-1" d="M151.88,36.45l-9.76.08-.07-8.37,2.63,2.59a.32.32,0,0,0,.54-.23.36.36,0,0,0-.09-.22L142,27.18a.36.36,0,0,0-.22-.09.29.29,0,0,0-.22.1l-3.12,3.17a.28.28,0,0,0-.09.23.31.31,0,0,0,.31.31.29.29,0,0,0,.22-.1l2.59-2.63.08,8.68a.32.32,0,0,0,.32.32l10.07-.09a.32.32,0,0,0,.31-.32A.31.31,0,0,0,151.88,36.45Z"/></g><g id="Info_2x.png" data-name="Info@2x.png"><path class="cls-1" d="M173.47,27.78a.88.88,0,0,0-.62.24.74.74,0,0,0,0,1.14.93.93,0,0,0,1.25,0,.75.75,0,0,0,0-1.14A.88.88,0,0,0,173.47,27.78Zm.24,6.31a.63.63,0,0,1-.41-.1c-.08-.06-.11-.17-.11-.34a2.13,2.13,0,0,1,0-.3c0-.13.05-.25.08-.35l.38-1.28a2.26,2.26,0,0,0,.07-.39c0-.14,0-.24,0-.3a.84.84,0,0,0-.29-.65,1.23,1.23,0,0,0-.83-.26,2.21,2.21,0,0,0-.64.11c-.22.07-.45.15-.7.25l-.1.39.26-.08a1,1,0,0,1,.3-.05.62.62,0,0,1,.4.1.46.46,0,0,1,.1.34,1.71,1.71,0,0,1,0,.31c0,.11-.05.22-.08.35l-.38,1.28a2.83,2.83,0,0,0-.07.36,1.72,1.72,0,0,0,0,.32.82.82,0,0,0,.3.65,1.26,1.26,0,0,0,.84.26,1.93,1.93,0,0,0,.62-.09l.72-.27.1-.39L174,34A1.32,1.32,0,0,1,173.71,34.09Zm-.93-9.77a6.93,6.93,0,1,0,6.93,6.93A6.92,6.92,0,0,0,172.78,24.32Zm0,13.22a6.3,6.3,0,1,1,6.3-6.29A6.29,6.29,0,0,1,172.78,37.54Z"/></g><path class="cls-1" d="M173.47,15.24a.23.23,0,0,1-.16-.06c-.05,0-4.41-4.28-5.78-5.76a4.16,4.16,0,0,1-1.21-2.83,4.09,4.09,0,0,1,4.15-4,4.18,4.18,0,0,1,3,1.25,4.19,4.19,0,0,1,3-1.25,4.08,4.08,0,0,1,4.14,4,4.16,4.16,0,0,1-1.21,2.83c-1.37,1.48-5.73,5.71-5.77,5.76A.27.27,0,0,1,173.47,15.24Zm-3-12.18a3.6,3.6,0,0,0-3.67,3.53,3.78,3.78,0,0,0,1.08,2.51c1.21,1.3,4.78,4.78,5.59,5.57.81-.79,4.38-4.27,5.59-5.57a3.74,3.74,0,0,0,1.08-2.51,3.6,3.6,0,0,0-3.66-3.53,3.7,3.7,0,0,0-2.83,1.28.25.25,0,0,1-.36,0A3.69,3.69,0,0,0,170.47,3.06Z"/><path class="cls-1" d="M173.47,15.32a.31.31,0,0,1-.22-.09s-4.39-4.26-5.78-5.76a4.24,4.24,0,0,1-1.23-2.88,4.17,4.17,0,0,1,4.23-4.09,4.29,4.29,0,0,1,3,1.22,4.29,4.29,0,0,1,3-1.22,4.16,4.16,0,0,1,4.22,4.09,4.19,4.19,0,0,1-1.23,2.88c-1.37,1.48-5.74,5.72-5.78,5.76A.31.31,0,0,1,173.47,15.32Zm-3-12.66a4,4,0,0,0-4.07,3.93,4.09,4.09,0,0,0,1.19,2.78c1.38,1.49,5.73,5.71,5.77,5.75a.16.16,0,0,0,.22,0s4.41-4.28,5.78-5.75a4.12,4.12,0,0,0,1.18-2.78,4,4,0,0,0-4.06-3.93,4.18,4.18,0,0,0-2.95,1.22l-.06.06-.05-.06A4.19,4.19,0,0,0,170.47,2.66Zm3,12.12-.05,0c-1-1-4.42-4.32-5.6-5.58a3.84,3.84,0,0,1-1.1-2.56A3.69,3.69,0,0,1,170.47,3a3.76,3.76,0,0,1,2.88,1.31.18.18,0,0,0,.24,0A3.78,3.78,0,0,1,176.48,3a3.68,3.68,0,0,1,3.74,3.61,3.84,3.84,0,0,1-1.1,2.56c-1.19,1.28-4.58,4.59-5.59,5.58Zm-3-11.64a3.53,3.53,0,0,0-3.59,3.45A3.63,3.63,0,0,0,167.94,9c1.15,1.24,4.45,4.47,5.53,5.52,1.08-1,4.37-4.26,5.54-5.52a3.68,3.68,0,0,0,1.06-2.45,3.53,3.53,0,0,0-3.59-3.45,3.63,3.63,0,0,0-2.77,1.25.34.34,0,0,1-.48,0A3.61,3.61,0,0,0,170.47,3.14Z"/><path class="cls-1" d="M167.51,6.87a.23.23,0,0,1-.23-.24,3.09,3.09,0,0,1,3.09-3.1.24.24,0,1,1,0,.48,2.63,2.63,0,0,0-2.62,2.62A.24.24,0,0,1,167.51,6.87Z"/><path class="cls-1" d="M167.51,7a.31.31,0,0,1-.31-.32,3.18,3.18,0,0,1,3.17-3.18.32.32,0,0,1,.32.32.32.32,0,0,1-.32.32,2.54,2.54,0,0,0-2.54,2.54A.32.32,0,0,1,167.51,7Zm2.86-3.34a3,3,0,0,0-3,3,.16.16,0,0,0,.16.16.16.16,0,0,0,.16-.16,2.7,2.7,0,0,1,2.7-2.7.16.16,0,1,0,0-.32Z"/></g></g></svg>