<svg id="Layer_1" data-name="Layer 1" xmlns="http://www.w3.org/2000/svg" viewBox="0 0 15 15"><defs><style>.cls-1{fill:#1b86c8;}</style></defs><title>bell</title><g id="Bell_2x.png" data-name="Bell@2x.png"><path class="cls-1" d="M13.31,10c0-2.2-2.52-2.2-2.52-5.35a3.15,3.15,0,0,0-1.92-2.9,1,1,0,0,0,0-.25,1.26,1.26,0,0,0-2.52,0,1,1,0,0,0,0,.25,3.15,3.15,0,0,0-1.92,2.9C4.49,7.79,2,7.79,2,10c0,1,1.59,1.78,3.79,2.08,0,0,0,.08,0,.13a1.89,1.89,0,0,0,3.78,0s0-.09,0-.13C11.72,11.77,13.31,11,13.31,10ZM7.64.86A.63.63,0,1,1,7,1.49.63.63,0,0,1,7.64.86ZM3.52,8.28a4.71,4.71,0,0,0,1.6-3.64A2.53,2.53,0,0,1,6.69,2.31a1.25,1.25,0,0,0,1.9,0,2.53,2.53,0,0,1,1.57,2.33,4.71,4.71,0,0,0,1.6,3.64c.14.14.26.28.37.41-.6.57-2.38,1-4.49,1s-3.89-.42-4.5-1C3.26,8.56,3.38,8.42,3.52,8.28Zm4.12,5.17A1.25,1.25,0,0,1,6.38,12.2a.13.13,0,0,1,0-.06c.4,0,.82.06,1.25.06s.85,0,1.25-.06c0,0,0,0,0,.06A1.25,1.25,0,0,1,7.64,13.45Zm0-1.88c-3.26,0-5-1-5-1.58a1.65,1.65,0,0,1,.22-.85,8.42,8.42,0,0,0,4.82,1.17,8.42,8.42,0,0,0,4.82-1.17,1.76,1.76,0,0,1,.22.85C12.68,10.53,10.9,11.57,7.64,11.57Z"/></g></svg>