<svg id="Layer_1" data-name="Layer 1" xmlns="http://www.w3.org/2000/svg" viewBox="0 0 15 15"><defs><style>.cls-1{fill:#b9b9ba;}</style></defs><title>clock</title><g id="Clock_1_2x.png" data-name="Clock 1@2x.png"><path class="cls-1" d="M4.8,3.2a.31.31,0,0,0-.11.43.32.32,0,0,0,.43.12A.32.32,0,0,0,4.8,3.2ZM3,5a.32.32,0,0,0,.55.32.32.32,0,0,0-.12-.43A.31.31,0,0,0,3,5Zm1.73,6.45a.31.31,0,1,0,.54.32.31.31,0,0,0-.54-.32ZM10,3.63a.32.32,0,0,0-.12-.43.32.32,0,1,0-.31.55A.32.32,0,0,0,10,3.63ZM2.6,7.25a.32.32,0,0,0,0,.63.32.32,0,1,0,0-.63Zm.48,2.4a.31.31,0,0,0-.12.43.32.32,0,0,0,.55-.31A.31.31,0,0,0,3.08,9.65Zm4.24-9a6.93,6.93,0,1,0,6.93,6.92A6.92,6.92,0,0,0,7.32.64Zm0,13.22a6.3,6.3,0,1,1,6.3-6.3A6.3,6.3,0,0,1,7.32,13.86Zm3.82-4.09a.31.31,0,0,0,.11.43.32.32,0,0,0,.43-.12.31.31,0,0,0-.11-.43A.31.31,0,0,0,11.14,9.77Zm.11-4.84a.31.31,0,1,0,.32.54.31.31,0,1,0-.32-.54ZM12,7.25a.32.32,0,0,0,0,.63.32.32,0,1,0,0-.63ZM9.53,11.38a.31.31,0,0,0-.12.43.31.31,0,0,0,.43.11.32.32,0,0,0,.12-.43A.31.31,0,0,0,9.53,11.38Zm.63-4.13H8.54a1.26,1.26,0,0,0-.9-.9V2.84a.32.32,0,0,0-.63,0V6.35A1.26,1.26,0,1,0,8.54,7.88h1.62a.32.32,0,0,0,0-.63Zm-2.84.94a.63.63,0,0,1-.63-.63A.63.63,0,1,1,8,7.56.63.63,0,0,1,7.32,8.19Zm0,3.78a.32.32,0,0,0,0,.63.32.32,0,1,0,0-.63Z"/></g></svg>