<svg id="Layer_1" data-name="Layer 1" xmlns="http://www.w3.org/2000/svg" viewBox="0 0 15 15"><defs><style>.cls-1{fill:#b9b9ba;}</style></defs><title>close</title><g id="Add_2x.png" data-name="Add@2x.png"><path class="cls-1" d="M8.08,7l2.21-2.25a.31.31,0,0,0,0-.44.31.31,0,0,0-.44,0L7.63,6.6,5.39,4.39a.33.33,0,0,0-.45,0,.32.32,0,0,0,0,.45L7.19,7.05,5,9.29a.32.32,0,0,0,0,.45.31.31,0,0,0,.44,0L7.64,7.49l2.25,2.2a.31.31,0,0,0,.44,0,.33.33,0,0,0,0-.45ZM12.49,2.1a6.93,6.93,0,1,0,.09,9.8A6.92,6.92,0,0,0,12.49,2.1Zm-.36,9.35a6.29,6.29,0,1,1-.08-8.9A6.3,6.3,0,0,1,12.13,11.45Z"/></g></svg>