<svg id="Layer_1" data-name="Layer 1" xmlns="http://www.w3.org/2000/svg" viewBox="0 0 15 15"><defs><style>.cls-1{fill:#b9b9ba;}</style></defs><title>don&amp;apos;t view</title><g id="Eye_2x.png" data-name="Eye@2x.png"><path class="cls-1" d="M7,6.58a.95.95,0,1,0,1,1A.94.94,0,0,0,7,6.58Zm0-2.2a3.15,3.15,0,1,0,3.15,3.15A3.15,3.15,0,0,0,7,4.38ZM7,10A2.52,2.52,0,1,1,9.52,7.53,2.51,2.51,0,0,1,7,10ZM7,3.12C3.18,3.12.08,6.27.08,7.53s3.1,4.4,6.92,4.4,6.93-3.15,6.93-4.4S10.83,3.12,7,3.12ZM7,11.3C3.52,11.3.71,8.6.71,7.53S3.52,3.75,7,3.75s6.3,2.7,6.3,3.78S10.48,11.3,7,11.3Z"/></g><line class="cls-1" x1="3.45" y1="2.19" x2="10.46" y2="12.99"/><rect class="cls-1" x="6.64" y="1.15" width="0.63" height="12.88" transform="translate(-3.01 5.02) rotate(-33.02)"/></svg>