<svg id="Layer_1" data-name="Layer 1" xmlns="http://www.w3.org/2000/svg" viewBox="0 0 15 15"><defs><style>.cls-1{fill:#1b86c8;}</style></defs><title>exit</title><g id="Exit_1" data-name="Exit 1"><path class="cls-1" d="M13.6,1.07H2.26A.31.31,0,0,0,2,1.38V6.1a.32.32,0,1,0,.63,0V1.7h10.7V14.29H2.58V9.88a.32.32,0,0,0-.63,0V14.6a.31.31,0,0,0,.31.32H13.6a.31.31,0,0,0,.31-.32V1.38A.31.31,0,0,0,13.6,1.07ZM8.34,10.29a.31.31,0,0,0,.22.54.29.29,0,0,0,.22-.1L11.3,8.22A.32.32,0,0,0,11.39,8a.31.31,0,0,0-.09-.22L8.78,5.25a.32.32,0,0,0-.22-.09.31.31,0,0,0-.22.54l2,2H.38a.32.32,0,1,0,0,.63h9.94Z"/></g></svg>