<svg id="Layer_1" data-name="Layer 1" xmlns="http://www.w3.org/2000/svg" viewBox="0 0 15 15"><defs><style>.cls-1{fill:#b9b9ba;}</style></defs><title>folders</title><g id="Folders_2x.png" data-name="Folders@2x.png"><path class="cls-1" d="M10.53,4.73H6.76C5.5,4.73,5.5,3.47,4.24,3.47H1.72A1.25,1.25,0,0,0,.46,4.73v7.55a1.25,1.25,0,0,0,1.26,1.26h8.81a1.25,1.25,0,0,0,1.26-1.26V6A1.25,1.25,0,0,0,10.53,4.73Zm.63,7.55a.63.63,0,0,1-.63.63H1.72a.63.63,0,0,1-.63-.63v-5H11.16Zm0-5.66H1.09V4.73a.63.63,0,0,1,.63-.63H4.24c.94,0,.94,1.26,2.52,1.26h3.77a.63.63,0,0,1,.63.63Zm1.89-4.41H9.27C8,2.21,8,1,6.76,1H4.24A1.26,1.26,0,0,0,3,2.21v.32a.32.32,0,0,0,.63,0V2.21a.63.63,0,0,1,.63-.63H6.76c.94,0,.94,1.26,2.51,1.26h3.78a.63.63,0,0,1,.63.63v6.3a.63.63,0,0,1-.63.63h-.31a.31.31,0,0,0-.32.31.32.32,0,0,0,.32.32h.31a1.26,1.26,0,0,0,1.26-1.26V3.47A1.26,1.26,0,0,0,13.05,2.21Z"/></g></svg>