<svg id="Layer_1" data-name="Layer 1" xmlns="http://www.w3.org/2000/svg" viewBox="0 0 15 15"><defs><style>.cls-1{fill:#b9b9ba;}</style></defs><title>folder</title><g id="Folder_2x.png" data-name="Folder@2x.png"><path class="cls-1" d="M12.65,2.53H7c-1.26,0-1.26-1.26-2.52-1.26H1.31A1.26,1.26,0,0,0,.05,2.53v8.81A1.26,1.26,0,0,0,1.31,12.6H12.65a1.25,1.25,0,0,0,1.25-1.26V3.79A1.25,1.25,0,0,0,12.65,2.53Zm.62,8.81a.63.63,0,0,1-.62.63H1.31a.63.63,0,0,1-.63-.63V5H13.27Zm0-6.92H.68V2.53a.63.63,0,0,1,.63-.63H4.46C5.4,1.9,5.4,3.16,7,3.16h5.67a.63.63,0,0,1,.62.63Z"/></g></svg>