<svg id="Layer_1" data-name="Layer 1" xmlns="http://www.w3.org/2000/svg" viewBox="0 0 45 37"><defs><style>.cls-1{fill:#377bbe;stroke:#377bbe;stroke-miterlimit:10;stroke-width:0.5px;}</style></defs><title>heart_blue</title><path class="cls-1" d="M22.46,35.59a.62.62,0,0,1-.44-.18C21.9,35.3,10.4,24.12,6.77,20.22a11,11,0,0,1-3.19-7.47,10.78,10.78,0,0,1,11-10.59,11.12,11.12,0,0,1,7.93,3.3,11.09,11.09,0,0,1,7.93-3.3A10.78,10.78,0,0,1,41.33,12.75a11,11,0,0,1-3.19,7.47C34.52,24.12,23,35.3,22.9,35.41A.64.64,0,0,1,22.46,35.59ZM14.53,3.42a9.53,9.53,0,0,0-9.69,9.33,9.86,9.86,0,0,0,2.85,6.61C10.89,22.81,20.31,32,22.46,34.08,24.6,32,34,22.81,37.22,19.36a9.86,9.86,0,0,0,2.85-6.61,9.52,9.52,0,0,0-9.68-9.33A9.81,9.81,0,0,0,22.93,6.8a.64.64,0,0,1-.95,0A9.81,9.81,0,0,0,14.53,3.42Z"/><path class="cls-1" d="M22.46,35.8a.87.87,0,0,1-.59-.24c-.09-.09-11.58-11.25-15.25-15.2a11.2,11.2,0,0,1-3.24-7.61A11,11,0,0,1,14.53,2a11.36,11.36,0,0,1,7.93,3.21A11.34,11.34,0,0,1,30.39,2,11,11,0,0,1,41.54,12.75a11.2,11.2,0,0,1-3.24,7.61c-3.62,3.9-15.15,15.1-15.26,15.2A.83.83,0,0,1,22.46,35.8ZM14.53,2.37A10.58,10.58,0,0,0,3.79,12.75a10.8,10.8,0,0,0,3.14,7.33C10.58,24,22.06,35.16,22.16,35.26a.42.42,0,0,0,.59,0C22.86,35.16,34.38,24,38,20.08a10.79,10.79,0,0,0,3.13-7.33A10.57,10.57,0,0,0,30.39,2.37a10.92,10.92,0,0,0-7.78,3.24l-.15.15-.15-.15A10.94,10.94,0,0,0,14.53,2.37Zm7.93,32-.15-.14C19.63,31.62,10.65,22.84,7.54,19.5a10.11,10.11,0,0,1-2.91-6.75,9.74,9.74,0,0,1,9.9-9.54,10,10,0,0,1,7.61,3.45.45.45,0,0,0,.64,0,10,10,0,0,1,7.61-3.45,9.73,9.73,0,0,1,9.89,9.54,10.06,10.06,0,0,1-2.91,6.75C34.24,22.88,25.28,31.63,22.6,34.23ZM14.53,3.63a9.31,9.31,0,0,0-9.48,9.12,9.64,9.64,0,0,0,2.8,6.47c3,3.28,11.76,11.8,14.61,14.57C25.29,31,34,22.53,37.07,19.22a9.64,9.64,0,0,0,2.8-6.47,9.31,9.31,0,0,0-9.48-9.12,9.6,9.6,0,0,0-7.3,3.3.88.88,0,0,1-1.27,0A9.6,9.6,0,0,0,14.53,3.63Z"/><path class="cls-1" d="M6.73,13.49a.63.63,0,0,1-.63-.63,8.19,8.19,0,0,1,8.18-8.18.63.63,0,1,1,0,1.26,6.92,6.92,0,0,0-6.92,6.92A.63.63,0,0,1,6.73,13.49Z"/><path class="cls-1" d="M6.73,13.69a.84.84,0,0,1-.84-.83,8.4,8.4,0,0,1,8.39-8.39.84.84,0,0,1,0,1.68,6.72,6.72,0,0,0-6.71,6.71A.84.84,0,0,1,6.73,13.69Zm7.55-8.8a8,8,0,0,0-8,8,.42.42,0,0,0,.84,0,7.14,7.14,0,0,1,7.13-7.13.42.42,0,0,0,0-.84Z"/></svg>