<svg id="Layer_1" data-name="Layer 1" xmlns="http://www.w3.org/2000/svg" width="50" height="50" viewBox="0 0 50 50">
  <defs>
    <style>
      .cls-1 {
        fill: #2493d1;
      }
    </style>
  </defs>
  <title>heart</title>
  <g>
    <g>
      <g>
        <path class="cls-1" d="M25,46.19a.76.76,0,0,1-.54-.22c-.14-.15-14.31-14.32-18.77-19.27a14.12,14.12,0,0,1-3.93-9.47A13.48,13.48,0,0,1,25,8a13.48,13.48,0,0,1,23.24,9.24,14.12,14.12,0,0,1-3.93,9.47C39.85,31.65,25.68,45.82,25.54,46A.76.76,0,0,1,25,46.19ZM15.23,5.4A11.89,11.89,0,0,0,3.31,17.23a12.72,12.72,0,0,0,3.51,8.39C10.76,30,22.36,41.63,25,44.28,27.64,41.63,39.24,30,43.18,25.62a12.72,12.72,0,0,0,3.51-8.39,11.94,11.94,0,0,0-21.1-7.54.79.79,0,0,1-1.18,0A11.93,11.93,0,0,0,15.23,5.4Z"/>
        <path class="cls-1" d="M25,46.35a.91.91,0,0,1-.65-.27C24.22,46,10,31.72,5.57,26.81a14.27,14.27,0,0,1-4-9.58A13.64,13.64,0,0,1,25,7.76a13.64,13.64,0,0,1,23.4,9.47,14.27,14.27,0,0,1-4,9.58c-4.51,5-18.65,19.14-18.78,19.27A.91.91,0,0,1,25,46.35ZM15.23,4A13.3,13.3,0,0,0,1.92,17.23,13.94,13.94,0,0,0,5.8,26.59c4.43,4.92,18.64,19.13,18.77,19.26a.6.6,0,0,0,.86,0c.13-.12,14.26-14.25,18.77-19.26a14,14,0,0,0,3.88-9.36,13.33,13.33,0,0,0-23-9.13L25,8.22l-.11-.12A13.39,13.39,0,0,0,15.23,4ZM25,44.51l-.11-.12C21.59,41.09,10.55,30,6.7,25.72a12.85,12.85,0,0,1-3.55-8.49A12.1,12.1,0,0,1,24.53,9.59a.66.66,0,0,0,.94,0,12.1,12.1,0,0,1,21.38,7.64,12.85,12.85,0,0,1-3.55,8.49C39.48,30,28.41,41.08,25.11,44.39ZM15.23,5.56A11.73,11.73,0,0,0,3.47,17.23a12.52,12.52,0,0,0,3.47,8.28C10.73,29.72,21.58,40.62,25,44.06c3.43-3.45,14.3-14.37,18.06-18.55a12.52,12.52,0,0,0,3.47-8.28A11.78,11.78,0,0,0,25.71,9.79a1,1,0,0,1-1.42,0A11.76,11.76,0,0,0,15.23,5.56Z"/>
      </g>
      <g>
        <path class="cls-1" d="M25,46.49a1.07,1.07,0,0,1-.75-.32C24.12,46,9.93,31.85,5.47,26.9a14.42,14.42,0,0,1-4-9.67A13.77,13.77,0,0,1,25,7.57a13.77,13.77,0,0,1,23.54,9.66,14.42,14.42,0,0,1-4,9.67C40.07,31.84,25.89,46,25.75,46.17A1.07,1.07,0,0,1,25,46.49ZM15.23,4.1A13.17,13.17,0,0,0,2.05,17.23,13.83,13.83,0,0,0,5.9,26.5c4.46,4.94,18.64,19.13,18.77,19.26a.47.47,0,0,0,.66,0c.14-.15,14.32-14.32,18.77-19.26A13.83,13.83,0,0,0,48,17.23a13.19,13.19,0,0,0-22.74-9L25,8.42l-.21-.23A13.26,13.26,0,0,0,15.23,4.1ZM25,44.7l-.21-.21C20.55,40.23,10.28,29.9,6.6,25.81A13,13,0,0,1,3,17.23,12.24,12.24,0,0,1,24.64,9.5a.47.47,0,0,0,.36.16h0a.47.47,0,0,0,.36-.16A12.24,12.24,0,0,1,47,17.23a13,13,0,0,1-3.59,8.58c-3.7,4.1-13.95,14.43-18.19,18.68Zm-9.77-39A11.59,11.59,0,0,0,3.6,17.23,12.4,12.4,0,0,0,7,25.42c3.61,4,13.6,14.07,18,18.44,4.35-4.36,14.34-14.42,18-18.44a12.4,12.4,0,0,0,3.44-8.19A11.65,11.65,0,0,0,25.81,9.88a1,1,0,0,1-.81.36h0a1,1,0,0,1-.81-.36A11.64,11.64,0,0,0,15.23,5.7Z"/>
        <path class="cls-1" d="M25,46.64a1.16,1.16,0,0,1-.86-.36C24,46.15,9.86,32,5.35,27a14.53,14.53,0,0,1-4-9.77A13.91,13.91,0,0,1,15.23,3.36a14.07,14.07,0,0,1,9.77,4,14.07,14.07,0,0,1,9.77-4A13.91,13.91,0,0,1,48.69,17.23a14.53,14.53,0,0,1-4,9.77c-4.21,4.67-17.27,17.76-18.74,19.24l-.05,0A1.19,1.19,0,0,1,25,46.64Zm-9.77-43A13.61,13.61,0,0,0,1.62,17.23a14.26,14.26,0,0,0,4,9.56C10,31.69,24.23,45.93,24.36,46.06a.91.91,0,0,0,1.27,0l.05,0c1.48-1.48,14.53-14.56,18.74-19.23a14.26,14.26,0,0,0,4-9.56A13.62,13.62,0,0,0,25.11,7.68L25,7.79l-.11-.11A13.72,13.72,0,0,0,15.23,3.67ZM25,46.05a.59.59,0,0,1-.44-.18c-.13-.13-14.29-14.28-18.77-19.26A14,14,0,0,1,1.9,17.23a13.34,13.34,0,0,1,23-9.15l.1.11.1-.11a13.34,13.34,0,0,1,23,9.15,14,14,0,0,1-3.89,9.38c-4.45,4.94-18.63,19.12-18.77,19.26a.59.59,0,0,1-.44.18ZM15.23,4.26a13,13,0,0,0-13,13A13.72,13.72,0,0,0,6,26.4c4.48,5,18.63,19.11,18.76,19.24a.31.31,0,0,0,.44,0C25.36,45.5,39.53,31.33,44,26.4a13.72,13.72,0,0,0,3.81-9.17A13,13,0,0,0,25.33,8.3L25,8.65l-.33-.35A13.06,13.06,0,0,0,15.23,4.26ZM25,44.92l-.32-.32C20.44,40.34,10.17,30,6.48,25.92a13.18,13.18,0,0,1-3.62-8.69A12.39,12.39,0,0,1,24.76,9.4a.34.34,0,0,0,.48,0,12.39,12.39,0,0,1,21.9,7.83,13.16,13.16,0,0,1-3.62,8.69c-3.7,4.09-14,14.43-18.2,18.68ZM15.23,5.27a12,12,0,0,0-12.06,12,12.85,12.85,0,0,0,3.55,8.48C10.4,29.78,20.66,40.12,24.9,44.38l.1.09.1-.09c4.24-4.25,14.49-14.59,18.18-18.67a12.83,12.83,0,0,0,3.55-8.48A12.08,12.08,0,0,0,25.48,9.6a.67.67,0,0,1-1,0A12.1,12.1,0,0,0,15.23,5.27ZM25,44.09,24.89,44c-4.19-4.21-14.33-14.42-18-18.45a12.6,12.6,0,0,1-3.48-8.3A11.81,11.81,0,0,1,24.31,9.78a1,1,0,0,0,1.38,0,11.81,11.81,0,0,1,20.86,7.46,12.55,12.55,0,0,1-3.47,8.3c-3.65,4-13.78,14.25-18,18.45ZM15.23,5.86A11.44,11.44,0,0,0,3.76,17.23a12.26,12.26,0,0,0,3.4,8.08c3.6,4,13.59,14.06,17.84,18.33,4.25-4.27,14.23-14.32,17.84-18.33a12.24,12.24,0,0,0,3.4-8.08A11.49,11.49,0,0,0,25.93,10a1.24,1.24,0,0,1-1.86,0A11.5,11.5,0,0,0,15.23,5.86Z"/>
      </g>
    </g>
    <g>
      <g>
        <path class="cls-1" d="M5.63,18.17a.78.78,0,0,1-.77-.8A10.24,10.24,0,0,1,14.93,7a.8.8,0,0,1,0,1.6,8.65,8.65,0,0,0-8.52,8.77A.79.79,0,0,1,5.63,18.17Z"/>
        <path class="cls-1" d="M5.63,18.33a1,1,0,0,1-.93-1A10.39,10.39,0,0,1,14.93,6.84a1,1,0,0,1,0,1.91,8.5,8.5,0,0,0-8.36,8.62A1,1,0,0,1,5.63,18.33Zm9.3-11.17A10.07,10.07,0,0,0,5,17.37a.63.63,0,0,0,.61.64.63.63,0,0,0,.62-.64,8.81,8.81,0,0,1,8.68-8.93.63.63,0,0,0,.61-.64A.62.62,0,0,0,14.93,7.16Z"/>
      </g>
      <g>
        <path class="cls-1" d="M5.63,18.46a1.08,1.08,0,0,1-1.07-1.09A10.53,10.53,0,0,1,14.93,6.71a1.09,1.09,0,0,1,0,2.18A8.36,8.36,0,0,0,6.7,17.37,1.08,1.08,0,0,1,5.63,18.46Zm9.3-11.17A10,10,0,0,0,5.15,17.37a.49.49,0,0,0,.48.5.48.48,0,0,0,.48-.5A9,9,0,0,1,14.93,8.3a.49.49,0,0,0,.48-.5A.5.5,0,0,0,14.93,7.29Z"/>
        <path class="cls-1" d="M5.63,18.62a1.24,1.24,0,0,1-1.22-1.25A10.68,10.68,0,0,1,14.93,6.55a1.25,1.25,0,0,1,0,2.5,8.21,8.21,0,0,0-8.07,8.32A1.24,1.24,0,0,1,5.63,18.62Zm9.3-11.76A10.38,10.38,0,0,0,4.72,17.37a.91.91,0,1,0,1.82,0,8.53,8.53,0,0,1,8.39-8.64.94.94,0,0,0,0-1.87ZM5.63,18A.66.66,0,0,1,5,17.37,10.1,10.1,0,0,1,14.93,7.14a.66.66,0,0,1,0,1.32,8.8,8.8,0,0,0-8.66,8.91A.66.66,0,0,1,5.63,18Zm9.3-10.58a9.79,9.79,0,0,0-9.62,9.92.33.33,0,0,0,.32.34A.34.34,0,0,0,6,17.37a9.11,9.11,0,0,1,9-9.23.33.33,0,0,0,.32-.34A.34.34,0,0,0,14.93,7.45Z"/>
      </g>
    </g>
  </g>
</svg>
