<svg id="Layer_1" data-name="Layer 1" xmlns="http://www.w3.org/2000/svg" viewBox="0 0 15 15"><defs><style>.cls-1{fill:#b9b9ba;}</style></defs><title>inform</title><g id="Info_2x.png" data-name="Info@2x.png"><path class="cls-1" d="M9.11,10.09A.69.69,0,0,1,8.7,10a.42.42,0,0,1-.12-.35,1.53,1.53,0,0,1,0-.3A3,3,0,0,1,8.7,9l.37-1.28a2,2,0,0,0,.08-.38c0-.14,0-.24,0-.3a.81.81,0,0,0-.29-.65A1.26,1.26,0,0,0,8,6.13a2.14,2.14,0,0,0-.63.11c-.22.06-.46.15-.7.24l-.1.4.26-.08a1,1,0,0,1,.3,0,.58.58,0,0,1,.4.1.45.45,0,0,1,.1.34,1.69,1.69,0,0,1,0,.3c0,.11,0,.23-.09.35L7.18,9.13a2.83,2.83,0,0,0-.07.36,1.71,1.71,0,0,0,0,.31.84.84,0,0,0,.3.66,1.3,1.3,0,0,0,.85.25,2,2,0,0,0,.62-.09c.18-.06.41-.14.71-.26l.1-.39-.25.08A1.13,1.13,0,0,1,9.11,10.09ZM8.18.33a6.93,6.93,0,1,0,6.93,6.92A6.92,6.92,0,0,0,8.18.33Zm0,13.22a6.3,6.3,0,1,1,6.3-6.3A6.29,6.29,0,0,1,8.18,13.55Zm.69-9.76A.92.92,0,0,0,8.24,4a.75.75,0,0,0,0,1.14,1,1,0,0,0,.63.23.94.94,0,0,0,.63-.23A.75.75,0,0,0,9.5,4,.9.9,0,0,0,8.87,3.79Z"/></g></svg>