<svg width="18" height="18" viewBox="0 0 18 18" xmlns="http://www.w3.org/2000/svg"><path d="M6 1.644A.65.65 0 0 1 6.645 1h10.709c.356 0 .645.278.645.644v.712a.65.65 0 0 1-.645.644H6.645A.638.638 0 0 1 6 2.356v-.712zm0 7A.65.65 0 0 1 6.645 8h10.709c.356 0 .645.278.645.644v.712a.65.65 0 0 1-.645.644H6.645A.638.638 0 0 1 6 9.356v-.712zm.001 6.944a.65.65 0 0 1 .645-.644h10.709c.356 0 .645.278.645.644v.712a.65.65 0 0 1-.645.644H6.646a.638.638 0 0 1-.645-.644v-.712zM0 .643C0 .288.288 0 .643 0h2.714C3.712 0 4 .288 4 .643v2.714A.643.643 0 0 1 3.357 4H.643A.643.643 0 0 1 0 3.357V.643zm0 7C0 7.288.288 7 .643 7h2.714c.355 0 .643.288.643.643v2.714a.643.643 0 0 1-.643.643H.643A.643.643 0 0 1 0 10.357V7.643zm.001 7c0-.355.288-.643.643-.643h2.715c.354 0 .642.288.642.643v2.714A.643.643 0 0 1 3.36 18H.644A.643.643 0 0 1 0 17.357v-2.714z" fill="#006bb8" fill-rule="evenodd"/></svg>