<svg id="Layer_1" data-name="Layer 1" xmlns="http://www.w3.org/2000/svg" viewBox="0 0 45 37"><defs><style>.cls-1{fill:#377bbe;}</style></defs><title>mails_blue</title><g id="Mails"><path class="cls-1" d="M40.43.58h-28a4,4,0,0,0-4,4v1a1,1,0,0,0,2,0v-1a2,2,0,0,1,2-2h28a2,2,0,0,1,2,2v18a2,2,0,0,1-2,2h-1a1,1,0,1,0,0,2h1a4,4,0,0,0,4-4v-18A4,4,0,0,0,40.43.58Zm-8,8h-28a4,4,0,0,0-4,4v18a4,4,0,0,0,4,4h28a4,4,0,0,0,4-4v-18A4,4,0,0,0,32.43,8.58Zm-28,2h28a2,2,0,0,1,1.3.49L19.79,25a1.92,1.92,0,0,1-2.71,0L3.14,11.07A2,2,0,0,1,4.43,10.58Zm-2,2.61,8.39,8.39L2.43,30Zm30,19.39h-28a2,2,0,0,1-1.29-.49L12.23,23l3.43,3.43a3.91,3.91,0,0,0,5.54,0L24.64,23l9.09,9.1A2,2,0,0,1,32.43,32.58Zm2-2.62-8.38-8.38,8.38-8.39Z"/></g></svg>