<svg id="Layer_1" data-name="Layer 1" xmlns="http://www.w3.org/2000/svg" width="50" height="50" viewBox="0 0 50 50">
  <defs>
    <style>
      .cls-1 {
        fill: #2493d1;
      }

      .cls-2 {
        fill: none;
        stroke: #2493d1;
        stroke-miterlimit: 10;
        stroke-width: 0.25px;
      }
    </style>
  </defs>
  <title>mail</title>
  <g id="Mail">
    <path class="cls-1" d="M43.82,8.27H6.18A4.18,4.18,0,0,0,2,12.45v25.1a4.18,4.18,0,0,0,4.18,4.18H43.82A4.18,4.18,0,0,0,48,37.55V12.45A4.18,4.18,0,0,0,43.82,8.27ZM6.18,10.36H43.82a2.07,2.07,0,0,1,.7.13l-18.1,18.1a2,2,0,0,1-2.84,0L5.49,10.49A2,2,0,0,1,6.18,10.36ZM4.09,37.55V12.45a2.2,2.2,0,0,1,0-.36L17,25,4.13,37.91A2.2,2.2,0,0,1,4.09,37.55Zm39.73,2.09H6.18a2,2,0,0,1-.69-.13l13-13,3.59,3.59a4.1,4.1,0,0,0,5.8,0l3.59-3.59,13,13A2.07,2.07,0,0,1,43.82,39.64Zm2.09-2.09a2.2,2.2,0,0,1,0,.36L33,25,45.87,12.09a2.2,2.2,0,0,1,0,.36Z"/>
    <path class="cls-2" d="M43.82,8.27H6.18A4.18,4.18,0,0,0,2,12.45v25.1a4.18,4.18,0,0,0,4.18,4.18H43.82A4.18,4.18,0,0,0,48,37.55V12.45A4.18,4.18,0,0,0,43.82,8.27ZM6.18,10.36H43.82a2.07,2.07,0,0,1,.7.13l-18.1,18.1a2,2,0,0,1-2.84,0L5.49,10.49A2,2,0,0,1,6.18,10.36ZM4.09,37.55V12.45a2.2,2.2,0,0,1,0-.36L17,25,4.13,37.91A2.2,2.2,0,0,1,4.09,37.55Zm39.73,2.09H6.18a2,2,0,0,1-.69-.13l13-13,3.59,3.59a4.1,4.1,0,0,0,5.8,0l3.59-3.59,13,13A2.07,2.07,0,0,1,43.82,39.64Zm2.09-2.09a2.2,2.2,0,0,1,0,.36L33,25,45.87,12.09a2.2,2.2,0,0,1,0,.36Z"/>
  </g>
</svg>
