<svg id="Layer_1" data-name="Layer 1" xmlns="http://www.w3.org/2000/svg" viewBox="0 0 15 15"><defs><style>.cls-1{fill:#b9b9ba;}</style></defs><title>mails</title><g id="Mails"><path class="cls-1" d="M11.13,5.6H2.31A1.26,1.26,0,0,0,1.05,6.86v5.66a1.26,1.26,0,0,0,1.26,1.26h8.82a1.26,1.26,0,0,0,1.26-1.26V6.86A1.26,1.26,0,0,0,11.13,5.6Zm-8.82.63h8.82a.66.66,0,0,1,.41.15L7.15,10.77a.6.6,0,0,1-.86,0L1.9,6.38A.66.66,0,0,1,2.31,6.23Zm-.63.82L4.32,9.69,1.68,12.33Zm9.45,6.1H2.31A.66.66,0,0,1,1.9,13l2.87-2.86,1.08,1.08a1.23,1.23,0,0,0,1.74,0l1.08-1.08L11.54,13A.66.66,0,0,1,11.13,13.15Zm.63-.82L9.12,9.69l2.64-2.64Zm1.89-9.25H4.83A1.26,1.26,0,0,0,3.57,4.34v.31a.32.32,0,1,0,.63,0V4.34a.63.63,0,0,1,.63-.63h8.82a.63.63,0,0,1,.62.63V10a.63.63,0,0,1-.62.63h-.32A.31.31,0,0,0,13,11a.32.32,0,0,0,.31.32h.32A1.26,1.26,0,0,0,14.9,10V4.34A1.25,1.25,0,0,0,13.65,3.08Z"/></g></svg>