<svg id="Layer_1" data-name="Layer 1" xmlns="http://www.w3.org/2000/svg" viewBox="0 0 15 15"><defs><style>.cls-1{fill:#b9b9ba;}</style></defs><title>pages</title><g id="Contact_Cards_2_2x.png" data-name="Contact Cards 2@2x.png"><path class="cls-1" d="M9.83,8.56h2.52a.32.32,0,1,0,0-.63H9.83a.32.32,0,0,0,0,.63Zm0-1.26h1.26A.31.31,0,0,0,11.41,7a.32.32,0,0,0-.32-.32H9.83A.32.32,0,0,0,9.52,7,.31.31,0,0,0,9.83,7.3ZM2.28,10.45H1.33V2.9H11.41v.94a.32.32,0,1,0,.63,0V2.9a.63.63,0,0,0-.63-.63H1.33a.63.63,0,0,0-.62.63v7.55a.63.63,0,0,0,.62.63h.95a.32.32,0,0,0,0-.63Zm7.55-.63h1.26a.32.32,0,1,0,0-.63H9.83a.32.32,0,0,0,0,.63ZM5.43,7.3H8A.31.31,0,0,0,8.26,7,.32.32,0,0,0,8,6.67H5.43A.32.32,0,0,0,5.11,7,.31.31,0,0,0,5.43,7.3Zm0,2.52H8a.32.32,0,0,0,0-.63H5.43a.32.32,0,1,0,0,.63Zm8.5-5H3.85a.63.63,0,0,0-.63.62V13a.63.63,0,0,0,.63.63H13.93a.63.63,0,0,0,.63-.63V5.41A.63.63,0,0,0,13.93,4.79Zm0,8.18H11.41v-.63h.31a.32.32,0,1,0,0-.63H10.46a.32.32,0,0,0,0,.63h.32V13H7v-.63h.32a.32.32,0,0,0,0-.63H6.06a.32.32,0,1,0,0,.63h.31V13H3.85V5.41H13.93ZM5.43,8.56H6.69a.32.32,0,0,0,0-.63H5.43a.32.32,0,1,0,0,.63Z"/></g></svg>