<svg id="Layer_1" data-name="Layer 1" xmlns="http://www.w3.org/2000/svg" viewBox="0 0 45 37"><defs><style>.cls-1{fill:#377bbe;}</style></defs><title>pages_blue</title><g id="Contact_Cards_2_2x.png" data-name="Contact Cards 2@2x.png"><path class="cls-1" d="M30,24h4a1,1,0,0,0,0-2H30a1,1,0,0,0,0,2Zm0-4h8a1,1,0,0,0,0-2H30a1,1,0,0,0,0,2Zm0-4h4a1,1,0,0,0,0-2H30a1,1,0,0,0,0,2ZM6,26H3V2H35V5a1,1,0,1,0,2,0V2a2,2,0,0,0-2-2H3A2,2,0,0,0,1,2V26a2,2,0,0,0,2,2H6a1,1,0,1,0,0-2Zm10-2h8a1,1,0,0,0,0-2H16a1,1,0,0,0,0,2ZM43,8H11a2,2,0,0,0-2,2V34a2,2,0,0,0,2,2H43a2,2,0,0,0,2-2V10A2,2,0,0,0,43,8Zm0,26H35V32h1a1,1,0,0,0,0-2H32a1,1,0,0,0,0,2h1v2H21V32h1a1,1,0,0,0,0-2H18a1,1,0,0,0,0,2h1v2H11V10H43ZM16,16h8a1,1,0,0,0,0-2H16a1,1,0,0,0,0,2Zm0,4h4a1,1,0,0,0,0-2H16a1,1,0,0,0,0,2Z"/></g></svg>