<svg id="Layer_1" data-name="Layer 1" xmlns="http://www.w3.org/2000/svg" viewBox="0 0 15 15"><defs><style>.cls-1{fill:#b9b9ba;}</style></defs><title>point</title><g id="Location_Pin_1" data-name="Location Pin 1"><path class="cls-1" d="M7.69,3a2.52,2.52,0,1,0,2.52,2.51A2.51,2.51,0,0,0,7.69,3Zm0,4.4A1.89,1.89,0,1,1,9.58,5.52,1.89,1.89,0,0,1,7.69,7.41Zm0-6.92a5,5,0,0,0-5,5c0,4.1,5,8.82,5,8.82s5-4.72,5-8.82A5,5,0,0,0,7.69.49Zm0,12.9S3.28,9.3,3.28,5.52a4.41,4.41,0,0,1,8.82,0C12.1,9.3,7.69,13.39,7.69,13.39Z"/></g></svg>