<svg id="Layer_1" data-name="Layer 1" xmlns="http://www.w3.org/2000/svg" width="25" height="25" viewBox="0 0 25 25">
  <defs>
    <style>
      .cls-1 {
        fill: #fff;
      }
    </style>
  </defs>
  <title>search</title>
  <g>
    <path class="cls-1" d="M11,2.8A7.2,7.2,0,1,1,3.8,10,7.21,7.21,0,0,1,11,2.8M11,1a9,9,0,1,0,9,9,9,9,0,0,0-9-9Z"/>
    <path class="cls-1" d="M11,19.25A9.25,9.25,0,1,1,20.25,10,9.26,9.26,0,0,1,11,19.25Zm0-18A8.75,8.75,0,1,0,19.75,10,8.76,8.76,0,0,0,11,1.25Zm0,16.2A7.45,7.45,0,1,1,18.45,10,7.46,7.46,0,0,1,11,17.45Zm0-14.4a7,7,0,1,0,7,7A7,7,0,0,0,11,3.05Z"/>
  </g>
  <path class="cls-1" d="M23,24a1,1,0,0,1-.73-.31L17.89,19a1,1,0,0,1,0-1.41,1,1,0,0,1,1.42,0l4.38,4.64a1,1,0,0,1,0,1.42A1,1,0,0,1,23,24Z"/>
</svg>
