<svg id="Layer_1" data-name="Layer 1" xmlns="http://www.w3.org/2000/svg" viewBox="0 0 15 15"><defs><style>.cls-1{fill:#b9b9ba;}</style></defs><title>settings</title><g id="Settings_1_2x.png" data-name="Settings 1@2x.png"><path class="cls-1" d="M14.15,5.86l-.66-.16a6,6,0,0,0-.6-1.45l.35-.59a.55.55,0,0,0,0-.66L11.93,1.7a.39.39,0,0,0-.28-.12.71.71,0,0,0-.37.12l-.59.35a6.13,6.13,0,0,0-1.45-.59L9.08.78C9,.56,8.87.32,8.61.32H6.77c-.26,0-.41.24-.47.46l-.16.68a6.13,6.13,0,0,0-1.45.59L4.1,1.7a.71.71,0,0,0-.37-.12.39.39,0,0,0-.28.12L2.14,3a.55.55,0,0,0,0,.66l.35.59a6,6,0,0,0-.6,1.45l-.66.16c-.23.06-.47.21-.47.46V8.17c0,.26.24.39.47.46l.66.17a6.16,6.16,0,0,0,.6,1.45l-.35.59a.53.53,0,0,0,0,.65L3.45,12.8a.36.36,0,0,0,.27.11.87.87,0,0,0,.38-.11l.59-.36a6.16,6.16,0,0,0,1.45.6l.16.67c.06.23.21.46.47.46H8.61c.26,0,.39-.23.47-.46L9.24,13a6.16,6.16,0,0,0,1.45-.6l.59.36a.87.87,0,0,0,.38.11.36.36,0,0,0,.27-.11l1.31-1.31a.53.53,0,0,0,0-.65l-.35-.59a6.16,6.16,0,0,0,.6-1.45l.66-.17c.23-.07.47-.2.47-.46V6.32C14.62,6.07,14.38,5.92,14.15,5.86ZM14,8h0l-.65.16a.62.62,0,0,0-.45.45,5,5,0,0,1-.54,1.29.64.64,0,0,0,0,.64l.34.58-1.1,1.1h0L11,11.9a.61.61,0,0,0-.64,0,5.57,5.57,0,0,1-1.29.53.64.64,0,0,0-.45.46l-.16.65H6.91l-.16-.65a.64.64,0,0,0-.45-.46A5.39,5.39,0,0,1,5,11.9a.61.61,0,0,0-.64,0l-.58.35h0l-1.1-1.1L3,10.57a.64.64,0,0,0,0-.64A5,5,0,0,1,2.5,8.64a.62.62,0,0,0-.45-.45L1.4,8h0V6.47l.66-.16a.64.64,0,0,0,.45-.45A5.26,5.26,0,0,1,3,4.56a.64.64,0,0,0,0-.64l-.34-.57h0l1.1-1.1.58.34a.62.62,0,0,0,.32.09A.61.61,0,0,0,5,2.6,5.42,5.42,0,0,1,6.3,2.06a.62.62,0,0,0,.45-.45L6.91,1H8.47l.16.65a.62.62,0,0,0,.45.45,5.6,5.6,0,0,1,1.29.54.61.61,0,0,0,.32.08A.62.62,0,0,0,11,2.59l.58-.34,1.1,1.1h0l-.34.57a.64.64,0,0,0,0,.64,5.26,5.26,0,0,1,.54,1.3.64.64,0,0,0,.45.45l.66.16ZM7.69,4.1a3.15,3.15,0,1,0,3.15,3.15A3.15,3.15,0,0,0,7.69,4.1Zm0,5.67a2.52,2.52,0,1,1,2.52-2.52A2.52,2.52,0,0,1,7.69,9.77Z"/></g></svg>