<svg width="18" height="18" viewBox="0 0 18 18" xmlns="http://www.w3.org/2000/svg"><path d="M10 11.99c0-1.097.897-1.99 1.99-1.99h4.02c1.097 0 1.99.897 1.99 1.99v4.02c0 1.097-.897 1.99-1.99 1.99h-4.02A1.996 1.996 0 0 1 10 16.01v-4.02zm2 .51v3a.5.5 0 0 0 .5.5h3a.5.5 0 0 0 .5-.5v-3a.5.5 0 0 0-.5-.5h-3a.5.5 0 0 0-.5.5zm-12-.51C0 10.894.897 10 1.99 10h4.02C7.106 10 8 10.897 8 11.99v4.02C8 17.106 7.103 18 6.01 18H1.99A1.996 1.996 0 0 1 0 16.01v-4.02zm2 .51v3a.5.5 0 0 0 .5.5h3a.5.5 0 0 0 .5-.5v-3a.5.5 0 0 0-.5-.5h-3a.5.5 0 0 0-.5.5zm8-10.51C10 .894 10.897 0 11.99 0h4.02C17.106 0 18 .897 18 1.99v4.02C18 7.106 17.103 8 16.01 8h-4.02A1.996 1.996 0 0 1 10 6.01V1.99zm2 .51v3a.5.5 0 0 0 .5.5h3a.5.5 0 0 0 .5-.5v-3a.5.5 0 0 0-.5-.5h-3a.5.5 0 0 0-.5.5zM0 1.99C0 .894.897 0 1.99 0h4.02C7.106 0 8 .897 8 1.99v4.02C8 7.106 7.103 8 6.01 8H1.99A1.996 1.996 0 0 1 0 6.01V1.99zm2 .51v3a.5.5 0 0 0 .5.5h3a.5.5 0 0 0 .5-.5v-3a.5.5 0 0 0-.5-.5h-3a.5.5 0 0 0-.5.5z" fill="#C9C9CA"/></svg>