<svg id="Layer_1" data-name="Layer 1" xmlns="http://www.w3.org/2000/svg" viewBox="0 0 45 37"><defs><style>.cls-1{fill:#377bbe;}</style></defs><title>users_blue</title><g id="Users_2_2x.png" data-name="Users 2@2x.png"><path class="cls-1" d="M5.27,27.88a5.27,5.27,0,0,0,3.66-5.33,7.72,7.72,0,0,0-1.55-5.17l-.07-.09v0a3.32,3.32,0,0,1,.1-1.77,2.16,2.16,0,0,0-.14-1.35c-.41-.89-1.16-2.54-.63-3.78.87-2.14,1.24-2.3,2.23-2.73l.27-.14A5.29,5.29,0,0,1,11.42,7a2.81,2.81,0,0,1,1.24.26,6.89,6.89,0,0,1,.34-1c.12-.31.25-.57.37-.84A4.89,4.89,0,0,0,11.42,5a7,7,0,0,0-3.36.85c-1.6.7-2.27,1.34-3.28,3.8-.88,2.05.16,4.29.68,5.41-.63,2.57.24,3.46.24,3.46a5.77,5.77,0,0,1,1.23,4.08A3.23,3.23,0,0,1,4.68,26,5.75,5.75,0,0,0,.44,32a1,1,0,0,0,1,1H5.9a8.19,8.19,0,0,1,.94-2H2.51A3.67,3.67,0,0,1,5.27,27.88ZM40.19,26A3.23,3.23,0,0,1,38,22.55a5.72,5.72,0,0,1,1.23-4.08s.87-.89.24-3.46c.51-1.12,1.55-3.36.68-5.41-1-2.46-1.68-3.1-3.28-3.8A7.1,7.1,0,0,0,33.45,5a4.87,4.87,0,0,0-2,.42,14.28,14.28,0,0,1,.62,1.92l.08,0A2.67,2.67,0,0,1,33.45,7a5.2,5.2,0,0,1,2.29.54,2.44,2.44,0,0,0,.28.14c1,.43,1.35.59,2.23,2.73.53,1.24-.23,2.89-.63,3.78a2.09,2.09,0,0,0-.14,1.35,3.45,3.45,0,0,1,.1,1.77l0,0-.07.09A7.73,7.73,0,0,0,36,22.55a5.26,5.26,0,0,0,3.66,5.33A3.66,3.66,0,0,1,42.36,31H38A8.57,8.57,0,0,1,39,33h4.46a1,1,0,0,0,1-1A5.76,5.76,0,0,0,40.19,26Zm-9.78,2.2a4.77,4.77,0,0,1-3.58-4.6,7.11,7.11,0,0,1,2-5.25s1.17-1,.39-4.32c1.3-1.81,1.72-4.76.13-8.4-.89-2.12-1.68-3.29-2.88-4A5.68,5.68,0,0,0,23.67,1,8.7,8.7,0,0,0,19.46,2c-2,.9-3.34,1.73-4.61,4.88-1.09,2.65.21,5.52.85,7-.78,3.3.31,4.43.31,4.43a7.15,7.15,0,0,1,2,5.25,4.77,4.77,0,0,1-3.59,4.6c-2.27.82-7,2.39-7,7.79a1,1,0,0,0,1,1h28a1,1,0,0,0,1-1C37.44,30.56,32.69,29,30.41,28.17ZM9.52,35C10,32.14,12.45,31,15,30.11l.08,0a6.73,6.73,0,0,0,5-6.52,8.66,8.66,0,0,0-2.18-6.11l-.29-.37a4.53,4.53,0,0,1,.07-2.74A1.66,1.66,0,0,0,17.51,13C17,11.8,16,9.51,16.71,7.66c1-2.55,1.93-3,3.57-3.79l.28-.15A6.66,6.66,0,0,1,23.67,3a3.76,3.76,0,0,1,1.86.43c.59.33,1.16,1,2,3,1.6,3.66.58,5.71.07,6.42a2,2,0,0,0-.32,1.63A4.06,4.06,0,0,1,27.38,17l-.38.47a8.67,8.67,0,0,0-2.17,6.11,6.73,6.73,0,0,0,5,6.52l.08,0c2.52.91,5,2,5.45,4.85Z"/></g></svg>