<svg id="Layer_1" data-name="Layer 1" xmlns="http://www.w3.org/2000/svg" viewBox="0 0 15 15"><defs><style>.cls-1{fill:#1b86c8;}</style></defs><title>user</title><g id="User_Male_2x.png" data-name="User Male@2x.png"><path class="cls-1" d="M8.08.53A6.93,6.93,0,1,0,15,7.45,6.92,6.92,0,0,0,8.08.53Zm0,13.22A6.25,6.25,0,0,1,4,12.22a7.11,7.11,0,0,1,2.19-1.36,1.64,1.64,0,0,0,1-2.33C7.11,8.35,7,8.19,6.92,8a5,5,0,0,1-.73-2.85c0-1.85.88-1.86,1.58-1.88a2.38,2.38,0,0,0,.93-.16,1,1,0,0,1,.35-.07c.58,0,1.23.57,1.23,2.19a4.27,4.27,0,0,1-.62,2.69l-.32.59a1.59,1.59,0,0,0-.13,1.23A2.35,2.35,0,0,0,10.58,11a7,7,0,0,1,1.64,1.21A6.26,6.26,0,0,1,8.08,13.75Zm4.59-2a7.6,7.6,0,0,0-1.82-1.34c-.59-.28-.94-.57-1-.87a.93.93,0,0,1,.1-.74c.11-.22.21-.4.3-.56a4.89,4.89,0,0,0,.7-3c0-2.69-1.55-2.82-1.86-2.82a1.39,1.39,0,0,0-.56.11,1.86,1.86,0,0,1-.73.12c-.71,0-2.2,0-2.2,2.51a5.57,5.57,0,0,0,.81,3.16,5.21,5.21,0,0,1,.24.47c.3.68.08,1.16-.69,1.5a7.33,7.33,0,0,0-2.4,1.5A6.3,6.3,0,1,1,14.38,7.45,6.23,6.23,0,0,1,12.67,11.75Z"/></g></svg>