<svg id="Layer_1" data-name="Layer 1" xmlns="http://www.w3.org/2000/svg" width="50" height="50" viewBox="0 0 50 50">
  <defs>
    <style>
      .cls-1 {
        fill: #2493d1;
      }
    </style>
  </defs>
  <title>users</title>
  <g id="Users_2_2x.png" data-name="Users 2@2x.png">
    <path class="cls-1" d="M6.07,34.58A5.66,5.66,0,0,0,10,28.85a8.26,8.26,0,0,0-1.66-5.54l-.07-.1,0,0a3.76,3.76,0,0,1,.11-1.9,2.26,2.26,0,0,0-.15-1.45c-.44-.95-1.25-2.72-.68-4.06.94-2.29,1.34-2.46,2.4-2.92a1.64,1.64,0,0,0,.29-.16,5.69,5.69,0,0,1,2.46-.57A2.91,2.91,0,0,1,14,12.4a8,8,0,0,1,.36-1.11c.13-.33.27-.61.4-.9A5.2,5.2,0,0,0,12.68,10a7.64,7.64,0,0,0-3.61.91c-1.72.75-2.44,1.44-3.52,4.07-.94,2.21.18,4.61.73,5.82-.68,2.75.26,3.7.26,3.7a6.25,6.25,0,0,1,1.31,4.38c0,3.13-2.4,3.67-2.4,3.67A6.19,6.19,0,0,0,.89,39,1,1,0,0,0,2,40H6.75a8.7,8.7,0,0,1,1-2.15H3.12A3.92,3.92,0,0,1,6.07,34.58Zm27,.31A5.13,5.13,0,0,1,29.21,30a7.63,7.63,0,0,1,2.19-5.63s1.26-1.1.42-4.64c1.4-1.94,1.85-5.11.14-9-1-2.28-1.8-3.53-3.09-4.26a6.19,6.19,0,0,0-3.05-.73,9.3,9.3,0,0,0-4.51,1.17c-2.15,1-3.59,1.85-4.95,5.23-1.17,2.85.22,5.93.91,7.48-.84,3.54.33,4.76.33,4.76A7.63,7.63,0,0,1,19.79,30a5.13,5.13,0,0,1-3.85,4.94c-2.44.88-7.54,2.56-7.54,8.36a1.05,1.05,0,0,0,1.08,1.07h30a1.05,1.05,0,0,0,1.08-1.07C40.6,37.45,35.5,35.77,33.06,34.89ZM10.63,42.17c.5-3,3.15-4.23,5.86-5.2l.08,0a7.2,7.2,0,0,0,5.36-7,9.3,9.3,0,0,0-2.33-6.56L19.29,23a4.82,4.82,0,0,1,.07-2.95,1.79,1.79,0,0,0-.15-1.42c-.59-1.31-1.68-3.77-.86-5.75,1.1-2.74,2.07-3.28,3.83-4.07a1.46,1.46,0,0,0,.3-.17,7.41,7.41,0,0,1,3.34-.81,4.05,4.05,0,0,1,2,.45c.64.36,1.25,1.05,2.17,3.25,1.73,3.93.63,6.13.08,6.89a2.14,2.14,0,0,0-.34,1.75,4.53,4.53,0,0,1,.08,2.72l-.41.5A9.3,9.3,0,0,0,27.07,30a7.2,7.2,0,0,0,5.36,7l.08,0c2.71,1,5.36,2.18,5.86,5.2Zm32.92-9.65s-2.4-.54-2.4-3.67a6.25,6.25,0,0,1,1.31-4.38s.94-.95.26-3.7c.55-1.21,1.67-3.61.73-5.82-1.08-2.63-1.8-3.32-3.52-4.07A7.64,7.64,0,0,0,36.32,10a5.08,5.08,0,0,0-2.16.45,17,17,0,0,1,.67,2.06l.08-.06a3,3,0,0,1,1.41-.3,5.69,5.69,0,0,1,2.46.57,1.64,1.64,0,0,0,.29.16c1.06.46,1.46.63,2.4,2.92.57,1.34-.24,3.11-.68,4.06a2.26,2.26,0,0,0-.15,1.45,3.76,3.76,0,0,1,.11,1.9l0,0-.07.1A8.26,8.26,0,0,0,39,28.85a5.66,5.66,0,0,0,3.93,5.73,3.92,3.92,0,0,1,3,3.3H41.24a8.7,8.7,0,0,1,1,2.15H47A1,1,0,0,0,48.11,39,6.19,6.19,0,0,0,43.55,32.52Z"/>
  </g>
</svg>
