<svg id="Layer_1" data-name="Layer 1" xmlns="http://www.w3.org/2000/svg" viewBox="0 0 15 15"><defs><style>.cls-1{fill:#b9b9ba;}</style></defs><title>view</title><g id="Eye_2x.png" data-name="Eye@2x.png"><path class="cls-1" d="M7.57,6.63a.95.95,0,0,0,0,1.89.95.95,0,1,0,0-1.89Zm0-2.21a3.15,3.15,0,1,0,3.15,3.15A3.15,3.15,0,0,0,7.57,4.42Zm0,5.67a2.52,2.52,0,1,1,2.52-2.52A2.52,2.52,0,0,1,7.57,10.09Zm0-6.93C3.75,3.16.65,6.31.65,7.57S3.75,12,7.57,12,14.5,8.83,14.5,7.57,11.4,3.16,7.57,3.16Zm0,8.19c-3.48,0-6.29-2.7-6.29-3.78S4.09,3.79,7.57,3.79s6.3,2.7,6.3,3.78S11.05,11.35,7.57,11.35Z"/></g></svg>