<?xml version="1.0" standalone="no"?>
<!DOCTYPE svg PUBLIC "-//W3C//DTD SVG 1.1//EN" "http://www.w3.org/Graphics/SVG/1.1/DTD/svg11.dtd" >
<svg xmlns="http://www.w3.org/2000/svg">
<metadata>Generated by IcoMoon</metadata>
<defs>
<font id="unifun" horiz-adv-x="1024">
<font-face units-per-em="1024" ascent="960" descent="-64" />
<missing-glyph horiz-adv-x="1024" />
<glyph unicode="&#x20;" horiz-adv-x="512" d="" />
<glyph unicode="&#xe900;" glyph-name="add" d="M514.816 916.736c-0.076 0-0.166 0-0.256 0-262.976 0-476.16-213.184-476.16-476.16s213.184-476.16 476.16-476.16c262.976 0 476.16 213.184 476.16 476.16v0c0 262.886-213.038 476.014-475.89 476.16h-0.014zM514.816 7.936c-0.152 0-0.332 0-0.512 0-239.082 0-432.896 193.814-432.896 432.896s193.814 432.896 432.896 432.896c239.082 0 432.896-193.814 432.896-432.896 0-0.090 0-0.18 0-0.269v0.014c-0.145-238.792-193.612-432.348-432.356-432.64h-0.028zM752.64 462.336h-215.040v216.064c0.082 0.707 0.128 1.526 0.128 2.357 0 12.018-9.742 21.76-21.76 21.76s-21.76-9.742-21.76-21.76c0-0.83 0.046-1.65 0.137-2.456l-0.009 0.099v-216.32h-217.6c-0.707 0.082-1.526 0.128-2.357 0.128-12.018 0-21.76-9.742-21.76-21.76s9.742-21.76 21.76-21.76c0.83 0 1.65 0.046 2.456 0.137l-0.099-0.009h216.32v-216.576c1.229-10.961 10.445-19.403 21.632-19.403s20.403 8.443 21.623 19.304l0.009 0.099v216.832h216.32c0.707-0.082 1.526-0.128 2.357-0.128 12.018 0 21.76 9.742 21.76 21.76s-9.742 21.76-21.76 21.76c-0.83 0-1.65-0.046-2.456-0.137l0.099 0.009z" />
<glyph unicode="&#xe901;" glyph-name="ads" d="M910.080 908.8h-377.088c-0.034 0-0.074 0-0.115 0-5.761 0-10.974-2.35-14.732-6.143l-460.802-460.802c-3.795-3.759-6.144-8.972-6.144-14.733 0-0.040 0-0.081 0-0.121v0.006c0.027-5.793 2.368-11.033 6.146-14.85l418.814-418.814c3.815-3.776 9.055-6.117 14.843-6.144h0.005c0.034 0 0.074 0 0.115 0 5.761 0 10.974 2.35 14.732 6.143l70.658 70.658c-10.201 10.359-17.334 23.768-19.906 38.735l-0.062 0.433-65.536-64.768-388.608 388.608 439.296 439.808h368.384c11.452 0 20.736-9.284 20.736-20.736v0-368.384l-41.216-41.472c11.021-9.31 18.941-21.98 22.188-36.418l0.084-0.446 54.784 54.784c3.795 3.759 6.144 8.972 6.144 14.733 0 0.040 0 0.081 0 0.121v-0.006 377.088c0 34.639-28.081 62.72-62.72 62.72v0zM784.384 783.104c-0.076 0-0.166 0.001-0.255 0.001-34.781 0-62.976-28.195-62.976-62.976s28.195-62.976 62.976-62.976c34.781 0 62.976 28.195 62.976 62.976 0 0.090 0 0.18-0.001 0.269v-0.014c-0.145 34.581-28.139 62.575-62.706 62.72h-0.014zM784.384 699.392c-0.076-0.001-0.166-0.002-0.256-0.002-11.594 0-20.992 9.398-20.992 20.992s9.398 20.992 20.992 20.992c11.593 0 20.991-9.398 20.992-20.99v0c0.001-0.076 0.002-0.166 0.002-0.256 0-11.452-9.284-20.736-20.736-20.736-0.001 0-0.001 0-0.002 0v0zM784.384 786.432c-36.477 0-66.048-29.571-66.048-66.048s29.571-66.048 66.048-66.048c36.477 0 66.048 29.571 66.048 66.048v0c0 36.477-29.571 66.048-66.048 66.048v0zM784.384 660.736c-32.611 0.433-58.88 26.97-58.88 59.643 0 32.943 26.705 59.648 59.648 59.648 32.941 0 59.645-26.702 59.648-59.643v0c0-0.002 0-0.003 0-0.005 0-32.943-26.705-59.648-59.648-59.648-0.27 0-0.54 0.002-0.809 0.005h0.041zM910.080 870.144h-369.664l-443.136-443.136 393.728-393.728 66.304 66.048c-0.699 2.214-1.241 4.821-1.521 7.504l-0.015 0.176-64.768-64.768-384 384 435.968 437.504h367.104c9.756 0 17.664-7.908 17.664-17.664v0-367.104l-40.704-40.704 5.12-4.096 41.984 42.24v369.664c0 13.29-10.774 24.064-24.064 24.064v0zM910.080 911.872h-377.088c-0.081 0.001-0.176 0.002-0.272 0.002-6.578 0-12.539-2.639-16.883-6.917l-460.797-460.797c-4.092-4.52-6.596-10.543-6.596-17.152s2.504-12.632 6.615-17.174l-0.019 0.022 419.072-418.816c4.247-4.421 10.208-7.168 16.811-7.168 0.030 0 0.060 0 0.090 0h-0.005c6.681 0.167 12.7 2.869 17.159 7.175l70.905 70.905-4.608 4.608-70.912-70.912c-3.284-3.258-7.807-5.271-12.8-5.271s-9.516 2.013-12.801 5.273l0.001-0.001-418.304 418.816c-3.166 3.229-5.12 7.657-5.12 12.541 0 0.001 0 0.002 0 0.003v0c-0.001 0.063-0.001 0.138-0.001 0.212 0 4.818 1.958 9.179 5.121 12.331l460.801 460.801c3.152 3.164 7.514 5.121 12.332 5.121 0.075 0 0.149 0 0.223-0.001h377.077c0 0 0 0 0.001 0 32.853 0 59.502-26.56 59.647-59.378v-377.102c-0.042-4.925-2.093-9.362-5.371-12.54l-0.005-0.004-53.504-53.504c0.699-2.214 1.241-4.821 1.521-7.504l0.015-0.176 56.576 56.576c4.299 4.452 7.001 10.471 7.167 17.12l0.001 0.032v377.088c-0.145 36.367-29.66 65.792-66.048 65.792 0 0 0 0-0.001 0v0zM742.4 454.4c116.643 0 211.2-94.557 211.2-211.2s-94.557-211.2-211.2-211.2c-116.643 0-211.2 94.557-211.2 211.2v0c0.146 116.584 94.616 211.054 211.186 211.2h0.014zM742.4 499.2c-141.385 0-256-114.615-256-256s114.615-256 256-256c141.385 0 256 114.615 256 256v0c0 141.385-114.615 256-256 256v0zM768 385.024v-116.224h112.384v-51.2h-112.384v-118.272h-51.2v118.272h-113.152v51.2h113.152v116.224z" />
<glyph unicode="&#xe902;" glyph-name="archive" d="M386.304 254.976h251.392c0 0 0 0 0.001 0 23.097 0 41.838 18.651 41.983 41.714v41.998c-0.145 23.077-18.886 41.728-41.983 41.728 0 0-0.001 0-0.001 0h-251.392c-23.046 0-41.728-18.682-41.728-41.728v0-41.984c0-23.046 18.682-41.728 41.728-41.728v0zM386.304 338.688h251.392v-41.984h-251.392zM930.816 631.808h-83.712v167.68c0 0 0 0.001 0 0.001 0 23.046-18.682 41.728-41.728 41.728-0.090 0-0.18 0-0.27-0.001h-167.41l-41.984 41.984h-376.832c-0.076 0.001-0.167 0.001-0.257 0.001-23.046 0-41.728-18.682-41.728-41.728 0-0.090 0-0.181 0.001-0.271v0.014-209.408h-83.712c-0.076 0.001-0.166 0.001-0.256 0.001-23.046 0-41.728-18.682-41.728-41.728 0 0 0-0.001 0-0.001v0-83.968c0 0 0-0.001 0-0.001 0-23.046 18.682-41.728 41.728-41.728 0.090 0 0.18 0 0.27 0.001h41.714v-460.8c0-23.187 18.797-41.984 41.984-41.984h670.208c23.187 0 41.984 18.797 41.984 41.984v0 460.8h41.728c0.076-0.001 0.166-0.001 0.256-0.001 23.046 0 41.728 18.682 41.728 41.728 0 0 0 0.001 0 0.001v0 83.968c0 0 0 0.001 0 0.001 0 23.046-18.682 41.728-41.728 41.728-0.090 0-0.18 0-0.27-0.001h0.014zM805.12 799.488v-167.68h-83.712v125.696l-41.728 41.984zM595.712 820.48l62.976-62.976h-62.976zM218.88 841.216h335.104v-104.704c0 0 0-0.001 0-0.002 0-11.504 9.253-20.846 20.722-20.99h104.974v-83.712h-460.8zM847.104 3.584h-670.208v460.8h670.208zM930.816 506.112h-837.632v83.968h837.632z" />
<glyph unicode="&#xe903;" glyph-name="arrow_top" d="M951.808 126.72h-649.216v557.056l173.568-173.824c3.799-3.801 9.049-6.153 14.848-6.153 11.594 0 20.992 9.398 20.992 20.992 0 0.003 0 0.006 0 0.009v-0.001c0 0.034 0 0.074 0 0.115 0 5.761-2.35 10.974-6.143 14.732l-209.41 209.41c-3.799 3.801-9.049 6.153-14.848 6.153s-11.049-2.351-14.848-6.153l-209.408-209.408c-3.795-3.759-6.144-8.972-6.144-14.733 0-0.040 0-0.081 0-0.121v0.006c0-0.003 0-0.006 0-0.009 0-11.594 9.398-20.992 20.992-20.992 5.799 0 11.049 2.351 14.848 6.153l173.568 173.824v-577.792c0-11.594 9.398-20.992 20.992-20.992v0h670.208c0.695-0.082 1.499-0.128 2.315-0.128 11.594 0 20.992 9.398 20.992 20.992s-9.398 20.992-20.992 20.992c-0.815 0-1.62-0.046-2.411-0.137l0.097 0.009zM951.808 81.664h-670.208c-13.462 0.834-24.064 11.956-24.064 25.554 0 0.016 0 0.032 0 0.049v-0.003 568.576l-168.192-168.192c-4.239-3.683-9.813-5.927-15.911-5.927-13.432 0-24.32 10.888-24.32 24.32 0 6.098 2.244 11.672 5.952 15.941l-0.025-0.030 209.408 209.408c4.52 4.092 10.543 6.596 17.152 6.596s12.632-2.504 17.174-6.615l-0.022 0.019 209.408-209.408c4.438-4.368 7.187-10.44 7.187-17.154 0-13.29-10.774-24.064-24.064-24.064-0.097 0-0.193 0.001-0.29 0.002h0.015c-0.081-0.001-0.176-0.002-0.272-0.002-6.578 0-12.539 2.639-16.883 6.917l-168.189 168.189v-545.792h646.144c0.747 0.082 1.614 0.128 2.492 0.128 13.432 0 24.32-10.888 24.32-24.32s-10.888-24.32-24.32-24.32c-0.878 0-1.744 0.046-2.598 0.137l0.106-0.009zM263.936 691.456v-585.472c-0.001-0.076-0.002-0.166-0.002-0.256 0-9.756 7.908-17.664 17.664-17.664 0.001 0 0.001 0 0.002 0h670.208c0.642-0.081 1.385-0.128 2.138-0.128 9.897 0 17.92 8.023 17.92 17.92s-8.023 17.92-17.92 17.92c-0.754 0-1.496-0.047-2.225-0.137l0.087 0.009h-652.544v567.808l179.2-179.2c3.23-3.169 7.659-5.124 12.546-5.124 9.808 0 17.776 7.88 17.918 17.655v0.013c-0.042 4.925-2.093 9.362-5.371 12.54l-0.005 0.004-209.408 209.408c-3.255 3.32-7.787 5.379-12.8 5.379s-9.545-2.058-12.797-5.376l-0.003-0.003-208.896-209.408c-3.164-3.152-5.121-7.514-5.121-12.332 0-0.075 0-0.149 0.001-0.223v0.011c0-0.032 0-0.070 0-0.108 0-9.756 7.908-17.664 17.664-17.664 4.905 0 9.342 1.999 12.543 5.227l0.001 0.001z" />
<glyph unicode="&#xe904;" glyph-name="bcheck" d="M889.088 908.8h-754.176c-46.174-0.145-83.567-37.538-83.712-83.698v-754.19c0.145-46.174 37.538-83.567 83.698-83.712h754.19c46.174 0.145 83.567 37.538 83.712 83.698v754.19c-0.145 46.174-37.538 83.567-83.698 83.712h-0.014zM930.816 70.912c0-23.046-18.682-41.728-41.728-41.728v0h-754.176c-23.046 0-41.728 18.682-41.728 41.728v754.176c0 23.046 18.682 41.728 41.728 41.728v0h754.176c23.046 0 41.728-18.682 41.728-41.728v0z" />
<glyph unicode="&#xe905;" glyph-name="beye" d="M502.528 513.792c-35.91-0.003-65.019-29.114-65.019-65.024 0-35.912 29.112-65.024 65.024-65.024 35.642 0 64.586 28.676 65.019 64.215v0.041c0.005 0.305 0.008 0.664 0.008 1.025 0 35.77-28.998 64.768-64.768 64.768-0.093 0-0.186 0-0.278-0.001h0.014zM502.528 751.872c-262.912 0-476.928-216.32-476.928-303.872s214.016-302.080 476.928-302.080 476.16 216.32 476.16 302.080-213.248 303.872-476.16 303.872zM502.528 188.672c-238.848 0-432.64 185.6-432.64 259.84s193.792 260.096 432.64 260.096 432.896-185.6 432.896-260.608-193.024-258.816-432.896-258.816zM502.528 664.832c-0.076 0-0.166 0-0.256 0-119.612 0-216.576-96.964-216.576-216.576s96.964-216.576 216.576-216.576c119.522 0 216.43 96.818 216.576 216.306v0.014c0.002 0.304 0.002 0.664 0.002 1.024 0 119.47-96.85 216.32-216.32 216.32-0.001 0-0.002 0-0.003 0v0zM502.528 275.2c-0.076 0-0.165 0-0.255 0-95.718 0-173.312 77.594-173.312 173.312s77.594 173.312 173.312 173.312c95.718 0 173.312-77.594 173.312-173.312 0-0.18 0-0.36-0.001-0.54v0.028c-0.58-95.188-77.807-172.145-173.042-172.288h-0.014zM819.2 38.4c-0.026 0-0.056 0-0.087 0-8.004 0-15.15 3.673-19.844 9.426l-0.037 0.046-640 793.6c-3.55 4.367-5.7 9.997-5.7 16.128 0 14.176 11.492 25.668 25.668 25.668 8.044 0 15.225-3.701 19.931-9.492l0.037-0.047 640-793.6c3.561-4.363 5.719-9.994 5.719-16.128 0-14.138-11.462-25.6-25.6-25.6-0.031 0-0.061 0-0.092 0h0.005z" />
<glyph unicode="&#xe906;" glyph-name="bheart" d="M978.944 627.2c0 134.174-108.77 242.944-242.944 242.944v0c-69.834-1.416-133.083-28.485-180.955-72.133l0.219 0.197c-3.703-2.739-6.422-6.622-7.647-11.12l-0.033-0.144-66.304-220.928 107.52-129.792-86.528-194.816 44.8-177.408c1.873-9.683 10.283-16.896 20.377-16.896 0.036 0 0.072 0 0.108 0h-0.006c6.076 0.060 11.573 2.489 15.622 6.406l-0.006-0.006c76.8 45.312 368.896 324.096 393.728 543.744v0s2.048 15.36 2.048 29.952zM934.4 605.184v-3.584c-20.992-184.576-263.424-430.592-352-497.152l-30.464 137.216 90.624 201.728-111.616 128 56.064 195.328c39.182 35.273 91.083 57.095 148.069 57.854l0.155 0.002c110.28 0 199.68-89.4 199.68-199.68v0c0.037-1.491 0.058-3.248 0.058-5.009 0-5.534-0.207-11.020-0.613-16.451l0.044 0.724zM459.008 30.464l-37.12 167.68 90.112 201.728-111.616 128 58.368 201.728c0.943 2.004 1.659 4.331 2.030 6.77l0.018 0.142c-0.063 7.059-3.558 13.289-8.896 17.108l-0.064 0.044c-47.77 43.409-111.086 70.462-180.695 71.931l-0.297 0.005c-134.174 0-242.944-108.77-242.944-242.944v0c0-13.568 1.792-29.184 1.792-29.184v0c25.6-219.648 317.44-498.432 393.984-543.744 3.822-3.95 9.171-6.402 15.093-6.402 0.094 0 0.188 0.001 0.282 0.002h-0.014c0.076-0.001 0.166-0.002 0.256-0.002 11.876 0 21.504 9.628 21.504 21.504 0 0.001 0 0.001 0 0.002v0c0.069 0.805 0.109 1.742 0.109 2.688s-0.039 1.883-0.117 2.809l0.008-0.121zM71.936 558.080v2.816c0 4.096 0 14.080 0 22.016 0.146 110.222 89.458 199.534 199.666 199.68h0.014c54.145-1.119 103.451-20.957 141.917-53.278l-0.349 0.286-61.696-206.336 109.312-130.304-86.528-194.816 29.696-120.576c-101.888 84.224-312.832 308.992-332.032 480.512z" />
<glyph unicode="&#xe907;" glyph-name="ban" d="M512 908.8c-254.493 0-460.8-206.307-460.8-460.8s206.307-460.8 460.8-460.8c254.493 0 460.8 206.307 460.8 460.8v0c0 254.493-206.307 460.8-460.8 460.8v0zM512 29.184c-0.421-0.002-0.921-0.002-1.42-0.002-231.023 0-418.304 187.281-418.304 418.304 0 108.862 41.585 208.011 109.735 282.428l-0.284-0.314 591.872-591.872c-73.687-67.312-172.192-108.546-280.328-108.546-0.447 0-0.894 0.001-1.341 0.002h0.069zM822.272 166.4l-591.872 591.872c75.737 75.737 180.366 122.581 295.936 122.581 231.14 0 418.517-187.376 418.517-418.517 0-115.57-46.844-220.199-122.581-295.936v0z" />
<glyph unicode="&#xe908;" glyph-name="bell" d="M870.4 294.4c0 139.264-159.232 139.264-159.232 338.432 0 0.021 0 0.046 0 0.071 0 81.788-49.299 152.062-119.802 182.727l-1.286 0.498c0.977 4.732 1.536 10.171 1.536 15.74 0 0.046 0 0.093 0 0.139v-0.007c0 43.971-35.645 79.616-79.616 79.616s-79.616-35.645-79.616-79.616v0c0-0.039 0-0.086 0-0.132 0-5.569 0.559-11.008 1.625-16.263l-0.088 0.523c-71.789-31.163-121.088-101.437-121.088-183.225 0-0.025 0-0.050 0-0.075v0.004c0-199.168-159.232-199.168-159.232-338.432 0-60.672 100.096-112.384 239.616-131.328 0-2.816 0-5.376 0-7.936 0-66.027 53.525-119.552 119.552-119.552s119.552 53.525 119.552 119.552v0c0 2.56 0 5.12 0 7.936 137.984 18.944 238.080 70.656 238.080 131.328zM512 871.936c22.056 0 39.936-17.88 39.936-39.936s-17.88-39.936-39.936-39.936c-22.056 0-39.936 17.88-39.936 39.936v0c0 22.056 17.88 39.936 39.936 39.936v0zM251.392 402.688c45.056 47.104 102.4 105.728 102.4 230.4-0.001 0.158-0.001 0.346-0.001 0.533 0 65.908 39.978 122.478 97.007 146.784l1.042 0.395c14.555-17.102 36.099-27.88 60.16-27.88s45.605 10.777 60.068 27.768l0.092 0.111c58.576-24.438 99.009-81.217 99.072-147.448v-0.008c0-124.416 56.32-183.040 102.4-230.4 8.704-9.216 16.64-17.408 23.552-25.6-37.888-36.352-150.528-62.72-284.16-62.72s-246.272 25.6-284.416 62.464c6.144 7.936 14.080 16.384 22.784 25.6zM512 75.264c-44.002 0.146-79.616 35.849-79.616 79.872 0 0 0 0 0 0v0s0 2.304 0 3.328c25.6-2.048 51.2-3.328 79.36-3.328s53.76 1.28 79.36 3.328c0 0 0-2.304 0-3.328 0-0.001 0-0.002 0-0.004 0-43.842-35.323-79.434-79.063-79.868h-0.041zM512 194.816c-204.8 0-318.464 65.792-318.464 99.584-0.005 0.395-0.008 0.862-0.008 1.329 0 19.248 5.034 37.32 13.856 52.972l-0.28-0.541c54.528-43.52 170.24-73.728 304.896-73.728s250.368 30.208 304.896 73.728c8.543-15.047 13.579-33.054 13.579-52.237 0-0.536-0.004-1.071-0.012-1.604l0.001 0.081c0-33.792-112.384-99.584-318.464-99.584zM512 32.256c-67.755 0.146-122.624 55.105-122.624 122.88 0 0 0 0 0 0v0c-0.061 0.766-0.096 1.659-0.096 2.56s0.035 1.794 0.103 2.677l-0.007-0.117c-142.848 20.224-238.848 73.984-238.848 134.144 0 64.768 33.792 100.352 69.888 137.984 41.728 43.776 89.344 92.416 89.344 200.448 0 0.12 0 0.261 0 0.403 0 82.047 48.982 152.654 119.299 184.173l1.277 0.512c-0.176 2.108-0.276 4.562-0.276 7.040s0.1 4.932 0.297 7.359l-0.021-0.319c0 45.809 37.135 82.944 82.944 82.944s82.944-37.135 82.944-82.944v0c0.176-2.108 0.276-4.562 0.276-7.040s-0.1-4.932-0.297-7.359l0.021 0.319c71.594-32.031 120.576-102.638 120.576-184.685 0-0.142 0-0.283 0-0.425v0.022c0-107.008 47.616-156.672 89.344-200.448 36.096-37.632 70.144-73.216 70.144-137.984 0-60.16-96-113.92-239.36-134.144 0.061-0.766 0.096-1.659 0.096-2.56s-0.035-1.794-0.103-2.677l0.007 0.117c0-0.005 0-0.011 0-0.017 0-67.865-55.015-122.88-122.88-122.88-0.72 0-1.439 0.006-2.156 0.019l0.108-0.001zM512 908.8c-42.415 0-76.8-34.385-76.8-76.8v0c0.004-5.438 0.563-10.744 1.624-15.866l-0.088 0.506v-2.56h-2.304c-70.374-30.415-118.78-99.123-119.040-179.167v-0.033c0-109.568-48.384-160.256-91.136-204.8-35.84-40.448-67.328-73.472-67.328-135.68 0-57.344 94.976-108.8 236.544-128h3.072v-5.376c-0.061-0.804-0.095-1.742-0.095-2.688s0.035-1.884 0.103-2.812l-0.007 0.124c0-64.189 52.035-116.224 116.224-116.224s116.224 52.035 116.224 116.224v0c0.061 0.804 0.095 1.742 0.095 2.688s-0.035 1.884-0.103 2.812l0.007-0.124v5.376h3.072c141.568 19.456 236.8 70.912 236.8 128 0 62.208-31.744 95.232-68.352 133.376-42.752 44.8-91.136 95.488-91.136 204.8-0.26 80.077-48.666 148.785-117.775 178.712l-1.265 0.488h-2.304v2.56c0.61 3.668 0.959 7.894 0.959 12.202 0 1.922-0.069 3.828-0.206 5.715l0.015-0.253c0 42.415-34.385 76.8-76.8 76.8v0zM512 72.448c-45.75 0.145-82.799 37.194-82.944 82.93v0.014s0 1.536 0 2.304 0 0 0 1.28v3.328h3.328c23.701-2.201 51.256-3.456 79.104-3.456s55.402 1.255 82.61 3.712l-3.506-0.255h3.328v-3.328s0 0 0-1.28 0-1.536 0-2.304c0-0.003 0-0.006 0-0.010 0-45.5-36.524-82.469-81.852-83.189l-0.068-0.001zM435.2 155.392v0c0-42.415 34.385-76.8 76.8-76.8s76.8 34.385 76.8 76.8v0 0c-23.457-2.175-50.73-3.415-78.293-3.415-26.508 0-52.749 1.147-78.674 3.395l3.367-0.235zM512 192c-211.2 0-321.792 66.56-321.792 102.4 0 0.076 0 0.165 0 0.254 0 20.247 5.416 39.229 14.878 55.576l-0.285-0.534 1.792 3.328 3.072-2.56c55.040-44.288 174.336-72.704 302.336-72.704s247.296 28.672 302.848 72.96l3.072 2.304 1.792-3.328c8.862-15.595 14.086-34.26 14.086-54.144 0-0.405-0.002-0.809-0.006-1.213l0.001 0.062c0-35.84-110.592-102.4-321.792-102.4zM208.128 343.296c-7.267-13.704-11.534-29.961-11.534-47.213 0-0.592 0.005-1.182 0.015-1.771l-0.001 0.089c0-28.928 107.264-96.256 315.392-96.256s315.392 67.328 315.392 96.256c0.009 0.501 0.014 1.091 0.014 1.683 0 17.253-4.267 33.509-11.803 47.771l0.269-0.558c-58.624-44.544-174.336-71.936-303.872-71.936s-245.248 27.392-303.872 71.936zM512 311.040c-131.328 0-246.528 25.6-286.72 63.488l-2.048 2.048 2.048 2.304c6.912 8.192 15.104 16.64 23.552 25.6v0c44.8 46.848 100.352 104.96 100.352 228.096 0.137 67.94 41.996 126.069 101.313 150.138l1.087 0.39h2.304l1.536-1.792c13.898-16.446 34.538-26.819 57.6-26.819s43.702 10.373 57.508 26.708l0.092 0.111 1.536 1.792h2.304c60.404-24.459 102.263-82.588 102.4-150.511v-0.017c0-123.136 55.552-181.248 100.352-228.096 8.704-9.216 16.64-17.408 23.808-25.6l2.048-2.304-2.304-2.304c-42.24-37.632-157.44-63.232-288.768-63.232zM232.192 377.088c40.704-35.84 151.808-59.648 279.808-59.648s239.104 24.064 279.808 59.648c-6.656 7.424-13.568 15.104-21.504 23.296-45.568 47.616-102.4 106.752-102.4 232.448 0 0.051 0 0.111 0 0.172 0 64.147-38.805 119.23-94.22 143.057l-1.012 0.387c-14.984-16.852-36.722-27.417-60.928-27.417s-45.944 10.564-60.856 27.334l-0.072 0.083c-56.428-24.214-95.232-79.297-95.232-143.444 0-0.060 0-0.121 0-0.181v0.009c0-125.696-56.576-184.832-102.4-232.448v0c-7.424-8.192-14.592-15.872-20.992-23.296zM512 788.992c-23.753 0-43.008 19.255-43.008 43.008s19.255 43.008 43.008 43.008c23.753 0 43.008-19.255 43.008-43.008v0c0-23.753-19.255-43.008-43.008-43.008v0zM512 868.608c-20.218 0-36.608-16.39-36.608-36.608s16.39-36.608 36.608-36.608c20.218 0 36.608 16.39 36.608 36.608v0c0 20.218-16.39 36.608-36.608 36.608v0z" />
<glyph unicode="&#xe909;" glyph-name="cards" d="M762.368 222.976h85.76c0.24-0.010 0.522-0.015 0.805-0.015 11.431 0 20.779 8.92 21.464 20.179l0.003 0.060v87.040c0 11.876-9.628 21.504-21.504 21.504v0h-86.528c-11.819-0.143-21.361-9.685-21.504-21.49v-87.054c0.821-11.269 10.112-20.115 21.493-20.224h0.011zM204.8 308.736h386.048c11.876 0 21.504 9.628 21.504 21.504s-9.628 21.504-21.504 21.504h-386.048c-11.876 0-21.504-9.628-21.504-21.504s9.628-21.504 21.504-21.504v0zM955.392 780.8h-858.112c-23.642-0.145-42.752-19.345-42.752-43.007 0 0 0-0.001 0-0.001v0-600.576c0 0 0 0 0-0.001 0-23.663 19.11-42.862 42.738-43.007h858.126c23.753 0 43.008 19.255 43.008 43.008v0 600.576c0 23.753-19.255 43.008-43.008 43.008v0zM955.392 137.216h-858.112v343.296h858.112zM955.392 652.032h-858.112v85.76h858.112zM204.8 222.976h300.032c11.876 0 21.504 9.628 21.504 21.504s-9.628 21.504-21.504 21.504h-300.032c-11.876 0-21.504-9.628-21.504-21.504s9.628-21.504 21.504-21.504v0z" />
<glyph unicode="&#xe90a;" glyph-name="check" d="M884.48 908.8h-744.96c-48.719-0.145-88.175-39.601-88.32-88.306v-744.974c0.145-48.719 39.601-88.175 88.306-88.32h744.974c48.719 0.145 88.175 39.601 88.32 88.306v744.974c-0.145 48.719-39.601 88.175-88.306 88.32h-0.014zM462.848 123.392l-360.448 379.392 163.84 172.544 196.608-207.104 294.912 310.528 163.84-172.544z" />
<glyph unicode="&#xe90b;" glyph-name="clock" d="M507.904 914.944c-262.976 0-476.16-213.184-476.16-476.16s213.184-476.16 476.16-476.16c262.976 0 476.16 213.184 476.16 476.16 0 0.090 0 0.18 0 0.27v-0.014c0 262.835-213.069 475.904-475.904 475.904-0.090 0-0.18 0-0.27 0h0.014zM507.904 6.144c-239.082 0-432.896 193.814-432.896 432.896s193.814 432.896 432.896 432.896c239.082 0 432.896-193.814 432.896-432.896v0c0-239.082-193.814-432.896-432.896-432.896v0zM702.72 460.544h-111.36c-8.146 30.368-31.584 53.806-61.345 61.813l-0.607 0.139v241.152c0 11.876-9.628 21.504-21.504 21.504v0c0 0-0.001 0-0.002 0-11.928 0-21.614-9.597-21.758-21.49v-241.166c-37.427-9.975-64.548-43.567-64.548-83.492 0-47.647 38.625-86.272 86.272-86.272 39.926 0 73.517 27.121 83.355 63.945l0.137 0.603h111.36c10.961 1.229 19.403 10.445 19.403 21.632s-8.443 20.403-19.304 21.623l-0.099 0.009zM507.904 396.8c-23.894 0-43.264 19.37-43.264 43.264s19.37 43.264 43.264 43.264c23.894 0 43.264-19.37 43.264-43.264v0c0-23.894-19.37-43.264-43.264-43.264v0z" />
<glyph unicode="&#xe90c;" glyph-name="close" d="M866.048 789.504c-86.199 86.353-205.364 139.774-337.006 139.774-262.976 0-476.16-213.184-476.16-476.16s213.184-476.16 476.16-476.16c130.879 0 249.426 52.804 335.497 138.27l-0.028-0.027c86.962 86.259 140.797 205.801 140.797 337.917 0 131.354-53.216 250.278-139.264 336.39l0.003-0.003zM833.792 146.944c-78.202-77.759-186.002-125.825-305.027-125.825-238.94 0-432.64 193.7-432.64 432.64s193.7 432.64 432.64 432.64c119.789 0 228.207-48.684 306.549-127.345l0.014-0.015c77.972-78.2 126.183-186.111 126.183-305.282 0-119.934-48.83-228.463-127.695-306.79l-0.024-0.024zM712.704 636.928c-3.935 3.922-9.364 6.347-15.36 6.347s-11.425-2.425-15.361-6.347l-153.599-153.599-153.6 153.6c-3.935 3.922-9.364 6.347-15.36 6.347s-11.425-2.425-15.361-6.347l0.001 0.001c-3.907-3.894-6.325-9.281-6.325-15.232s2.418-11.338 6.324-15.231l153.601-153.601-153.6-153.6c-3.023-3.707-4.855-8.49-4.855-13.701 0-12.018 9.742-21.76 21.76-21.76 5.147 0 9.876 1.787 13.601 4.774l-0.043-0.033 153.6 153.6 153.6-153.6c3.825-3.411 8.896-5.495 14.455-5.495 12.018 0 21.76 9.742 21.76 21.76 0 5.559-2.084 10.63-5.514 14.476l0.019-0.022-153.6 153.6 153.6 153.6c3.923 3.935 6.349 9.366 6.349 15.363 0 5.868-2.323 11.194-6.1 15.108l0.006-0.006z" />
<glyph unicode="&#xe90d;" glyph-name="close_l" d="M197.133 140.968l605.872 605.872 4.525-4.525-605.872-605.872-4.525 4.525zM822.272 727.808l-605.952-605.952c-4.243-4.395-10.187-7.124-16.768-7.124s-12.525 2.729-16.761 7.117l-0.007 0.007c-4.269 4.302-6.907 10.227-6.907 16.768s2.638 12.466 6.908 16.77l-0.001-0.002 605.952 605.952c4.102 3.447 9.441 5.542 15.27 5.542 13.149 0 23.808-10.659 23.808-23.808 0-5.828-2.094-11.168-5.572-15.306l0.030 0.037zM824.576 725.504l-605.952-605.952c-4.881-4.881-11.624-7.9-19.072-7.9-14.896 0-26.972 12.076-26.972 26.972 0 7.448 3.019 14.191 7.9 19.072l605.952 605.952c4.881 4.881 11.624 7.9 19.072 7.9 14.896 0 26.972-12.076 26.972-26.972 0-7.448-3.019-14.191-7.9-19.072v0zM184.576 153.088c-3.758-3.675-6.089-8.798-6.089-14.464s2.33-10.789 6.085-14.46l0.004-0.004c3.717-3.773 8.881-6.11 14.592-6.11s10.875 2.337 14.59 6.107l0.002 0.003 605.44 605.44c4.847 3.782 7.934 9.624 7.934 16.187 0 11.311-9.169 20.48-20.48 20.48-6.243 0-11.834-2.793-15.59-7.199l-0.024-0.029zM197.315 742.495l4.525 4.525 605.872-605.872-4.525-4.525-605.872 605.872zM182.784 727.808l605.952-605.952c4.102-3.447 9.441-5.542 15.27-5.542 13.149 0 23.808 10.659 23.808 23.808 0 5.828-2.094 11.168-5.572 15.306l0.030-0.037-605.952 605.952c-4.243 4.395-10.187 7.124-16.768 7.124s-12.525-2.729-16.761-7.117l-0.007-0.007c-4.269-4.302-6.907-10.227-6.907-16.768s2.638-12.466 6.908-16.77l-0.001 0.002zM180.48 763.648c4.899 4.842 11.636 7.833 19.072 7.833s14.173-2.991 19.075-7.835l605.949-605.949c4.881-4.881 7.9-11.624 7.9-19.072 0-14.896-12.076-26.972-26.972-26.972-7.448 0-14.191 3.019-19.072 7.9v0l-605.952 605.952c-4.842 4.899-7.833 11.636-7.833 19.072s2.991 14.173 7.835 19.075l-0.003-0.003zM214.272 759.040c-3.717 3.773-8.881 6.11-14.592 6.11s-10.875-2.337-14.59-6.107l-0.002-0.003c-3.917-3.697-6.356-8.924-6.356-14.72s2.439-11.023 6.346-14.711l0.010-0.009 605.952-605.44c3.767-5.134 9.779-8.43 16.56-8.43 11.311 0 20.48 9.169 20.48 20.48 0 6.975-3.487 13.135-8.812 16.834l-0.067 0.044z" />
<glyph unicode="&#xe90e;" glyph-name="download" d="M358.4 352.512c-0.1 0.002-0.218 0.003-0.336 0.003-11.169 0-20.224-9.055-20.224-20.224 0-5.733 2.385-10.908 6.217-14.588l162.311-162.311c3.691-3.62 8.753-5.854 14.336-5.854s10.645 2.234 14.339 5.858l162.301 162.301c3.568 3.726 5.794 8.762 5.888 14.318v0.018c0.001 0.076 0.002 0.166 0.002 0.256 0 11.169-9.055 20.224-20.224 20.224-0.001 0-0.001 0-0.002 0v0c-0.044 0-0.095 0.001-0.147 0.001-5.591 0-10.631-2.358-14.18-6.134l-0.009-0.010-128-128v640c0 11.169-9.055 20.224-20.224 20.224s-20.224-9.055-20.224-20.224v-640.768l-128 128c-3.402 3.943-8.278 6.533-13.762 6.909l-0.062 0.003zM825.088 595.968h-223.744c-10.284-1.189-18.194-9.847-18.194-20.352s7.91-19.163 18.099-20.343l0.095-0.009h202.752v-527.36h-568.064v527.36h203.008c10.284 1.189 18.194 9.847 18.194 20.352s-7.91 19.163-18.099 20.343l-0.095 0.009h-223.232c-11.169 0-20.224-9.055-20.224-20.224v0-568.32c0-11.169 9.055-20.224 20.224-20.224v0h608.768c11.169 0 20.224 9.055 20.224 20.224v0 568.576c-0.144 11.059-9.143 19.968-20.222 19.968-0.001 0-0.001 0-0.002 0v0z" />
<glyph unicode="&#xe90f;" glyph-name="edit" d="M284.416 200.96l184.576 31.744 497.664 496.896c19.655 19.655 31.812 46.808 31.812 76.8 0 59.985-48.627 108.612-108.612 108.612-29.992 0-57.145-12.157-76.8-31.812v0l-497.152-497.664zM844.8 852.736c11.587 10.841 27.205 17.499 44.379 17.499 35.912 0 65.024-29.112 65.024-65.024 0-17.174-6.658-32.792-17.533-44.416l0.034 0.037-28.16-27.904-92.16 91.904zM785.664 794.112l91.904-91.648-398.592-398.592v92.928h-91.648zM355.072 352.512h80.128v-80.896l-97.28-16.64zM976.64 590.336c-11.876 0-21.504-9.628-21.504-21.504v0-476.16c0-47.788-38.74-86.528-86.528-86.528v0h-691.2c-0.381-0.006-0.83-0.009-1.28-0.009-47.788 0-86.528 38.74-86.528 86.528 0 0.003 0 0.007 0 0.010v-0.001 692.48c0 47.788 38.74 86.528 86.528 86.528h476.16c11.907 0.145 21.504 9.831 21.504 21.758 0 0.001 0 0.001 0 0.002v0c0 11.876-9.628 21.504-21.504 21.504h-476.16c-71.682 0-129.792-58.11-129.792-129.792v0-692.48c-0.004-0.38-0.006-0.83-0.006-1.28 0-71.682 58.11-129.792 129.792-129.792 0.002 0 0.004 0 0.006 0h692.48c0.002 0 0.004 0 0.006 0 71.682 0 129.792 58.11 129.792 129.792 0 0.45-0.002 0.899-0.007 1.348l0.001-0.068v476.16c0 0 0 0.001 0 0.002 0 11.876-9.628 21.504-21.504 21.504-0.090 0-0.18-0.001-0.27-0.002h0.014z" />
<glyph unicode="&#xe910;" glyph-name="exit" d="M595.968 294.4c-3.95-3.822-6.402-9.171-6.402-15.093 0-0.094 0.001-0.188 0.002-0.282v0.014c0.17-11.887 9.846-21.458 21.758-21.458 5.871 0 11.198 2.325 15.112 6.104l-0.006-0.006 173.056 173.312c3.97 3.865 6.434 9.261 6.434 15.232s-2.463 11.367-6.429 15.227l-173.061 173.061c-3.782 3.949-9.097 6.403-14.985 6.403-0.132 0-0.263-0.001-0.394-0.004h0.020c-0.181 0.005-0.394 0.008-0.608 0.008-11.3 0-20.588-8.613-21.657-19.632l-0.007-0.089c-0.002-0.112-0.003-0.243-0.003-0.375 0-5.888 2.454-11.203 6.396-14.978l0.007-0.007 136.96-138.24h-683.52c-0.707 0.082-1.526 0.128-2.357 0.128-12.018 0-21.76-9.742-21.76-21.76s9.742-21.76 21.76-21.76c0.83 0 1.65 0.046 2.456 0.137l-0.099-0.009h683.52zM957.44 929.28h-778.24c-12.018 0-21.76-9.742-21.76-21.76v0-324.608c0.145-11.907 9.831-21.504 21.758-21.504 0.001 0 0.001 0 0.002 0v0c11.876 0 21.504 9.628 21.504 21.504v0 303.104h734.976v-865.536h-735.744v302.848c0.009 0.233 0.014 0.506 0.014 0.781 0 11.611-9.203 21.073-20.712 21.49l-0.038 0.001c-12.018 0-21.76-9.742-21.76-21.76v0-325.12c0 0 0-0.001 0-0.002 0-11.876 9.628-21.504 21.504-21.504 0.090 0 0.18 0.001 0.27 0.002h778.226c0.077-0.001 0.167-0.002 0.258-0.002 11.735 0 21.248 9.513 21.248 21.248 0 0.091-0.001 0.181-0.002 0.271v-0.014 908.8c0.001 0.076 0.002 0.166 0.002 0.256 0 11.876-9.628 21.504-21.504 21.504-0.001 0-0.001 0-0.002 0v0z" />
<glyph unicode="&#xe911;" glyph-name="eye" d="M528.128 488.192c-35.91-0.003-65.019-29.114-65.019-65.024 0-35.912 29.112-65.024 65.024-65.024 35.642 0 64.586 28.676 65.019 64.215v0.041c0.005 0.305 0.008 0.664 0.008 1.025 0 35.77-28.998 64.768-64.768 64.768-0.093 0-0.186 0-0.278-0.001h0.014zM528.128 639.744c-0.075 0-0.165 0-0.255 0-119.612 0-216.576-96.964-216.576-216.576s96.964-216.576 216.576-216.576c119.341 0 216.138 96.527 216.575 215.766v0.042c0.002 0.304 0.002 0.664 0.002 1.024 0 119.47-96.85 216.32-216.32 216.32-0.001 0-0.002 0-0.003 0v0zM528.128 250.112c-0.075 0-0.164 0-0.253 0-95.718 0-173.312 77.594-173.312 173.312s77.594 173.312 173.312 173.312c95.718 0 173.312-77.594 173.312-173.312 0-0.36-0.001-0.72-0.003-1.079v0.055c-0.58-95.188-77.807-172.145-173.042-172.288h-0.014zM528.128 726.272c-262.912 0-476.928-216.32-476.928-303.872s214.016-302.080 476.928-302.080 476.16 216.32 476.16 302.080-213.248 303.872-476.16 303.872zM528.128 163.072c-238.848 0-432.64 185.6-432.64 259.84s193.792 259.584 432.64 259.584 432.896-185.088 432.896-260.096-193.024-258.816-432.896-258.816z" />
<glyph unicode="&#xe912;" glyph-name="filtr" d="M742.4 762.88c14.138 0 25.6-11.462 25.6-25.6v-128c0-14.138-11.462-25.6-25.6-25.6s-25.6 11.462-25.6 25.6v128c0 14.138 11.462 25.6 25.6 25.6zM358.4 537.6c14.138 0 25.6-11.462 25.6-25.6v-128c0-14.138-11.462-25.6-25.6-25.6s-25.6 11.462-25.6 25.6v128c0 14.138 11.462 25.6 25.6 25.6zM563.2 307.2c14.138 0 25.6-11.462 25.6-25.6v-128c0-14.138-11.462-25.6-25.6-25.6s-25.6 11.462-25.6 25.6v128c0 14.138 11.462 25.6 25.6 25.6zM588.8 243.2h281.6c14.138 0 25.6-11.462 25.6-25.6s-11.462-25.6-25.6-25.6h-281.6c-14.138 0-25.6 11.462-25.6 25.6s11.462 25.6 25.6 25.6zM153.6 243.2h281.6c14.138 0 25.6-11.462 25.6-25.6s-11.462-25.6-25.6-25.6h-281.6c-14.138 0-25.6 11.462-25.6 25.6s11.462 25.6 25.6 25.6zM153.6 473.6h179.2c14.138 0 25.6-11.462 25.6-25.6s-11.462-25.6-25.6-25.6h-179.2c-14.138 0-25.6 11.462-25.6 25.6s11.462 25.6 25.6 25.6zM486.4 473.6h384c14.138 0 25.6-11.462 25.6-25.6s-11.462-25.6-25.6-25.6h-384c-14.138 0-25.6 11.462-25.6 25.6s11.462 25.6 25.6 25.6zM153.6 704h460.8c14.138 0 25.6-11.462 25.6-25.6s-11.462-25.6-25.6-25.6h-460.8c-14.138 0-25.6 11.462-25.6 25.6s11.462 25.6 25.6 25.6zM768 704h102.4c14.138 0 25.6-11.462 25.6-25.6s-11.462-25.6-25.6-25.6h-102.4c-14.138 0-25.6 11.462-25.6 25.6s11.462 25.6 25.6 25.6z" />
<glyph unicode="&#xe913;" glyph-name="folder" d="M904.704 722.432h-389.632c-86.528 0-86.528 86.528-173.056 86.528h-216.32c-47.788 0-86.528-38.74-86.528-86.528v0-607.232c0-47.788 38.74-86.528 86.528-86.528h779.008c47.788 0 86.528 38.74 86.528 86.528v0 520.448c0 0.076 0 0.166 0 0.256 0 47.788-38.74 86.528-86.528 86.528 0 0 0 0 0 0v0zM947.2 115.2c0-23.894-19.37-43.264-43.264-43.264v0h-778.24c-0.076 0-0.166-0.001-0.257-0.001-23.753 0-43.008 19.255-43.008 43.008 0 0.090 0 0.18 0.001 0.271v-0.014 433.92h864.768zM947.2 591.104h-864.768v131.328c0 0 0 0 0 0.001 0 23.753 19.255 43.008 43.008 43.008 0.090 0 0.18 0 0.27-0.001h216.306c65.024 0 65.024-87.040 173.056-87.040h389.632c23.386-0.427 42.214-19.344 42.496-42.725v-0.027z" />
<glyph unicode="&#xe914;" glyph-name="heart" d="M520.448 10.496c-0.012 0-0.025 0-0.039 0-4.296 0-8.179 1.763-10.967 4.606l-0.002 0.002c-2.816 2.816-289.28 289.536-379.648 389.376-47.482 49.87-77.151 117.080-78.588 191.206l-0.004 0.282c0.682 150.058 122.485 271.44 272.637 271.44 77.599 0 147.627-32.419 197.277-84.453l0.101-0.107c49.731 51.982 119.654 84.293 197.124 84.293 150.059 0 271.803-121.23 272.636-271.094v-0.079c-1.664-74.504-31.598-141.71-79.454-191.586l0.094 0.098c-90.112-99.84-376.576-386.56-379.648-389.376-2.751-2.851-6.606-4.622-10.874-4.622-0.227 0-0.453 0.005-0.677 0.015l0.032-0.001zM322.816 835.072c-0.229 0.001-0.5 0.001-0.771 0.001-132.311 0-239.655-106.896-240.38-239.036v-0.069c2.289-66.094 29.293-125.47 72-169.539l-0.064 0.067c79.616-88.32 314.112-323.84 367.616-377.344 53.248 53.504 287.744 289.024 367.616 377.344 42.149 44.196 68.764 103.532 70.901 169.058l0.011 0.414c-0.611 132.863-108.458 240.332-241.406 240.332-74.299 0-140.758-33.565-185.041-86.359l-0.305-0.374c-2.923-3.302-7.171-5.374-11.904-5.374s-8.981 2.071-11.889 5.357l-0.015 0.017c-44.521 52.45-110.501 85.514-184.204 85.514-0.761 0-1.521-0.004-2.28-0.011l0.116 0.001zM520.448 7.424c-0.089-0.002-0.194-0.002-0.299-0.002-5.080 0-9.68 2.055-13.014 5.379v0c-2.56 2.56-290.048 290.304-379.136 389.632-48.263 50.308-78.495 118.241-80.123 193.22l-0.005 0.316c0.874 151.608 123.978 274.172 275.708 274.172 77.090 0 146.791-31.639 196.826-82.64l0.043-0.044c50.123 51.355 120.031 83.205 197.378 83.205 151.913 0 275.131-122.86 275.71-274.637v-0.055c-1.734-75.323-32.048-143.246-80.475-193.632l0.091 0.096c-91.136-101.12-377.088-387.072-379.648-389.632-3.294-3.321-7.86-5.377-12.905-5.377-0.053 0-0.106 0-0.159 0.001h0.008zM322.816 864.256c-0.076 0-0.166 0-0.256 0-148.274 0-268.508-120.054-268.799-268.26v-0.028c1.555-73.611 31.121-140.029 78.427-189.279l-0.091 0.095c89.6-99.328 376.832-386.816 379.904-389.376 2.184-2.218 5.219-3.593 8.576-3.593s6.392 1.374 8.574 3.591l0.002 0.002c2.816 2.56 288.512 288.256 379.648 389.376 47.309 49.124 76.963 115.541 78.586 188.869l0.006 0.315c-0.327 148.49-120.777 268.737-269.311 268.737-76.836 0-146.156-32.177-195.221-83.791l-0.108-0.114-2.304-2.56-2.304 2.56c-49.377 51.347-118.606 83.293-195.297 83.456h-0.031zM520.448 45.056l-2.304 2.304c-66.56 66.304-290.048 290.816-367.616 377.088-42.822 44.648-69.847 104.739-71.926 171.119l-0.010 0.401c0.711 134.624 110.009 243.484 244.733 243.484 75.749 0 143.46-34.413 188.351-88.459l0.324-0.401c2.342-2.497 5.661-4.052 9.344-4.052s7.002 1.555 9.338 4.045l0.006 0.007c45.199 53.74 112.475 87.654 187.673 87.654 133.94 0 242.749-107.596 244.709-241.070l0.002-0.185c-2.015-66.749-28.952-126.841-71.772-171.617l0.092 0.097c-76.8-85.504-301.056-310.528-367.616-377.6zM322.816 832c-0.229 0.001-0.499 0.001-0.77 0.001-130.563 0-236.473-105.551-237.054-235.978v-0.055c2.1-65.162 28.435-123.795 70.235-167.52l-0.091 0.096c76.8-84.992 295.936-305.408 365.312-374.784 68.352 69.632 289.024 290.56 365.056 374.784 41.708 43.629 68.044 102.261 70.134 167.020l0.010 0.404c-1.14 130.619-107.292 236.066-238.071 236.066-73.275 0-138.818-33.103-182.491-85.169l-0.301-0.369c-3.602-3.811-8.692-6.183-14.336-6.183s-10.734 2.372-14.327 6.173l-0.009 0.009c-44.111 52.423-109.754 85.504-183.123 85.504-0.061 0-0.122 0-0.182 0h0.009zM520.448 4.608c-0.069-0.001-0.149-0.001-0.231-0.001-5.853 0-11.133 2.455-14.865 6.392l-0.009 0.009c-2.816 1.792-289.536 289.536-379.904 389.632-48.749 50.753-79.278 119.325-80.891 195.015l-0.005 0.313c0.532 153.424 125.029 277.592 278.526 277.592 77.127 0 146.932-31.348 197.368-81.999l0.010-0.010c50.446 50.66 120.251 82.008 197.378 82.008 153.498 0 277.994-124.168 278.526-277.541v-0.051c-1.719-76.030-32.33-144.593-81.241-195.421l0.089 0.093c-90.112-100.096-377.6-387.84-379.648-389.888-3.928-3.746-9.237-6.074-15.090-6.144h-0.014zM322.816 861.44c-0.076 0-0.167 0-0.257 0-146.77 0-265.802-118.763-266.239-265.431v-0.042c1.401-72.798 30.392-138.565 76.913-187.512l-0.113 0.12c91.136-99.84 378.88-386.56 380.416-389.376 1.775-1.648 4.162-2.659 6.784-2.659s5.009 1.011 6.79 2.665l-0.006-0.006c2.816 3.072 289.28 289.536 379.392 389.376 46.408 48.827 75.399 114.594 76.796 187.118l0.004 0.274c-0.143 147.215-119.517 266.501-266.752 266.501-76.4 0-145.298-32.118-193.929-83.589l-0.12-0.128-4.096-4.352-4.352 4.352c-48.306 50.485-116.021 82.056-191.115 82.687l-0.117 0.001zM520.448 40.704l-4.352 4.096c-85.76 86.272-293.376 295.168-367.616 377.6-43.028 45.252-70.022 106.106-71.674 173.245l-0.006 0.323c2.423 134.711 112.196 242.985 247.258 242.985 75.062 0 142.312-33.442 187.666-86.24l0.276-0.329c1.738-1.897 4.227-3.082 6.992-3.082 0.152 0 0.303 0.004 0.453 0.011l-0.021-0.001c0.088-0.003 0.191-0.005 0.295-0.005 2.728 0 5.178 1.185 6.866 3.068l0.008 0.009c45.678 54.529 113.798 88.959 189.959 88.959 135.902 0 246.2-109.626 247.288-245.271l0.001-0.104c-1.687-67.413-28.569-128.238-71.54-173.692l0.116 0.124c-74.752-82.944-281.6-291.84-367.872-377.856zM322.816 829.184c-0.229 0.001-0.499 0.001-0.77 0.001-129.008 0-233.657-104.291-234.238-233.162v-0.056c2.027-64.39 28.088-122.326 69.459-165.463l-0.083 0.087c73.216-81.152 274.944-284.672 363.264-372.992 88.064 88.32 289.792 291.584 363.008 372.992 41.362 43.032 67.505 100.959 69.621 164.969l0.011 0.407c-1.784 128.706-106.537 232.356-235.499 232.356-72.029 0-136.506-32.334-179.707-83.279l-0.282-0.341c-4.031-4.538-9.871-7.393-16.378-7.424h-0.006c-0.046 0-0.1-0.001-0.154-0.001-6.551 0-12.434 2.861-16.466 7.402l-0.020 0.023c-43.408 51.788-108.123 84.484-180.475 84.484-0.452 0-0.903-0.001-1.355-0.004h0.069zM520.448 1.28c-0.072-0.001-0.158-0.001-0.243-0.001-6.762 0-12.858 2.85-17.153 7.413l-0.011 0.012c-2.816 2.56-288.768 288.512-379.904 389.888-49.322 51.265-80.232 120.555-81.914 197.050l-0.006 0.326c0.377 155.238 126.309 280.937 281.599 280.937 77.024 0 146.826-30.924 197.666-81.034l-0.033 0.033c50.67 49.331 119.961 79.754 196.358 79.754 154.852 0 280.511-124.99 281.593-279.587l0.001-0.103c-1.587-76.794-32.415-146.093-81.759-197.476l0.095 0.1c-84.224-94.464-348.16-360.192-379.136-389.12v0c-4.323-4.678-10.342-7.734-17.074-8.188l-0.078-0.004zM322.816 870.144c-0.076 0-0.167 0-0.257 0-151.577 0-274.506-122.659-274.943-274.134v-0.042c1.829-75.226 32.124-143.039 80.477-193.377l-0.093 0.097c89.088-99.072 376.832-386.816 379.392-389.888 3.336-3.141 7.842-5.072 12.8-5.072s9.464 1.93 12.809 5.081l-0.009-0.009c30.208 31.232 294.912 295.68 379.904 389.888 48.248 50.223 78.48 118.069 80.122 192.961l0.006 0.319c-0.825 151.504-123.833 274.002-275.452 274.002-76.087 0-144.968-30.849-194.819-80.721l-2.305-2.305-2.304 2.304c-50.090 49.827-119.085 80.691-195.289 80.896h-0.039zM520.448 12.8c-0.11-0.004-0.239-0.006-0.368-0.006-3.409 0-6.473 1.481-8.582 3.835l-0.010 0.011c-2.816 2.56-288.768 288.768-379.648 389.376-47.365 49.185-77.031 115.703-78.587 189.138l-0.005 0.302c0.458 148.673 121.086 269.019 269.823 269.019 76.792 0 146.092-32.080 195.229-83.569l0.1-0.105 2.048-2.048 1.792 2.048c49.269 51.53 118.56 83.563 195.332 83.563 148.658 0 269.265-120.105 270.076-268.573v-0.078c-1.795-73.741-31.513-140.211-78.937-189.533l0.089 0.093c-89.6-99.584-376.576-386.304-379.392-389.376-2.342-2.192-5.489-3.55-8.953-3.584h-0.007zM322.816 857.6c-0.001 0-0.003 0-0.004 0-144.804 0-262.292-116.95-263.163-261.549v-0.083c1.655-72.104 30.612-137.14 76.895-185.443l-0.095 0.099c90.624-100.352 376.576-386.304 379.136-389.12 1.178-1.075 2.752-1.733 4.48-1.733s3.302 0.658 4.485 1.738l-0.005-0.005c2.816 2.816 289.28 289.536 379.392 389.12 46.086 48.265 75.013 113.262 76.793 184.997l0.007 0.347c-1.016 144.713-118.563 261.633-263.418 261.633-0.182 0-0.364 0-0.546-0.001h0.028c-75.013-0.23-142.682-31.475-190.894-81.579l-0.082-0.085-6.4-7.168-6.656 7.168c-48.031 49.997-115.302 81.2-189.866 81.664h-0.086zM520.448 35.328l-6.656 6.656c-85.76 86.784-293.376 295.936-367.872 378.368-43.609 45.812-71.106 107.312-73.206 175.208l-0.010 0.408c0.875 137.751 112.746 249.082 250.619 249.082 77.046 0 145.973-34.766 191.947-89.467l0.314-0.384c1.274-1.179 2.984-1.903 4.864-1.903s3.59 0.723 4.869 1.907l-0.005-0.004c46.288 55.088 115.217 89.857 192.267 89.857 137.606 0 249.31-110.899 250.612-248.198l0.001-0.124c-1.507-68.473-28.711-130.315-72.313-176.513l0.121 0.129c-74.752-82.688-281.6-291.584-367.872-377.6zM322.816 837.888c-0.153 0-0.334 0.001-0.515 0.001-133.866 0-242.47-108.156-243.196-241.851v-0.069c2.056-66.66 28.987-126.658 71.77-171.359l-0.090 0.095c74.24-82.432 281.6-291.584 367.616-377.6l2.048-1.792 1.792 1.792c85.76 86.016 293.12 294.912 367.872 377.6 42.594 44.665 69.495 104.626 71.669 170.843l0.011 0.421c-1.692 133.586-110.378 241.227-244.206 241.227-75.111 0-142.303-33.908-187.103-87.251l-0.307-0.375c-2.468-2.536-5.914-4.11-9.728-4.11s-7.26 1.574-9.725 4.107l-0.003 0.003c-45.162 54.022-112.53 88.179-187.88 88.32h-0.024zM520.448 52.992l-2.304 2.304c-84.736 85.504-289.792 290.304-363.264 372.992-41.897 43.636-68.344 102.384-70.39 167.286l-0.010 0.394c1.101 130.932 107.497 236.648 238.584 236.648 73.497 0 139.233-33.233 183-85.491l0.304-0.373c3.539-3.638 8.482-5.896 13.952-5.896s10.413 2.257 13.948 5.891l0.004 0.004c44.071 52.631 109.806 85.864 183.304 85.864 131.087 0 237.483-105.716 238.583-236.544l0.001-0.104c-2.085-65.247-28.421-123.966-70.238-167.779l0.094 0.099c-73.984-82.688-278.784-287.488-363.264-372.992zM322.816 826.112c-0.456 0.003-0.996 0.005-1.536 0.005-127.246 0-230.4-103.154-230.4-230.4 0-0.002 0-0.003 0-0.005v0c2.226-63.487 27.954-120.566 68.696-163.165l-0.088 0.093c72.96-80.896 275.712-284.16 360.96-370.432 85.76 86.016 287.744 289.536 360.704 370.432 40.709 42.568 66.448 99.748 68.597 162.913l0.011 0.415c-1.74 126.902-105.020 229.106-232.171 229.106-71.001 0-134.56-31.869-177.151-82.082l-0.278-0.336c-4.396-5.184-10.913-8.453-18.195-8.453-0.173 0-0.346 0.002-0.519 0.006h0.026c-7.508 0.018-14.253 3.266-18.924 8.426l-0.020 0.022c-42.887 51.161-106.823 83.46-178.303 83.46-0.495 0-0.99-0.002-1.485-0.005h0.076zM128 576c-8.656 0.143-15.618 7.193-15.618 15.87 0 0.091 0.001 0.181 0.002 0.272v-0.014c-0.012 0.84-0.019 1.832-0.019 2.826 0 113.526 91.456 205.691 204.711 206.837l0.108 0.001c8.656-0.143 15.618-7.193 15.618-15.87 0-0.091-0.001-0.181-0.002-0.272v0.014c0.001-0.077 0.002-0.167 0.002-0.258 0-8.677-6.962-15.727-15.605-15.87h-0.013c-95.495-1.576-172.303-79.359-172.303-175.082 0-0.818 0.006-1.635 0.017-2.45l-0.001 0.123c0.002-0.086 0.003-0.188 0.003-0.289 0-8.766-7.106-15.872-15.872-15.872-0.361 0-0.72 0.012-1.075 0.036l0.048-0.003zM128 573.952c-10.493 0.144-18.944 8.684-18.944 19.198 0 0.001 0 0.001 0 0.002v0c-0.014 0.918-0.023 2.002-0.023 3.087 0 115.185 92.658 208.728 207.503 210.159l0.135 0.001c9.744-1.156 17.228-9.368 17.228-19.328s-7.484-18.172-17.136-19.319l-0.092-0.009c-93.659-1.573-168.979-77.867-168.979-171.753 0-0.908 0.007-1.815 0.021-2.719l-0.002 0.137c0.001-0.078 0.002-0.17 0.002-0.263 0-10.604-8.596-19.2-19.2-19.2-0.181 0-0.361 0.002-0.54 0.007l0.026-0.001zM315.904 799.744c-111.224-2.434-200.456-93.173-200.456-204.754 0-0.646 0.003-1.292 0.009-1.937l-0.001 0.098c0-7.069 5.731-12.8 12.8-12.8s12.8 5.731 12.8 12.8v0c-0.004 0.469-0.007 1.023-0.007 1.577 0 97.622 78.060 177.011 175.167 179.156l0.2 0.003c6.021 1.242 10.483 6.5 10.483 12.8s-4.462 11.558-10.399 12.785l-0.085 0.015zM128 571.136c-11.908 0.144-21.506 9.83-21.506 21.759 0 0.091 0.001 0.181 0.002 0.271v-0.014c-0.012 0.843-0.019 1.838-0.019 2.834 0 116.649 93.772 211.396 210.046 212.972l0.149 0.002c11.231-1.245 19.888-10.683 19.888-22.144s-8.656-20.899-19.787-22.135l-0.1-0.009c-92.243-1.575-166.416-76.722-166.416-169.193 0-0.818 0.006-1.635 0.017-2.451l-0.001 0.123c0.001-0.078 0.002-0.17 0.002-0.262 0-12.018-9.742-21.76-21.76-21.76-0.181 0-0.361 0.002-0.54 0.007l0.027-0.001zM315.904 796.928c-109.563-1.851-197.669-91.103-197.669-200.933 0-1.36 0.014-2.716 0.040-4.070l-0.003 0.203c0-5.373 4.355-9.728 9.728-9.728s9.728 4.355 9.728 9.728v0c-0.009 0.688-0.015 1.501-0.015 2.315 0 99.386 79.992 180.088 179.106 181.236l0.109 0.001c0.001 0 0.002 0 0.003 0 5.373 0 9.728 4.355 9.728 9.728 0 0.090-0.001 0.18-0.004 0.269v-0.013c0.052 0.385 0.082 0.829 0.082 1.28 0 5.514-4.47 9.984-9.984 9.984-0.029 0-0.058 0-0.087 0h0.004zM128 568.064c-14.138 0-25.6 11.462-25.6 25.6v0c-0.012 0.845-0.019 1.842-0.019 2.841 0 118.165 94.858 214.175 212.58 216.036l0.175 0.002c14.138 0 25.6-11.462 25.6-25.6s-11.462-25.6-25.6-25.6v0c-89.761-2.561-161.549-75.937-161.549-166.080 0-0.742 0.005-1.484 0.015-2.224l-0.001 0.112c-0.287-13.917-11.636-25.088-25.595-25.088-0.002 0-0.004 0-0.005 0v0zM316.672 806.4c-114.362-1.862-206.355-95.007-206.355-209.638 0-0.999 0.007-1.997 0.021-2.993l-0.002 0.151c0-10.18 8.252-18.432 18.432-18.432s18.432 8.252 18.432 18.432v0c-0.006 0.539-0.010 1.177-0.010 1.815 0 94.165 75.544 170.686 169.333 172.263l0.148 0.002c9.474 1.139 16.746 9.128 16.746 18.816s-7.272 17.677-16.655 18.807l-0.090 0.009zM128 579.84c-7.101 0.142-12.803 5.932-12.803 13.054 0 0.091 0.001 0.182 0.003 0.272v-0.014c-0.009 0.697-0.013 1.52-0.013 2.345 0 111.672 89.379 202.469 200.504 204.756l0.214 0.003c5.327-1.912 9.068-6.919 9.068-12.8s-3.741-10.887-8.973-12.77l-0.095-0.030c-97.192-2.292-175.104-81.624-175.104-179.153 0-0.016 0-0.033 0-0.049v0.002c0.161-0.77 0.253-1.654 0.253-2.56 0-7.21-5.844-13.055-13.053-13.056v0zM315.904 793.856c-107.747-2.002-194.324-89.818-194.324-197.856 0-1.001 0.007-2.001 0.022-2.999l-0.002 0.151c0-3.535 2.865-6.4 6.4-6.4s6.4 2.865 6.4 6.4v0c-0.019 0.993-0.030 2.165-0.030 3.339 0 101.088 81.377 183.169 182.195 184.308l0.108 0.001c3.337 0.656 5.819 3.558 5.819 7.040s-2.482 6.384-5.774 7.033l-0.045 0.007z" />
<glyph unicode="&#xe915;" glyph-name="home" d="M687.616 736v65.792h81.664v-150.528c11.156-14.48 22.644-27.347 34.986-39.341l0.086-0.083 3.328-3.84h2.304v214.016c0 11.311-9.169 20.48-20.48 20.48v0h-122.112c-11.311 0-20.48-9.169-20.48-20.48v0-34.56c13.568-17.152 26.112-34.816 40.704-51.456zM806.4 604.416v1.28l-1.536 1.792-1.792 2.048c-12.247 12.257-23.73 25.282-34.37 38.995l-0.702 0.941v148.992h-76.8v-70.912l-5.632 6.4c-9.984 11.264-19.2 23.296-28.16 34.816-4.096 5.632-8.448 11.264-12.8 16.64v0 36.608c0 13.007 10.545 23.552 23.552 23.552v0h122.112c13.007 0 23.552-10.545 23.552-23.552v0-216.32h-7.424zM772.352 652.8c10.945-14.076 22.093-26.604 34.006-38.358l0.042-0.042v207.616c0 9.473-7.679 17.152-17.152 17.152v0h-121.856c-9.473 0-17.152-7.679-17.152-17.152v0-33.536l12.032-15.616c7.168-9.472 14.592-18.944 22.272-28.16v60.16h87.808zM811.264 580.864l-1.536 1.536v-508.416c-0.141-7.295-6.017-13.171-13.299-13.312h-543.245c-7.241 0.144-13.056 6.048-13.056 13.31 0 0.001 0 0.002 0 0.003v0 517.632c0.211 4.157 2.376 7.768 5.588 9.955l0.044 0.029h-5.888c-3.328-3.328-6.912-6.144-9.984-9.472l-8.448-9.728-3.328-6.4c-6.065-8.702-13.662-15.89-22.46-21.318l-0.324-0.186v-481.28c0 0 0 0 0-0.001 0-32.004 25.872-57.966 57.842-58.111h543.246c32.094 0 58.112 26.018 58.112 58.112v0 463.104c-13.42 16.263-27.578 30.827-42.83 44.172l-0.434 0.372zM444.928 38.4v327.936c0 4.383 3.553 7.936 7.936 7.936v0h143.872c0.001 0 0.003 0 0.004 0 4.434 0 8.046-3.523 8.188-7.923v-334.349h9.472q18.176 0 36.096-1.536v335.872c-0.145 29.156-23.815 52.736-52.991 52.736 0 0 0 0-0.001 0h-144.64c-29.125 0-52.736-23.611-52.736-52.736v0-327.936c14.848 0 29.952 0 44.8 0zM115.2 451.072c-12.392 0.065-22.413 10.126-22.413 22.528 0 6.192 2.498 11.801 6.542 15.874l409.599 409.599c4.16 4.913 10.331 8.011 17.227 8.011 12.442 0 22.528-10.086 22.528-22.528 0-6.895-3.098-13.067-7.978-17.199l-0.033-0.027-409.6-409.6c-4.070-4.062-9.669-6.593-15.86-6.656h-0.012zM934.4 451.072c-6.203 0.063-11.802 2.594-15.872 6.656v0l-409.6 409.6c-3.297 3.892-5.301 8.971-5.301 14.517 0 12.442 10.086 22.528 22.528 22.528 5.547 0 10.625-2.004 14.55-5.329l-0.033 0.027 409.6-409.6c4.043-4.071 6.541-9.68 6.541-15.872 0-12.401-10.021-22.462-22.407-22.528h-0.006z" />
<glyph unicode="&#xe916;" glyph-name="info" d="M527.616 917.248c-262.976 0-476.16-213.184-476.16-476.16s213.184-476.16 476.16-476.16c262.976 0 476.16 213.184 476.16 476.16v0c0 0.076 0 0.166 0 0.256 0 262.835-213.069 475.904-475.904 475.904-0.090 0-0.18 0-0.271 0h0.015zM527.616 8.192c-239.082 0-432.896 193.814-432.896 432.896s193.814 432.896 432.896 432.896c239.082 0 432.896-193.814 432.896-432.896v0c0-239.082-193.814-432.896-432.896-432.896v0zM591.36 246.016c-1.338-0.134-2.892-0.211-4.463-0.211-8.726 0-16.9 2.36-23.92 6.476l0.223-0.121c-5.193 5.304-8.398 12.573-8.398 20.59 0 1.224 0.075 2.431 0.22 3.616l-0.014-0.142c0.259 7.402 1.178 14.437 2.704 21.243l-0.144-0.763c1.703 9.301 3.655 17.137 6.031 24.787l-0.399-1.491 25.6 88.064c2.217 7.293 4.016 15.972 5.052 24.884l0.068 0.716c0 9.472 1.28 16.384 1.28 20.224 0.018 0.53 0.028 1.153 0.028 1.778 0 17.297-7.727 32.789-19.918 43.213l-0.078 0.065c-14.083 10.973-32.026 17.592-51.516 17.592-1.96 0-3.905-0.067-5.832-0.199l0.26 0.014c-15.691-0.135-30.727-2.748-44.797-7.465l1.021 0.297c-15.36-4.608-31.488-10.24-48.128-16.896l-6.912-27.392c4.567 1.862 10.53 3.872 16.621 5.577l1.299 0.311c6.121 1.914 13.163 3.035 20.461 3.072h0.019c1.327 0.15 2.864 0.235 4.422 0.235 8.552 0 16.504-2.573 23.122-6.987l-0.152 0.096c4.574-5.397 7.356-12.441 7.356-20.133 0-1.204-0.068-2.393-0.201-3.562l0.013 0.143c-0.065-7.38-0.901-14.529-2.431-21.417l0.127 0.681c-1.536-7.68-3.584-15.616-5.888-24.064l-25.6-88.32c-1.818-6.875-3.52-15.552-4.728-24.387l-0.136-1.213c-0.966-6.529-1.524-14.074-1.536-21.747v-0.013c-0.010-0.4-0.016-0.87-0.016-1.342 0-17.453 7.939-33.052 20.402-43.383l0.094-0.075c14.469-11.124 32.841-17.828 52.779-17.828 1.876 0 3.739 0.059 5.586 0.176l-0.252-0.013c0.695-0.013 1.516-0.020 2.338-0.020 14.34 0 28.154 2.254 41.106 6.428l-0.948-0.264c12.288 4.096 28.672 10.24 49.152 18.176l6.912 27.136c-4.851-2.195-10.575-4.131-16.513-5.507l-0.639-0.125c-3.728-0.592-8.028-0.93-12.406-0.93-2.934 0-5.832 0.152-8.688 0.448l0.357-0.030zM574.976 678.4c-0.387 0.009-0.844 0.014-1.301 0.014-16.087 0-30.742-6.132-41.755-16.185l0.048 0.043c-11.148-9.453-18.177-23.469-18.177-39.127 0-0.104 0-0.209 0.001-0.313v0.016c0-0.012 0-0.027 0-0.042 0-15.657 7.028-29.673 18.102-39.065l0.074-0.061c10.965-10.010 25.62-16.142 41.707-16.142 0.457 0 0.914 0.005 1.369 0.015l-0.068-0.001c0.404-0.009 0.881-0.015 1.358-0.015 16.151 0 30.87 6.13 41.958 16.189l-0.052-0.047c10.848 9.439 17.666 23.269 17.666 38.69 0 0.168-0.001 0.336-0.002 0.503v-0.026c0.003 0.217 0.005 0.474 0.005 0.731 0 15.423-6.819 29.253-17.607 38.64l-0.062 0.053c-11.036 10.013-25.755 16.143-41.906 16.143-0.478 0-0.954-0.005-1.429-0.016l0.071 0.001z" />
<glyph unicode="&#xe917;" glyph-name="larrow" d="M957.44 385.792h-856.576l179.2 179.2c3.875 3.969 6.298 9.372 6.4 15.34v0.020c0 12.018-9.742 21.76-21.76 21.76v0c-5.988-0.102-11.391-2.525-15.364-6.404l-216.060-216.060c-3.875-3.969-6.298-9.372-6.4-15.34v-0.020c0.015-6.003 2.459-11.432 6.399-15.359l216.321-216.321c3.901-3.952 9.318-6.4 15.307-6.4 0.019 0 0.038 0 0.056 0h-0.003c12.018 0 21.76 9.742 21.76 21.76v0c-0.058 5.915-2.495 11.249-6.398 15.102l-179.202 179.202h856.32c0 0 0.001 0 0.002 0 11.876 0 21.504 9.628 21.504 21.504 0 0.090-0.001 0.18-0.002 0.27v-0.014c0.004 0.153 0.006 0.333 0.006 0.514 0 11.735-9.513 21.248-21.248 21.248-0.092 0-0.184-0.001-0.276-0.002h0.014z" />
<glyph unicode="&#xe918;" glyph-name="larrow2" d="M257.28 441.088l412.672 435.2c4.151 4.421 6.751 10.34 6.911 16.864l0.001 0.032c-0.62 12.653-11.030 22.678-23.781 22.678-6.618 0-12.606-2.7-16.921-7.060l-0.002-0.002-428.544-450.816c-4.284-4.342-6.929-10.31-6.929-16.896s2.646-12.554 6.932-16.899l-0.003 0.003 428.544-452.352c4.421-4.151 10.34-6.751 16.864-6.911l0.032-0.001c13.149 0 23.808 10.659 23.808 23.808v0c-0.161 6.556-2.761 12.475-6.925 16.91l0.013-0.014z" />
<glyph unicode="&#xe919;" glyph-name="list" d="M463.36 483.84h-373.76v373.76h373.76zM192 586.24h168.96v168.96h-168.96zM463.36 25.6h-373.76v373.76h373.76zM192 128h168.96v168.96h-168.96zM563.2 857.6h384v-102.4h-384v102.4zM563.2 601.6h384v-102.4h-384v102.4zM563.2 396.8h384v-102.4h-384v102.4zM563.2 140.8h384v-102.4h-384v102.4z" />
<glyph unicode="&#xe91a;" glyph-name="location" d="M515.072 929.792c-191.152 0-346.112-154.96-346.112-346.112 0-0.090 0-0.18 0-0.27v0.014c0-281.6 346.112-605.952 346.112-605.952s346.368 324.608 346.368 605.952c0 191.294-155.074 346.368-346.368 346.368v0zM515.072 42.496s-302.848 281.344-302.848 540.928c-0.082 2.624-0.128 5.711-0.128 8.808 0 167.4 135.704 303.104 303.104 303.104s303.104-135.704 303.104-303.104c0-3.097-0.046-6.184-0.139-9.259l0.011 0.451c1.024-259.584-303.104-540.928-303.104-540.928zM515.072 755.2c-95.576 0-173.056-77.48-173.056-173.056s77.48-173.056 173.056-173.056c95.576 0 173.056 77.48 173.056 173.056v0c0 95.576-77.48 173.056-173.056 173.056v0zM515.072 452.352c-71.682 0-129.792 58.11-129.792 129.792s58.11 129.792 129.792 129.792c71.682 0 129.792-58.11 129.792-129.792v0c-0.724-71.13-58.554-128.512-129.786-128.512-0.002 0-0.004 0-0.007 0v0z" />
<glyph unicode="&#xe91b;" glyph-name="lock" d="M785.92 545.536v132.864c0 146.333-118.627 264.96-264.96 264.96s-264.96-118.627-264.96-264.96v0-132.096c-48.719-0.145-88.175-39.601-88.32-88.306v-396.814c-0.001-0.152-0.001-0.332-0.001-0.512 0-48.778 39.542-88.32 88.32-88.32 0 0 0.001 0 0.001 0h529.92c48.636 0 88.064 39.428 88.064 88.064v0 396.8c0 0 0 0 0 0 0 48.688-39.396 88.174-88.050 88.32h-0.014zM300.8 678.4c0 121.944 98.856 220.8 220.8 220.8s220.8-98.856 220.8-220.8v0-132.096h-441.6zM829.952 60.416c0-24.318-19.714-44.032-44.032-44.032v0h-529.92c-24.318 0-44.032 19.714-44.032 44.032v0 396.8c0 0 0 0 0 0.001 0 24.37 19.683 44.142 44.018 44.287h529.934c24.349-0.145 44.032-19.918 44.032-44.287 0 0 0-0.001 0-0.001v0zM521.216 369.152c-0.11 0.001-0.241 0.001-0.372 0.001-48.495 0-87.808-39.313-87.808-87.808 0-22.812 8.699-43.592 22.961-59.205l-0.061 0.068c-0.060-1.109-0.094-2.406-0.094-3.712s0.034-2.603 0.102-3.892l-0.008 0.18c2.232-34.803 31.006-62.186 66.176-62.186s63.944 27.383 66.166 61.992l0.010 0.194c0.060 1.109 0.094 2.406 0.094 3.712s-0.034 2.603-0.102 3.892l0.008-0.18c14.201 15.545 22.901 36.325 22.901 59.138 0 48.495-39.313 87.808-87.808 87.808-0.221 0-0.442-0.001-0.663-0.002h0.034zM543.232 243.2v-28.16c0-12.159-9.857-22.016-22.016-22.016s-22.016 9.857-22.016 22.016v0 28.16c-13.254 7.755-22.015 21.921-22.015 38.132 0 24.318 19.714 44.032 44.032 44.032s44.032-19.714 44.032-44.032c0-0.086 0-0.172-0.001-0.258v0.013c0-0.015 0-0.034 0-0.052 0-16.127-8.772-30.206-21.806-37.724l-0.21-0.112z" />
<glyph unicode="&#xe91c;" glyph-name="mail" d="M911.104 792.832h-779.008c-47.788 0-86.528-38.74-86.528-86.528v0-519.168c0 0 0 0 0 0 0-47.839 38.709-86.638 86.514-86.784h779.022c0.228-0.002 0.498-0.003 0.768-0.003 47.788 0 86.528 38.74 86.528 86.528 0 0.091 0 0.182 0 0.274v-0.014 519.168c0 0.001 0 0.002 0 0.003 0 47.788-38.74 86.528-86.528 86.528-0.27 0-0.54-0.001-0.809-0.004h0.041zM132.096 749.568h779.008c5.246-0.066 10.253-0.998 14.914-2.66l-0.322 0.1-374.784-375.808c-7.36-7.583-17.648-12.288-29.036-12.288-0.052 0-0.104 0-0.156 0h0.008c-11.513 0.007-21.927 4.705-29.437 12.285l-0.003 0.003-374.528 375.808c4.26 1.561 9.179 2.494 14.306 2.56h0.030zM88.832 186.368v519.936c0 2.56 0 5.12 0 7.68l268.032-267.264-267.264-267.264c-0.362 2.193-0.637 4.838-0.762 7.522l-0.006 0.158zM911.104 142.848h-779.008c-5.189 0.156-10.094 1.176-14.641 2.919l0.305-0.103 269.568 270.336 73.472-74.24c15.333-15.326 36.511-24.805 59.904-24.805s44.571 9.479 59.904 24.806l74.24 74.24 270.848-269.568c-4.32-1.641-9.314-2.66-14.524-2.814l-0.068-0.002zM954.368 186.368c0.127-1.152 0.199-2.487 0.199-3.84s-0.072-2.688-0.213-4.003l0.014 0.163-267.776 268.032 267.008 267.264c0.12-1.151 0.189-2.488 0.189-3.84s-0.069-2.689-0.202-4.006l0.014 0.166z" />
<glyph unicode="&#xe91d;" glyph-name="menu" d="M153.6 704h665.6c14.138 0 25.6-11.462 25.6-25.6s-11.462-25.6-25.6-25.6h-665.6c-14.138 0-25.6 11.462-25.6 25.6s11.462 25.6 25.6 25.6zM153.6 473.6h665.6c14.138 0 25.6-11.462 25.6-25.6s-11.462-25.6-25.6-25.6h-665.6c-14.138 0-25.6 11.462-25.6 25.6s11.462 25.6 25.6 25.6zM153.6 243.2h665.6c14.138 0 25.6-11.462 25.6-25.6s-11.462-25.6-25.6-25.6h-665.6c-14.138 0-25.6 11.462-25.6 25.6s11.462 25.6 25.6 25.6z" />
<glyph unicode="&#xe91e;" glyph-name="minus" d="M884.224 908.8h-744.448c-48.919 0-88.576-39.657-88.576-88.576v0-744.448c0-48.919 39.657-88.576 88.576-88.576v0h744.448c48.919 0 88.576 39.657 88.576 88.576v0 744.448c0 48.919-39.657 88.576-88.576 88.576v0zM844.8 320h-665.6v256h665.6z" />
<glyph unicode="&#xe91f;" glyph-name="note" d="M238.336 535.296h563.2c0.076-0.001 0.166-0.002 0.256-0.002 11.876 0 21.504 9.628 21.504 21.504 0 0.001 0 0.001 0 0.002v0c0 12.018-9.742 21.76-21.76 21.76v0h-563.2c-11.907-0.145-21.504-9.831-21.504-21.758 0-0.001 0-0.001 0-0.002v0c0-11.876 9.628-21.504 21.504-21.504v0zM238.336 665.088h259.84c10.961 1.229 19.403 10.445 19.403 21.632s-8.443 20.403-19.304 21.623l-0.099 0.009h-259.84c-10.961-1.229-19.403-10.445-19.403-21.632s8.443-20.403 19.304-21.623l0.099-0.009zM238.336 405.248h432.896c0 0 0.001 0 0.002 0 11.876 0 21.504 9.628 21.504 21.504 0 0.090-0.001 0.18-0.002 0.27v-0.014c0.001 0.077 0.002 0.167 0.002 0.258 0 11.735-9.513 21.248-21.248 21.248-0.091 0-0.181-0.001-0.271-0.002h-432.882c-11.876 0-21.504-9.628-21.504-21.504v0c0 0 0-0.001 0-0.002 0-11.928 9.597-21.614 21.49-21.758h0.014zM952.576 924.672h-865.536c0 0 0 0-0.001 0-23.945 0-43.374-19.339-43.519-43.25v-692.494l216.576-216.32h692.48c23.894 0 43.264 19.37 43.264 43.264v0 865.536c0 23.894-19.37 43.264-43.264 43.264v0zM260.096 38.4l-151.552 150.528h151.552zM952.576 16.896h-649.216v193.792c-0.145 11.907-9.831 21.504-21.758 21.504-0.001 0-0.001 0-0.002 0h-194.56v649.216h865.536z" />
<glyph unicode="&#xe920;" glyph-name="pages" d="M708.352 928.768h-469.504c0 0 0 0 0 0-47.081 0-85.248-38.167-85.248-85.248 0-0.090 0-0.18 0-0.27v0.014-768c0-47.081 38.167-85.248 85.248-85.248v0h597.504c47.081 0 85.248 38.167 85.248 85.248v0 618.752zM878.848 75.264c0-23.47-19.026-42.496-42.496-42.496v0h-597.504c-23.47 0-42.496 19.026-42.496 42.496v0 768c0 0.076-0.001 0.166-0.001 0.256 0 23.47 19.026 42.496 42.496 42.496 0 0 0.001 0 0.001 0h384v-213.248c0-23.611 19.141-42.752 42.752-42.752v0h213.248zM665.6 672.768v213.248h21.248l192-213.248z" />
<glyph unicode="&#xe921;" glyph-name="pencil" d="M819.2 929.28c-47.846-0.207-91.090-19.741-122.36-51.192l-0.008-0.008-584.96-583.68-72.448-317.184 317.184 72.192 584.448 584.192c31.256 31.345 50.582 74.601 50.582 122.37 0 95.41-77.097 172.814-172.391 173.31h-0.047zM320.768 89.6l-151.296-35.072v51.2h-52.736l36.864 152.832h168.448zM364.032 117.76v162.304c0 0 0 0.001 0 0.002 0 11.928-9.597 21.614-21.49 21.758h-162.062l465.92 465.92 183.808-183.552zM910.336 664.32l-49.664-49.664-183.552 183.552 49.664 49.664c23.842 23.323 56.405 37.817 92.353 38.144h0.063c0.076 0 0.165 0 0.255 0 71.682 0 129.792-58.11 129.792-129.792 0-35.904-14.579-68.404-38.14-91.901l-0.003-0.003z" />
<glyph unicode="&#xe922;" glyph-name="phone" d="M538.88 880.128c215.046 0 389.376-174.33 389.376-389.376v0c0-12.018 9.742-21.76 21.76-21.76v0c0 0 0.001 0 0.002 0 11.876 0 21.504 9.628 21.504 21.504 0 0.090-0.001 0.18-0.002 0.27v-0.014c0 238.94-193.7 432.64-432.64 432.64v0c-0.707 0.082-1.526 0.128-2.357 0.128-12.018 0-21.76-9.742-21.76-21.76s9.742-21.76 21.76-21.76c0.83 0 1.65 0.046 2.456 0.137l-0.099-0.009zM971.008 166.4c0 0.047 0 0.103 0 0.158 0 17.839-7.241 33.987-18.943 45.665l-0.001 0.001c-3.391 3.331-7.165 6.291-11.245 8.803l-0.275 0.157-183.296 142.592c-11.641 11.706-27.758 18.951-45.566 18.951-14.81 0-28.45-5.010-39.317-13.429l0.147 0.11-51.2-51.2c-7.92-8.969-19.446-14.596-32.287-14.596-14.557 0-27.424 7.232-35.206 18.299l-0.091 0.137c-71.48 51.868-132.462 112.606-182.966 181.505l-1.61 2.303h1.536c-11.351 8.012-18.676 21.069-18.688 35.838v0.002c0.012 13.217 5.949 25.044 15.297 32.972l0.063 0.052 51.2 51.2c8.309 10.72 13.319 24.36 13.319 39.17 0 17.809-7.245 33.925-18.948 45.563l-0.003 0.003-144.128 182.272c-2.669 4.355-5.629 8.129-8.969 11.529l0.009-0.009c-11.679 11.704-27.827 18.944-45.666 18.944-0.056 0-0.111 0-0.167 0h0.009c-86.016 0-194.816-101.632-194.816-227.072 0-0.054 0-0.118 0-0.181 0-35.211 8.124-68.524 22.6-98.167l-0.584 1.325c134.573-262.75 342.855-471.527 597.498-603.109l7.686-3.611c28.319-13.892 61.632-22.016 96.843-22.016 0.064 0 0.128 0 0.191 0h-0.010c125.44 0 227.072 108.288 227.072 194.816v0zM744.192 14.592c-0.142 0-0.311-0.001-0.479-0.001-28.418 0-55.291 6.615-79.163 18.389l1.050-0.468-7.168 2.56c-248.468 129.225-446.159 326.833-572.003 567.899l-3.485 7.333c-0.653 2.828-1.532 5.305-2.654 7.642l0.094-0.218c-11.226 22.989-17.828 50.008-17.92 78.561v0.031c0 104.96 91.136 183.808 151.552 183.808 0.016 0 0.035 0 0.053 0 5.989 0 11.405-2.448 15.304-6.398l0.002-0.002c1.102-1.101 2.040-2.366 2.775-3.755l0.041-0.085c0.749-1.362 1.599-2.537 2.572-3.597l-0.012 0.013 142.336-183.296 3.584-3.84c3.952-3.901 6.4-9.318 6.4-15.307 0-0.019 0-0.038 0-0.056v0.003c0.001-0.086 0.002-0.188 0.002-0.289 0-3.972-1.145-7.677-3.123-10.802l0.049 0.083-48.384-47.872c-16.808-15.781-27.278-38.142-27.278-62.949 0-23.42 9.332-44.66 24.48-60.205l-0.018 0.018 1.536-2.56c54.927-74.912 119.112-138.853 191.814-191.807l2.49-1.729 1.792-1.28c15.564-15.13 36.837-24.46 60.288-24.46s44.724 9.33 60.308 24.48l2.284 2.284 48.384 48.896c3.145 1.906 6.941 3.045 11 3.072h0.008c0.069 0.001 0.149 0.001 0.231 0.001 5.853 0 11.133-2.455 14.865-6.392l0.009-0.009 4.096-3.584 183.296-142.336c1.047-0.961 2.222-1.811 3.491-2.513l0.093-0.047 3.84-2.816c3.919-3.942 6.355-9.362 6.4-15.351v-0.009c-0.059-0.652-0.093-1.41-0.093-2.176s0.034-1.524 0.1-2.273l-0.007 0.097c-4.352-58.88-82.176-146.688-184.832-146.688zM539.392 663.808c95.576 0 173.056-77.48 173.056-173.056v0c-0.082-0.707-0.128-1.526-0.128-2.357 0-12.018 9.742-21.76 21.76-21.76s21.76 9.742 21.76 21.76c0 0.83-0.046 1.65-0.137 2.456l0.009-0.099c0 119.47-96.85 216.32-216.32 216.32v0c-0.707 0.082-1.526 0.128-2.357 0.128-12.018 0-21.76-9.742-21.76-21.76s9.742-21.76 21.76-21.76c0.83 0 1.65 0.046 2.456 0.137l-0.099-0.009zM539.392 447.488c23.894 0 43.264 19.37 43.264 43.264s-19.37 43.264-43.264 43.264c-23.894 0-43.264-19.37-43.264-43.264v0c0.285-23.496 19.256-42.467 42.725-42.752h0.027z" />
<glyph unicode="&#xe923;" glyph-name="photo" d="M865.792 883.2h-733.184c-44.96 0-81.408-36.448-81.408-81.408v0-733.184c0-44.96 36.448-81.408 81.408-81.408v0h733.184c44.96 0 81.408 36.448 81.408 81.408v0 733.184c0 44.96-36.448 81.408-81.408 81.408v0zM906.496 68.608c0-22.48-18.224-40.704-40.704-40.704v0h-733.184c-22.48 0-40.704 18.224-40.704 40.704v0 733.184c0 22.48 18.224 40.704 40.704 40.704v0h733.184c22.48 0 40.704-18.224 40.704-40.704v0zM823.552 137.216v0c-1.295 2.664-2.922 4.946-4.867 6.915l0.003-0.003-178.688 257.792c-2.962 7.552-10.187 12.802-18.638 12.802-0.108 0-0.215-0.001-0.322-0.003h0.016c-0.147 0.004-0.32 0.006-0.494 0.006-5.435 0-10.343-2.258-13.836-5.888l-84.486-84.486-105.984 159.488c-3.297 7.367-10.515 12.431-18.929 12.544h-0.015c-6.996-0.176-13.090-3.878-16.591-9.39l-0.049-0.082-203.776-346.112c-2.299-3.035-3.723-6.844-3.839-10.981l-0.001-0.027c0-11.311 9.169-20.48 20.48-20.48h611.072c11.311 0 20.48 9.169 20.48 20.48v0c-0.127 2.7-0.68 5.234-1.592 7.588l0.056-0.164zM230.4 150.016l169.216 288 102.4-153.6c1.118-2.567 2.582-4.769 4.364-6.668l-0.012 0.012c3.656-3.64 8.699-5.891 14.268-5.891 0.114 0 0.228 0.001 0.342 0.003h-0.017c0.084-0.001 0.183-0.002 0.282-0.002 5.501 0 10.476 2.253 14.051 5.887l84.995 84.995 147.456-213.248zM276.224 557.312c56.554 0 102.4 45.846 102.4 102.4s-45.846 102.4-102.4 102.4c-56.554 0-102.4-45.846-102.4-102.4v0c0-0.001 0-0.003 0-0.005 0-56.194 45.264-101.816 101.321-102.394h0.055zM276.224 720.384c33.791 0 61.184-27.393 61.184-61.184s-27.393-61.184-61.184-61.184c-33.791 0-61.184 27.393-61.184 61.184v0c0 0.003 0 0.006 0 0.009 0 33.431 26.812 60.6 60.106 61.175l0.054 0.001z" />
<glyph unicode="&#xe924;" glyph-name="rarrow" d="M984.32 417.792l-216.32 216.32c-3.906 3.986-9.346 6.457-15.362 6.457-11.876 0-21.504-9.628-21.504-21.504 0-0.11 0.001-0.22 0.002-0.329v0.017c-0.001-0.069-0.001-0.149-0.001-0.231 0-5.853 2.455-11.133 6.392-14.865l179.209-179.209h-856.576c-12.018 0-21.76-9.742-21.76-21.76s9.742-21.76 21.76-21.76h856.832l-179.2-179.2c-3.946-3.741-6.401-9.020-6.401-14.873 0-0.081 0-0.162 0.001-0.243v0.012c-0.001-0.093-0.002-0.203-0.002-0.313 0-11.876 9.628-21.504 21.504-21.504 6.016 0 11.456 2.471 15.359 6.453l216.324 216.324c3.984 3.906 6.454 9.345 6.454 15.36s-2.47 11.454-6.451 15.357l-0.004 0.003z" />
<glyph unicode="&#xe925;" glyph-name="rarrow2" d="M836.096 457.984l-428.544 450.816c-4.397 5.234-10.946 8.538-18.266 8.538-13.149 0-23.808-10.659-23.808-23.808 0-7.32 3.304-13.869 8.502-18.236l0.037-0.030 412.416-435.2-412.416-435.2c-4.345-4.314-7.035-10.291-7.035-16.896 0-13.102 10.584-23.732 23.668-23.808h0.007c6.556 0.161 12.475 2.761 16.91 6.925l-0.014-0.013 428.544 453.12c4.284 4.342 6.929 10.31 6.929 16.896s-2.646 12.554-6.932 16.899l0.003-0.003z" />
<glyph unicode="&#xe926;" glyph-name="rmenu" d="M515.584 904.192c-262.976 0-476.16-213.184-476.16-476.16s213.184-476.16 476.16-476.16c262.976 0 476.16 213.184 476.16 476.16v0c0 262.976-213.184 476.16-476.16 476.16v0zM515.584-4.608c-239.082 0-432.896 193.814-432.896 432.896s193.814 432.896 432.896 432.896c239.082 0 432.896-193.814 432.896-432.896 0-0.090 0-0.18 0-0.27v0.014c0-238.941-193.7-432.64-432.64-432.64-0.090 0-0.18 0-0.27 0h0.014zM277.504 431.104h476.16v-6.4h-476.16v6.4zM753.664 404.224h-476.16c-13.149 0-23.808 10.659-23.808 23.808s10.659 23.808 23.808 23.808h476.16c13.149 0 23.808-10.659 23.808-23.808s-10.659-23.808-23.808-23.808v0zM753.664 401.152h-476.16c-14.845 0-26.88 12.035-26.88 26.88s12.035 26.88 26.88 26.88v0h476.16c14.845 0 26.88-12.035 26.88-26.88s-12.035-26.88-26.88-26.88v0zM277.504 448c-11.311 0-20.48-9.169-20.48-20.48s9.169-20.48 20.48-20.48h476.16c11.311 0 20.48 9.169 20.48 20.48s-9.169 20.48-20.48 20.48v0zM277.504 583.68h476.16v-6.4h-476.16v6.4zM753.664 556.544h-476.16c-13.149 0-23.808 10.659-23.808 23.808s10.659 23.808 23.808 23.808h476.16c13.149 0 23.808-10.659 23.808-23.808s-10.659-23.808-23.808-23.808v0zM753.664 553.472h-476.16c-13.811 1.386-24.503 12.948-24.503 27.008s10.693 25.622 24.39 26.999l0.114 0.009h476.16c13.811-1.386 24.503-12.948 24.503-27.008s-10.693-25.622-24.39-26.999l-0.114-0.009zM277.504 601.6c-11.342-0.144-20.48-9.372-20.48-20.734 0-0.001 0-0.001 0-0.002v0c0-11.311 9.169-20.48 20.48-20.48v0h476.16c11.311 0 20.48 9.169 20.48 20.48v0c0 0 0 0.001 0 0.002 0 11.362-9.138 20.59-20.466 20.734h-0.014zM277.504 269.312h476.16v-6.4h-476.16v6.4zM753.664 243.2h-476.16c-13.149 0-23.808 10.659-23.808 23.808s10.659 23.808 23.808 23.808h476.16c13.149 0 23.808-10.659 23.808-23.808s-10.659-23.808-23.808-23.808v0zM753.664 239.104h-476.16c-13.811 1.386-24.503 12.948-24.503 27.008s10.693 25.622 24.39 26.999l0.114 0.009h476.16c13.811-1.386 24.503-12.948 24.503-27.008s-10.693-25.622-24.39-26.999l-0.114-0.009zM277.504 286.72c-10.419-1.197-18.436-9.966-18.436-20.608s8.016-19.411 18.34-20.599l0.096-0.009h476.16c10.419 1.197 18.436 9.966 18.436 20.608s-8.016 19.411-18.34 20.599l-0.096 0.009z" />
<glyph unicode="&#xe927;" glyph-name="rocket" d="M246.784 400.384l-144.384-361.984 361.984 144.384c-5.788-0.759-12.537-1.223-19.383-1.28h-0.073c-110.424 3.43-198.635 93.767-198.635 204.707 0 4.987 0.178 9.932 0.529 14.83l-0.038-0.657zM169.984 104.96l67.328 168.96c9.735-18.002 20.781-33.539 33.464-47.567l-0.184 0.207c19.101-21.57 41.518-39.662 66.556-53.615l1.284-0.657zM96.768 32.768l155.904 389.632-2.816-23.808c-0.424-4.761-0.665-10.299-0.665-15.893 0-50.584 19.746-96.556 51.95-130.629l-0.085 0.090c35.359-41.031 86.936-67.242 144.662-68.604l0.234-0.004c2.832-0.189 6.139-0.297 9.472-0.297s6.64 0.108 9.919 0.32l-0.447-0.023 24.064 2.816zM242.432 380.928l-134.4-336.896 336.896 134.4c-59.832 1.521-113.080 28.473-149.548 70.407l-0.212 0.249c-31.958 34.635-51.842 80.832-52.734 131.661l-0.002 0.179zM163.328 99.328l72.704 182.016 3.328-5.888c9.663-17.795 20.535-33.157 32.977-47.086l-0.209 0.238c18.921-21.225 41.076-39.056 65.792-52.848l1.28-0.656 6.144-3.328zM236.8 266.496l-61.952-155.648 155.392 61.952c-38.853 23.134-70.403 54.766-92.774 92.483l-0.666 1.213zM716.8 596.992c30.963 0 56.063 25.101 56.063 56.064s-25.101 56.064-56.064 56.064c-30.963 0-56.064-25.101-56.064-56.064 0-0.090 0-0.18 0.001-0.27v0.014c0.145-30.853 25.19-55.808 56.063-55.808 0 0 0 0 0.001 0v0zM716.8 671.488c0.076 0.001 0.166 0.002 0.256 0.002 10.321 0 18.688-8.367 18.688-18.688s-8.367-18.688-18.688-18.688c-10.32 0-18.687 8.366-18.688 18.686v0c-0.001 0.076-0.002 0.166-0.002 0.256 0 10.18 8.252 18.432 18.432 18.432 0.001 0 0.001 0 0.002 0v0zM716.8 593.92c-0.076 0-0.166-0.001-0.255-0.001-32.66 0-59.136 26.476-59.136 59.136s26.476 59.136 59.136 59.136c32.66 0 59.136-26.476 59.136-59.136 0-0.090 0-0.18-0.001-0.269v0.014c0-32.519-26.361-58.88-58.88-58.88v0zM716.8 705.536c-0.076 0-0.166 0.001-0.256 0.001-29.125 0-52.736-23.611-52.736-52.736s23.611-52.736 52.736-52.736c29.125 0 52.736 23.61 52.736 52.735v0c0 0 0 0 0 0.001 0 29.035-23.465 52.59-52.466 52.735h-0.014zM716.8 631.040c-0.076-0.001-0.165-0.001-0.255-0.001-12.159 0-22.016 9.857-22.016 22.016s9.857 22.016 22.016 22.016c12.159 0 22.016-9.857 22.016-22.016 0-0.089-0.001-0.179-0.002-0.268v0.014c-0.143-11.96-9.8-21.617-21.746-21.76h-0.014zM716.8 668.416c-0.076 0.001-0.166 0.002-0.256 0.002-8.624 0-15.616-6.992-15.616-15.616s6.992-15.616 15.616-15.616c8.624 0 15.615 6.99 15.616 15.614v0c0 0.001 0 0.001 0 0.002 0 8.534-6.846 15.47-15.347 15.614h-0.013zM914.944 851.456c-6.874 4.077-15.152 6.487-23.993 6.487-2.010 0-3.991-0.125-5.935-0.366l0.232 0.024c-78.848 0-284.16-57.344-393.984-167.424-25.6-25.6-111.872-104.96-131.84-131.584-64.256-17.664-158.208-52.992-210.688-105.216 53.409-4.31 101.88-22.355 142.807-50.56l-0.983 0.64c-2.176-9.273-3.423-19.921-3.423-30.86 0-41.034 17.554-77.969 45.562-103.704l0.102-0.092c25.799-27.438 61.951-44.886 102.186-46.075l0.214-0.005c0.263-0.002 0.574-0.003 0.886-0.003 10.68 0 21.054 1.308 30.971 3.772l-0.88-0.185c27.565-39.944 45.61-88.415 49.852-140.786l0.068-1.038c51.2 51.2 87.552 146.176 105.216 210.688 26.88 19.968 105.728 105.728 131.584 131.84 132.608 131.072 188.416 398.080 162.048 424.448zM587.008 305.408c-13.385-50.287-30.878-94.111-52.835-135.19l1.635 3.35c-10.636 27.979-22.953 52.024-37.526 74.468l0.918-1.508c-6.6 10.497-18.109 17.379-31.228 17.408h-0.004c-1.342 0.12-2.903 0.188-4.48 0.188s-3.138-0.068-4.68-0.202l0.2 0.014c-6.597-1.75-14.177-2.774-21.991-2.816h-0.025c-30.806 0.109-58.621 12.827-78.571 33.258l-0.021 0.022c-21.399 19.122-34.806 46.801-34.806 77.613 0 7.692 0.836 15.188 2.421 22.404l-0.127-0.688c0.683 2.663 1.075 5.72 1.075 8.868 0 13.109-6.795 24.631-17.056 31.236l-0.147 0.089c-20.99 13.59-45.116 25.904-70.5 35.688l-2.716 0.92c37.637 20.044 81.44 37.52 127.26 50.125l4.58 1.075 2.816 1.28 217.6-215.040c-0.744-0.711-1.348-1.561-1.772-2.51l-0.020-0.050zM728.32 453.632c-7.424-7.424-19.2-19.712-32.512-33.792-24.064-25.6-60.928-63.488-82.944-83.712l-212.736 212.736c20.224 22.016 58.624 58.88 83.712 82.944l33.792 32.256c100.608 100.864 294.4 155.904 366.592 156.416 0-60.416-50.944-261.888-155.904-366.848zM514.304 77.056v7.68c-4.278 51.988-21.652 99.197-48.78 139.261l0.652-1.021c-8.713-2.115-18.715-3.329-29.001-3.329-0.154 0-0.308 0-0.462 0.001h0.024c-41.798 0.847-79.227 18.867-105.644 47.269l-0.084 0.091c-28.884 26.448-46.928 64.327-46.928 106.419 0 10.176 1.055 20.106 3.060 29.686l-0.164-0.937c-39.043 26.476-86.252 43.85-137.194 48.058l-1.046 0.070h-7.68l5.632 5.376c58.112 59.392 166.4 94.72 211.712 105.984 15.36 19.968 62.976 65.536 98.048 99.072 14.080 13.312 25.6 25.6 33.28 32 110.336 110.592 316.672 168.192 396.288 168.192 1.835 0.248 3.956 0.389 6.109 0.389 9.612 0 18.565-2.818 26.080-7.672l-0.189 0.114c14.848-15.104 6.144-90.88-20.48-176.128-19.2-61.184-62.72-175.616-140.032-252.672l-31.744-33.024c-34.56-35.072-80.128-82.944-100.096-97.536-11.264-45.312-46.592-153.6-105.984-211.712zM468.992 230.656l1.28-2.048c26.409-38.472 44.611-84.581 51.036-134.38l0.164-1.556c55.296 59.392 87.808 161.792 99.328 204.8v0 0c35.125 31.791 67.537 64.203 98.282 98.155l1.046 1.173c13.312 13.824 25.6 25.6 32.256 33.024 76.8 76.8 119.296 189.44 138.24 250.112 27.392 87.296 33.536 158.208 22.016 169.728v0c-1.536 1.536-7.424 5.376-27.392 5.376-78.848 0-281.6-57.088-391.68-166.144l-32.768-32.768c-34.73-31.637-66.817-64.048-97.172-98.039l-1.132-1.289c-42.24-11.52-144.384-43.776-204.8-99.584 51.265-6.019 97.432-23.82 137.018-50.611l-1.082 0.691 2.048-1.28v-2.048c-2.317-9.511-3.647-20.43-3.647-31.66 0-39.702 16.614-75.524 43.269-100.893l0.058-0.055c25.7-27.454 61.977-44.734 102.295-45.311l0.105-0.001c10.743 0.059 21.153 1.362 31.131 3.772l-0.923-0.188zM535.040 166.4l-2.56 6.656c-10.45 27.779-22.6 51.661-37.004 73.949l0.908-1.501c-6.269 9.031-16.586 14.869-28.268 14.869-2.592 0-5.117-0.288-7.545-0.832l0.229 0.043c-6.713-1.494-14.423-2.351-22.332-2.351-31.782 0-60.335 13.822-79.977 35.783l-0.091 0.103c-22.117 19.563-35.99 48.011-35.99 79.698 0 8.044 0.894 15.879 2.588 23.411l-0.134-0.71c0.577 2.364 0.907 5.077 0.907 7.868 0 12.096-6.214 22.741-15.624 28.916l-0.131 0.081c-21.043 13.416-45.265 25.569-70.73 35.187l-2.742 0.909-6.144 2.56 5.632 2.56c37.822 20.175 81.809 37.662 127.85 50.159l4.502 1.041s0 0 1.536 0h2.048l218.88-218.88v-2.048c0.083-0.229 0.132-0.493 0.132-0.768s-0.048-0.539-0.137-0.784l0.005 0.016s0 0 0 0v0c-13.538-50.543-31.025-94.53-52.886-135.846l1.686 3.494zM467.712 267.52c0.069 0 0.151 0.001 0.233 0.001 14.179 0 26.632-7.389 33.718-18.527l0.096-0.162c12.467-19.188 23.979-41.26 33.357-64.425l0.947-2.647c18.481 35.537 34.816 77.038 46.792 120.349l1.080 4.579s0 0 0 1.28l-212.992 212.736c-47.89-13.056-89.391-29.391-128.581-49.582l3.653 1.71c25.551-10.776 47.343-22.519 67.862-36.036l-1.558 0.964c11.366-7.347 18.783-19.956 18.783-34.297 0-3.364-0.408-6.632-1.177-9.758l0.058 0.279c-1.396-6.284-2.196-13.503-2.196-20.907 0-29.942 13.080-56.828 33.837-75.258l0.103-0.090c18.562-20.848 45.476-33.915 75.441-33.915 7.371 0 14.558 0.791 21.48 2.292l-0.665-0.121c2.724 0.654 5.852 1.029 9.067 1.029 0.232 0 0.464-0.002 0.696-0.006h-0.035zM612.864 332.032l-217.344 217.344 2.304 2.304c20.48 22.272 60.16 60.16 83.968 82.944l1.28 1.28c13.568 12.8 25.6 23.808 32.256 30.976 100.864 102.4 296.704 156.928 368.896 157.44h3.328v-3.328c0-63.488-53.76-265.984-157.184-369.152v0l-32.256-33.536c-22.784-23.808-60.672-63.744-82.944-84.224zM404.48 549.632l209.92-209.152c22.272 20.992 58.368 58.624 80.384 81.664 13.568 14.080 25.6 25.6 32.512 33.536v0c100.352 100.608 153.6 295.424 155.136 361.472-73.984-1.792-263.168-57.088-361.472-155.136-6.912-7.168-18.688-18.432-32.256-31.232l-1.28-1.28c-24.064-22.016-61.952-58.112-82.944-80.384z" />
<glyph unicode="&#xe928;" glyph-name="safe" d="M380.16 305.152v0c31.317-31.316 74.58-50.686 122.368-50.686s91.051 19.37 122.368 50.686v0c31.318 31.317 50.688 74.582 50.688 122.37 0 95.576-77.48 173.056-173.056 173.056s-173.056-77.48-173.056-173.056c0-47.789 19.37-91.053 50.688-122.37v0zM394.24 448h-19.456c3.472 20.265 11.308 38.248 22.522 53.607l-0.25-0.359 13.824-13.824c3.894-3.907 9.281-6.325 15.232-6.325s11.338 2.418 15.231 6.324l0.001 0.001c3.922 3.935 6.347 9.364 6.347 15.36s-2.425 11.425-6.347 15.361l-13.567 13.567c15.018 10.915 32.99 18.742 52.48 22.16l0.768 0.112v-19.456c-0.001-0.076-0.002-0.166-0.002-0.256 0-11.876 9.628-21.504 21.504-21.504 0.001 0 0.001 0 0.002 0v0c12.018 0 21.76 9.742 21.76 21.76v0 19.456c20.244-3.651 38.195-11.462 53.642-22.541l-0.394 0.269-13.824-13.568c-4.491-4.004-7.305-9.806-7.305-16.265 0-12.018 9.742-21.76 21.76-21.76 6.459 0 12.261 2.814 16.246 7.284l0.019 0.022 13.824 13.824c10.858-15.037 18.676-32.998 22.156-52.462l0.116-0.786h-19.712c-0.707 0.082-1.526 0.128-2.357 0.128-12.018 0-21.76-9.742-21.76-21.76s9.742-21.76 21.76-21.76c0.83 0 1.65 0.046 2.456 0.137l-0.099-0.009h19.712c-3.593-20.338-11.412-38.385-22.54-53.896l0.268 0.392-13.824 13.824c-3.935 3.922-9.364 6.347-15.36 6.347s-11.425-2.425-15.361-6.347l0.001 0.001c-3.907-3.894-6.325-9.281-6.325-15.232s2.418-11.338 6.324-15.231l13.825-13.825c-15.061-10.736-33.020-18.465-52.46-21.901l-0.788-0.115v21.248c-0.145 11.907-9.831 21.504-21.758 21.504-0.001 0-0.001 0-0.002 0v0c-11.876 0-21.504-9.628-21.504-21.504v0-19.456c-20.24 3.448-38.217 11.192-53.629 22.277l0.381-0.261 13.568 13.824c3.898 3.898 6.309 9.284 6.309 15.232 0 11.897-9.644 21.541-21.541 21.541-5.948 0-11.334-2.411-15.232-6.309l-13.824-13.824c-10.949 15.089-18.782 33.154-22.163 52.742l-0.109 0.762h19.456c0.707-0.082 1.526-0.128 2.357-0.128 12.018 0 21.76 9.742 21.76 21.76s-9.742 21.76-21.76 21.76c-0.83 0-1.65-0.046-2.456-0.137l0.099 0.009zM502.528 382.976c23.894 0 43.264 19.37 43.264 43.264s-19.37 43.264-43.264 43.264c-23.894 0-43.264-19.37-43.264-43.264v0c0.712-23.337 19.801-41.984 43.245-41.984 0.007 0 0.013 0 0.020 0h-0.001zM848.896 644.096v129.792h-691.2v-692.48h691.2v129.792c23.894 0 43.264 19.37 43.264 43.264v43.264c0 23.894-19.37 43.264-43.264 43.264v0 173.056c23.894 0 43.264 19.37 43.264 43.264v0 44.288c-0.432 23.561-19.633 42.496-43.257 42.496-0.002 0-0.005 0-0.007 0v0zM805.632 644.096c-0.004 0-0.008 0-0.012 0-23.675 0-42.935-18.905-43.507-42.443l-0.001-0.053v-43.52c0.145-23.925 19.574-43.264 43.519-43.264 0 0 0.001 0 0.001 0v0-173.056c0 0 0 0-0.001 0-23.945 0-43.374-19.339-43.519-43.25v-43.278c0.145-23.925 19.574-43.264 43.519-43.264 0 0 0.001 0 0.001 0v0-86.528h-605.952v604.16h605.952zM892.16 903.68h-779.008c-0.304 0.004-0.664 0.006-1.024 0.006-47.788 0-86.528-38.74-86.528-86.528 0-0.002 0-0.004 0-0.006v0-778.752c0 0 0 0 0 0 0-47.788 38.74-86.528 86.528-86.528 0.090 0 0.18 0 0.27 0h779.762c47.788 0 86.528 38.74 86.528 86.528v0 778.752c0 47.788-38.74 86.528-86.528 86.528v0zM935.424 38.4c0-23.894-19.37-43.264-43.264-43.264v0h-779.008c-0.076 0-0.166-0.001-0.257-0.001-23.753 0-43.008 19.255-43.008 43.008 0 0.090 0 0.18 0.001 0.271v-0.014 778.752c0 23.894 19.37 43.264 43.264 43.264v0h779.008c23.894 0 43.264-19.37 43.264-43.264v0z" />
<glyph unicode="&#xe929;" glyph-name="search" d="M966.912 47.616l-215.808 215.808c61.786 68.46 99.588 159.606 99.588 259.58 0 214.34-173.756 388.096-388.096 388.096s-388.096-173.756-388.096-388.096c0-214.34 173.756-388.096 388.096-388.096 99.975 0 191.12 37.802 259.922 99.892l-0.343-0.304 215.808-215.808c3.7-3.61 8.753-5.849 14.329-5.888h0.007c11.311 0 20.48 9.169 20.48 20.48v0c-0.094 5.574-2.32 10.61-5.895 14.344l0.007-0.008zM463.616 175.616c-191.294 0-346.368 155.074-346.368 346.368s155.074 346.368 346.368 346.368c191.294 0 346.368-155.074 346.368-346.368v0c0-191.294-155.074-346.368-346.368-346.368v0zM952.32 9.472c-6.535 0.080-12.417 2.81-16.634 7.162l-213.51 213.51c-68.604-61.010-159.496-98.282-259.094-98.282-215.753 0-390.656 174.903-390.656 390.656s174.903 390.656 390.656 390.656c215.753 0 390.656-174.903 390.656-390.656 0-99.598-37.272-190.49-98.628-259.49l0.346 0.396 213.76-213.504c4.096-4.36 6.685-10.177 6.911-16.596l0.001-0.044c0-13.149-10.659-23.808-23.808-23.808v0zM721.92 239.872l217.856-218.112c3.033-3.158 7.291-5.12 12.007-5.12 0.009 0 0.017 0 0.026 0h-0.001c9.557 0.142 17.266 7.851 17.408 17.395v0.013c-0.166 4.694-2.088 8.909-5.124 12.036l0.004-0.004-218.112 217.856 2.048 2.304c61.193 67.752 98.635 157.978 98.635 256.949 0 212.077-171.923 384-384 384s-384-171.923-384-384c0-212.077 171.923-384 384-384 98.971 0 189.197 37.442 257.285 98.934l-0.336-0.299zM463.104 173.312c-192.77 0.292-348.927 156.63-348.927 349.44 0 192.99 156.45 349.44 349.44 349.44s349.44-156.45 349.44-349.44c0-0.27 0-0.54-0.001-0.81v0.042c-0.146-192.931-156.508-349.294-349.426-349.44h-0.014zM463.104 864.512c-189.456 0-343.040-153.584-343.040-343.040s153.584-343.040 343.040-343.040c189.456 0 343.040 153.584 343.040 343.040 0 0.090 0 0.18 0 0.27v-0.014c-0.145 189.218-153.351 342.603-342.487 343.040h-0.041z" />
<glyph unicode="&#xe92a;" glyph-name="settings" d="M509.184 655.36c-0.076 0-0.166 0-0.256 0-119.612 0-216.576-96.964-216.576-216.576s96.964-216.576 216.576-216.576c119.612 0 216.576 96.964 216.576 216.576 0 0.090 0 0.18 0 0.27v-0.014c0 119.47-96.85 216.32-216.32 216.32v0zM509.184 265.984c-95.576 0-173.056 77.48-173.056 173.056s77.48 173.056 173.056 173.056c95.576 0 173.056-77.48 173.056-173.056v0c0-95.576-77.48-173.056-173.056-173.056v0zM953.6 534.272l-45.824 11.264c-10.289 37.841-24.461 70.94-42.507 101.477l1.035-1.893 24.32 40.704c4.733 6.137 7.586 13.935 7.586 22.4s-2.853 16.263-7.65 22.486l0.064-0.086-89.6 89.856c-4.653 4.764-11.141 7.718-18.319 7.718-0.49 0-0.977-0.014-1.46-0.041l0.067 0.003c-9.515-0.269-18.318-3.092-25.813-7.805l0.213 0.125-40.704-25.6c-28.488 17.156-61.384 31.564-96.158 41.526l-2.914 0.714-11.52 46.080c-4.864 15.616-14.336 31.744-31.744 31.744h-128c-17.408 0-27.648-16.128-31.744-31.744l-11.52-46.080c-37.758-10.307-70.766-24.387-101.274-42.271l1.946 1.055-40.704 25.6c-7.282 4.588-16.085 7.411-25.528 7.678l-0.072 0.002c-0.416 0.024-0.903 0.038-1.393 0.038-7.178 0-13.666-2.954-18.314-7.713l-0.005-0.005-88.064-91.904c-12.544-12.288-7.424-30.208 0-44.8l25.6-40.704c-17.011-28.644-31.183-61.743-40.802-96.726l-0.67-2.858-45.824-11.264c-15.36-4.096-31.744-14.336-31.744-31.744v-128c0-17.664 16.384-26.88 31.744-31.744l45.824-11.52c10.349-37.852 24.516-70.945 42.52-101.508l-1.048 1.924-25.6-38.656c-4.856-6.093-7.791-13.904-7.791-22.4s2.935-16.307 7.848-22.473l-0.056 0.073 89.6-89.856c4.627-4.598 11.003-7.44 18.044-7.44 0.317 0 0.632 0.006 0.946 0.017l-0.045-0.001c9.476 0.602 18.207 3.281 25.909 7.582l-0.309-0.158 40.704 25.6c28.562-16.749 61.577-30.746 96.435-40.285l2.893-0.675 11.52-46.336c4.096-15.616 14.336-31.744 31.744-31.744h128c17.408 0 26.88 16.128 31.744 31.744l11.52 46.336c37.751 10.214 70.766 24.211 101.287 42.016l-1.959-1.056 40.704-25.6c7.393-4.143 16.124-6.822 25.422-7.415l0.178-0.009c0.268-0.010 0.584-0.016 0.9-0.016 7.040 0 13.417 2.842 18.045 7.441l-0.001-0.001 89.6 89.856c4.856 6.093 7.791 13.904 7.791 22.4s-2.935 16.307-7.848 22.473l0.056-0.073-24.32 40.704c16.956 28.639 31.123 61.732 40.79 96.694l0.682 2.89 45.824 11.52c15.36 4.864 31.744 14.080 31.744 31.744v128c-0.256 16.384-16.64 26.624-32 30.72zM942.080 385.536v0l-44.288-11.008c-15.324-3.894-27.224-15.538-31.414-30.414l-0.074-0.306c-9.091-33.841-21.695-63.46-37.786-90.78l0.922 1.692c-3.809-6.29-6.062-13.89-6.062-22.016s2.254-15.726 6.17-22.209l-0.108 0.193 23.808-39.68-75.52-76.8-39.424 23.552c-6.315 3.709-13.91 5.899-22.016 5.899s-15.701-2.19-22.224-6.012l0.208 0.112c-25.55-15.118-55.077-27.716-86.278-36.267l-2.554-0.597c-15.182-4.264-26.826-16.164-30.655-31.187l-0.065-0.301-11.52-42.752h-107.52l-11.264 45.312c-3.974 15.219-15.597 27.011-30.414 31.159l-0.306 0.073c-33.755 9.148-63.282 21.746-90.536 37.792l1.704-0.928c-6.115 3.544-13.454 5.635-21.282 5.635-0.168 0-0.336-0.001-0.504-0.003h0.026c-8.222-0.004-15.91-2.288-22.467-6.253l0.195 0.109-39.424-23.552-75.52 76.8 23.808 39.68c3.809 6.29 6.062 13.89 6.062 22.016s-2.254 15.726-6.17 22.209l0.108-0.193c-14.742 25.029-27.073 53.954-35.498 84.5l-0.598 2.54c-4.264 15.182-16.164 26.826-31.187 30.655l-0.301 0.065-45.312 11.008v107.264l44.8 11.008c15.621 3.722 27.78 15.541 31.929 30.672l0.071 0.304c8.856 33.836 21.12 63.47 36.795 90.903l-0.955-1.815c3.787 6.253 6.028 13.809 6.028 21.888s-2.241 15.635-6.135 22.079l0.107-0.191-23.808 39.424 76.8 75.52 39.168-23.552c6.296-3.783 13.895-6.021 22.016-6.021s15.719 2.238 22.212 6.13l-0.196-0.109c25.536 14.991 55.051 27.579 86.2 36.239l2.632 0.625c15.151 4.171 26.796 15.986 30.654 30.932l0.066 0.3 11.264 45.056h106.752l11.264-44.544c3.924-15.246 15.569-27.061 30.416-31.16l0.304-0.072c33.781-9.285 63.295-21.873 90.607-37.821l-1.775 0.957c6.244-3.663 13.743-5.843 21.747-5.888h0.013c8.222 0.004 15.91 2.288 22.467 6.253l-0.195-0.109 39.936 24.064 75.52-75.52-23.552-39.424c-3.787-6.253-6.028-13.809-6.028-21.888s2.241-15.635 6.135-22.079l-0.107 0.191c15.065-25.617 27.66-55.226 36.255-86.491l0.609-2.597c4.135-15.316 16.079-27.089 31.189-30.912l0.299-0.064 44.8-11.008z" />
<glyph unicode="&#xe92b;" glyph-name="sheild" d="M902.912 899.328c-1.927 6.248-6.386 11.209-12.148 13.768l-0.14 0.056c-2.664 1.272-5.789 2.015-9.088 2.015s-6.424-0.743-9.218-2.070l0.13 0.056c-104.945-50.029-227.672-80.711-357.183-84.198l-1.217-0.026c-130.73 3.561-253.449 34.237-363.908 86.572l5.508-2.348c-2.703 1.277-5.873 2.022-9.216 2.022s-6.513-0.745-9.351-2.079l0.135 0.057c-4.708-3.159-8.064-8.021-9.193-13.687l-0.023-0.137c-50.939-155.666-82.918-335.225-88.508-521.417l-0.068-2.871c0-273.92 452.096-406.528 471.296-409.6h8.192c19.2 3.584 471.040 136.192 471.040 409.6-5.184 188.869-36.634 368.507-90.821 537.981l3.781-13.693zM514.816 8.192c-44.288 9.216-432.128 140.544-432.128 366.848 0 211.2 58.88 411.392 79.104 488.192 103.881-46.217 224.854-74.224 352.072-76.785l0.952-0.015c128.173 2.612 249.14 30.614 359.001 79.156l-5.977-2.356c19.968-76.8 79.36-276.992 79.36-488.192 0-226.048-388.352-357.632-432.384-366.848zM588.8 526.848l-74.752 195.072-73.728-195.072h-196.352l159.744-123.904-73.728-220.928 184.064 134.912 184.064-134.912-73.472 220.928 159.488 123.904zM583.68 389.12l30.72-92.16-100.352 73.472-25.6-18.688-74.496-54.784 40.448 121.344-24.32 18.688-60.16 46.848h100.352l10.496 27.904 33.28 87.808 33.28-87.808 10.496-27.904h100.352l-84.224-65.536z" />
<glyph unicode="&#xe92c;" glyph-name="table" d="M463.36 483.84h-373.76v373.76h373.76zM192 586.24h168.96v168.96h-168.96zM947.2 483.84h-373.76v373.76h373.76zM675.84 586.24h168.96v168.96h-168.96zM463.36 25.6h-373.76v373.76h373.76zM192 128h168.96v168.96h-168.96zM947.2 25.6h-373.76v373.76h373.76zM675.84 128h168.96v168.96h-168.96z" />
<glyph unicode="&#xe92d;" glyph-name="toggles" d="M851.712 264.192h-275.2c-9.648 36.208-42.144 62.446-80.768 62.446s-71.12-26.238-80.635-61.863l-0.133-0.583h-191.488c-11.594 0-20.992-9.398-20.992-20.992s9.398-20.992 20.992-20.992v0h191.488c9.648-36.208 42.144-62.446 80.768-62.446s71.12 26.238 80.635 61.863l0.133 0.583h275.2c11.594 0 20.992 9.398 20.992 20.992s-9.398 20.992-20.992 20.992v0zM495.616 201.216c-23.187 0-41.984 18.797-41.984 41.984s18.797 41.984 41.984 41.984c23.187 0 41.984-18.797 41.984-41.984v0c0-23.187-18.797-41.984-41.984-41.984v0zM851.712 494.592h-65.792c-9.648 36.208-42.144 62.446-80.768 62.446s-71.12-26.238-80.635-61.863l-0.133-0.583h-400.896c-11.594 0-20.992-9.398-20.992-20.992s9.398-20.992 20.992-20.992v0h400.896c9.648-36.208 42.144-62.446 80.768-62.446s71.12 26.238 80.635 61.863l0.133 0.583h65.792c11.594 0 20.992 9.398 20.992 20.992s-9.398 20.992-20.992 20.992v0zM705.28 431.616c-0.076 0-0.166-0.001-0.256-0.001-23.187 0-41.984 18.797-41.984 41.984s18.797 41.984 41.984 41.984c23.187 0 41.984-18.796 41.984-41.983v0c0 0 0 0 0-0.001 0-23.097-18.651-41.838-41.714-41.983h-0.014zM914.688 934.4h-754.176c-46.174-0.145-83.567-37.538-83.712-83.698v-754.19c0.145-46.174 37.538-83.567 83.698-83.712h754.19c46.174 0.145 83.567 37.538 83.712 83.698v754.19c-0.145 46.174-37.538 83.567-83.698 83.712h-0.014zM956.416 96.512c0-23.046-18.682-41.728-41.728-41.728v0h-754.176c-23.046 0-41.728 18.682-41.728 41.728v754.176c0 23.046 18.682 41.728 41.728 41.728v0h754.176c23.046 0 41.728-18.682 41.728-41.728v0zM851.712 724.992h-358.4c-9.472 36.46-42.091 62.944-80.896 62.944s-71.424-26.484-80.768-62.364l-0.128-0.58h-108.032c-11.594 0-20.992-9.398-20.992-20.992s9.398-20.992 20.992-20.992v0h107.52c9.472-36.46 42.091-62.944 80.896-62.944s71.424 26.484 80.768 62.364l0.128 0.58h358.4c11.594 0 20.992 9.398 20.992 20.992s-9.398 20.992-20.992 20.992v0zM411.904 662.016c-23.187 0-41.984 18.797-41.984 41.984s18.797 41.984 41.984 41.984c23.187 0 41.984-18.797 41.984-41.984v0c-0.144-23.129-18.855-41.84-41.97-41.984h-0.014z" />
<glyph unicode="&#xe92e;" glyph-name="user" d="M667.904 197.12c-55.114 14.32-95.346 63.103-96.51 121.47l-0.002 0.13c-0.071 1.923-0.111 4.182-0.111 6.45 0 51.812 21.085 98.699 55.142 132.549l0.009 0.009s31.488 26.88 10.24 114.432c35.328 47.872 41.984 132.352 3.584 221.952-23.808 56.32-45.056 87.040-76.8 104.96-21.241 11.472-46.493 18.215-73.319 18.215-1.224 0-2.445-0.014-3.662-0.042l0.181 0.003c-0.071 0-0.154 0-0.237 0-41.76 0-81.017-10.717-115.171-29.551l1.232 0.623c-54.016-23.808-90.368-45.568-124.416-128-27.648-67.584 5.632-146.176 23.040-184.32-20.992-87.296 8.192-117.248 8.192-117.248 34.066-33.859 55.151-80.746 55.151-132.558 0-2.268-0.040-4.527-0.121-6.775l0.009 0.326c-0.718-58.982-41.22-108.308-95.88-122.429l-0.888-0.195c-61.44-21.504-189.44-65.792-189.44-208.896-0.004-0.154-0.006-0.336-0.006-0.518 0-12.866 10.43-23.296 23.296-23.296 0.182 0 0.364 0.002 0.545 0.006h761.829c0.154-0.004 0.336-0.006 0.518-0.006 12.688 0 23.007 10.143 23.29 22.763v0.026c0 144.128-128.256 188.416-189.696 209.92zM97.28 12.8c11.776 81.408 84.224 114.688 153.6 139.52 75.482 19.497 130.373 86.896 130.56 167.147v0.021c0.128 2.814 0.201 6.114 0.201 9.43 0 57.587-21.957 110.046-57.955 149.462l0.155-0.172c-2.56 3.072-4.864 5.632-6.656 8.192l-1.536 2.304c-1.792 3.072-11.264 25.6 1.28 76.8 0.759 3.228 1.195 6.935 1.195 10.743 0 7.235-1.572 14.104-4.392 20.282l0.125-0.306c-11.776 25.6-43.008 95.232-22.016 146.688 28.16 69.376 53.504 83.2 99.328 102.4 2.565 1.107 4.751 2.306 6.81 3.681l-0.154-0.097c25.355 13.076 55.336 20.742 87.107 20.742 0.517 0 1.033-0.002 1.548-0.006h-0.079c1.092 0.040 2.376 0.062 3.664 0.062 18.319 0 35.57-4.57 50.676-12.633l-0.58 0.282c17.152-9.472 33.536-25.6 56.832-81.92 33.28-76.8 25.6-143.872 1.792-175.104-5.661-7.765-9.058-17.497-9.058-28.021 0-4.048 0.502-7.979 1.448-11.733l-0.071 0.33c11.52-47.872 3.072-67.328 1.28-70.656l-4.096-4.608c-1.792-2.56-4.096-5.12-6.656-8.192-35.69-39.381-57.535-91.885-57.535-149.491 0-3.246 0.069-6.475 0.207-9.687l-0.016 0.458c0.187-80.272 55.079-147.671 129.36-166.904l1.2-0.264c69.12-25.6 142.080-57.6 153.6-139.52zM833.792-38.4h-761.856c-0.459-0.029-0.996-0.046-1.536-0.046-14.138 0-25.6 11.462-25.6 25.6 0 0.016 0 0.032 0 0.049v-0.003c0 144.384 128 189.696 190.72 211.456v0c54.357 13.117 94.198 61.097 94.72 118.47v0.058c0.152 2.708 0.239 5.877 0.239 9.066 0 45.183-17.419 86.298-45.907 116.995l0.1-0.109c-3.584 4.096-6.4 7.68-8.96 11.008s-29.696 31.744-8.96 119.040c-14.592 32.256-51.2 114.944-22.528 185.856 34.816 85.248 72.448 107.264 125.952 130.816 33.505 18.919 73.519 30.179 116.139 30.464h0.085c1.138 0.029 2.479 0.046 3.824 0.046 27.346 0 53.095-6.838 75.629-18.898l-0.861 0.421c31.488-17.408 53.504-47.36 78.848-106.496 35.84-83.968 34.56-171.52-3.072-224 20.48-87.040-10.496-114.944-11.776-116.224s-5.12-6.4-8.448-10.496c-28.388-30.588-45.807-71.703-45.807-116.886 0-3.189 0.087-6.358 0.258-9.505l-0.019 0.438c0.462-57.296 40.067-105.213 93.364-118.352l0.844-0.176h1.536c61.952-21.76 190.464-67.072 190.464-211.456 0.032-0.479 0.050-1.039 0.050-1.602 0-14.138-11.462-25.6-25.6-25.6-0.648 0-1.291 0.024-1.927 0.071l0.085-0.005zM486.4 913.92c-40.888-0.057-79.329-10.479-112.853-28.778l1.237 0.618c-58.875-21.383-103.984-68.088-122.746-126.592l-0.39-1.408c-28.16-68.864 8.96-150.784 22.784-181.76v0 0c-20.224-84.224 7.168-114.176 7.424-114.432s5.632-7.168 8.96-11.008c29.344-31.56 47.352-74.008 47.352-120.661 0-3.302-0.090-6.583-0.268-9.84l0.020 0.453c0-100.352-98.304-124.416-99.328-124.672v0c-61.44-23.296-187.392-67.84-187.392-208.64-0.001-0.078-0.002-0.17-0.002-0.263 0-11.169 9.055-20.224 20.224-20.224 0.181 0 0.361 0.002 0.54 0.007l-0.027-0.001h761.856c0.234-0.010 0.508-0.016 0.784-0.016 10.887 0 19.712 8.825 19.712 19.712 0 0.276-0.006 0.55-0.017 0.823l0.001-0.039c0 139.776-125.696 184.32-186.112 204.8v0c-56.588 14.586-97.919 64.646-99.070 124.544l-0.002 0.128c-0.277 3.716-0.435 8.050-0.435 12.42 0 45.818 17.369 87.579 45.882 119.058l-0.134-0.151c3.328 3.84 6.144 7.424 8.704 10.752s29.952 27.904 9.728 111.872v0 1.28c37.12 51.2 38.4 136.448 3.328 218.88-25.6 57.856-46.080 86.784-76.8 102.4-20.913 12.431-45.978 20.045-72.765 20.732l-0.195 0.004zM812.032 8.96h-718.336v3.584c12.032 84.224 87.040 117.504 156.16 142.080 74.1 18.973 128 85.152 128 163.92 0 0.062 0 0.124 0 0.185v-0.009c0.113 2.639 0.178 5.735 0.178 8.846 0 56.984-21.649 108.912-57.172 148.007l0.162-0.181-1.536 1.792c-1.87 2.005-3.635 4.176-5.247 6.463l-0.129 0.193-1.536 2.048c-2.304 4.352-12.032 25.6 0 78.848 0.763 3.076 1.201 6.608 1.201 10.242 0 6.683-1.48 13.020-4.131 18.702l0.114-0.272c-12.032 25.6-43.776 96.512-22.272 148.992 28.928 70.912 54.528 84.736 101.12 105.216l6.144 3.328c26.127 13.718 57.083 21.768 89.92 21.768 0.608 0 1.215-0.003 1.821-0.008l-0.092 0.001c1.157 0.043 2.517 0.068 3.882 0.068 18.794 0 36.497-4.666 52.016-12.903l-0.602 0.291c17.92-9.728 34.56-27.648 58.368-83.456 33.536-78.848 25.6-146.432 1.536-179.2-5.436-7.184-8.707-16.268-8.707-26.117 0-3.725 0.468-7.341 1.349-10.793l-0.065 0.301c3.941-10.865 6.22-23.407 6.22-36.48s-2.279-25.615-6.461-37.248l0.241 0.768c-1.28-1.536-2.56-2.816-3.84-4.608l-5.376-6.656-1.28-1.536c-35.368-38.705-57.035-90.452-57.035-147.259 0-3.31 0.074-6.604 0.219-9.878l-0.016 0.466c0.011-78.807 53.893-145.026 126.826-163.839l1.174-0.257c69.376-25.6 144.128-57.6 156.416-142.080zM102.4 15.36h702.208c-13.312 76.8-84.992 109.568-151.296 133.12-76.915 19.687-132.864 88.376-132.864 170.133 0 0.038 0 0.075 0 0.113v-0.006c-0.127 2.819-0.199 6.125-0.199 9.448 0 58.367 22.247 111.538 58.724 151.495l-0.158-0.175 1.28 1.536 5.12 6.4 3.84 4.864c3.471 10.007 5.476 21.541 5.476 33.543 0 12.282-2.099 24.073-5.959 35.035l0.227-0.739c-1.076 3.918-1.694 8.417-1.694 13.061 0 10.589 3.215 20.428 8.722 28.593l-0.116-0.182c22.528 30.464 30.464 95.488-2.048 172.032-23.040 54.016-38.912 71.424-55.552 80.64-14.094 7.285-30.763 11.556-48.43 11.556-0.974 0-1.945-0.013-2.912-0.039l0.143 0.003c-31.403-0.131-60.989-7.781-87.091-21.24l1.075 0.504c-1.995-1.428-4.268-2.714-6.674-3.749l-0.238-0.091c-45.056-19.712-69.888-33.28-97.792-102.4-20.48-51.2 10.496-118.272 22.272-144.128 2.82-6.147 4.464-13.336 4.464-20.909 0-4.208-0.508-8.297-1.465-12.209l0.073 0.351c-12.288-51.2-2.816-71.68-1.536-73.984v-1.28c1.796-2.484 3.559-4.654 5.434-6.72l-0.058 0.064 1.536-1.792c36.319-39.782 58.567-92.953 58.567-151.32 0-3.323-0.072-6.629-0.215-9.917l0.016 0.469c0-0.013 0-0.028 0-0.043 0-81.85-56.076-150.602-131.906-169.934l-1.214-0.262c-66.048-22.272-137.728-54.016-149.76-131.84z" />
<glyph unicode="&#xe92f;" glyph-name="users" d="M816.384 254.208c-45.337 11.267-78.579 51.146-79.614 98.958l-0.002 0.114c0 0.076 0 0.166 0 0.256 0 44.851 19.75 85.090 51.029 112.493l0.172 0.147s25.6 22.016 8.704 93.184c28.928 38.912 35.84 107.776 4.352 180.736-13.419 36.303-38.18 65.781-69.913 84.834l-0.743 0.414c-17.652 9.392-38.599 14.907-60.834 14.907-1.383 0-2.762-0.021-4.135-0.064l0.201 0.005c-29.508-0.314-57.446-6.689-82.739-17.937l1.331 0.529c5.376-10.496 10.496-22.016 15.616-33.792l2.048-5.376c18.774 8.285 40.638 13.246 63.624 13.567l0.12 0.001c0.821 0.027 1.785 0.043 2.753 0.043 14.588 0 28.355-3.516 40.499-9.748l-0.5 0.233c23.883-14.945 41.901-37.355 50.948-63.915l0.252-0.853c25.6-60.672 19.2-112.896 0-137.984-5.282-7.004-8.459-15.853-8.459-25.444 0-3.693 0.471-7.275 1.356-10.691l-0.065 0.295c3.298-8.624 5.208-18.599 5.208-29.020 0-8.737-1.343-17.16-3.833-25.075l0.16 0.591-3.072-3.84c0-1.28-3.84-4.608-6.144-6.912-31.581-31.976-51.087-75.94-51.087-124.461 0-2.505 0.052-4.998 0.155-7.478l-0.012 0.355c0.427-67.581 46.891-124.19 109.587-140.072l1.005-0.216c56.576-19.968 111.872-44.544 123.392-104.96h-136.192c3.697-12.726 6.504-27.71 7.87-43.108l0.066-0.924h153.6c0.23-0.010 0.499-0.016 0.77-0.016 10.462 0 18.944 8.482 18.944 18.944 0 0.096-0.001 0.191-0.002 0.286v-0.014c0 117.504-105.728 153.344-156.416 171.008zM585.984 232.192c-50.039 12.702-86.586 57.026-87.295 110.001l-0.001 0.079c-0.063 1.728-0.1 3.759-0.1 5.798 0 46.761 19.025 89.078 49.756 119.634l0.008 0.008s28.672 25.6 9.472 102.4c31.744 43.264 37.888 119.808 3.328 200.96-21.76 51.2-40.96 78.592-70.144 94.72-19.613 10.961-43.033 17.415-67.961 17.415-0.498 0-0.995-0.003-1.491-0.008l0.076 0.001c-0.266 0.001-0.581 0.002-0.896 0.002-37.183 0-72.151-9.482-102.619-26.161l1.115 0.559c-54.127-19.207-95.56-62.153-112.3-115.978l-0.34-1.27c-25.6-61.184 5.12-131.84 20.736-166.4-19.2-79.104 7.424-106.24 7.424-106.24 30.739-30.564 49.764-72.881 49.764-119.642 0-2.039-0.036-4.069-0.108-6.091l0.008 0.293c-0.71-53.054-37.257-97.378-86.501-109.908l-0.795-0.172c-55.552-19.456-171.52-59.648-171.52-188.672-0.004-0.154-0.006-0.336-0.006-0.518 0-11.594 9.398-20.992 20.992-20.992 0.182 0 0.364 0.002 0.545 0.007l-0.027-0.001h688.896c0.154-0.004 0.336-0.006 0.518-0.006 11.594 0 20.992 9.398 20.992 20.992 0 0.182-0.002 0.364-0.007 0.545l0.001-0.027c0 129.024-115.968 169.216-171.52 188.672zM70.144 64c10.496 73.472 76.8 102.4 139.264 125.952 68.298 17.628 117.952 78.654 118.016 151.289v0.007c0.132 2.724 0.207 5.916 0.207 9.125 0 51.683-19.51 98.81-51.568 134.416l0.161-0.181c-2.304 2.816-4.352 5.12-5.888 7.424l-1.536 2.048c-3.749 10.213-5.917 22.005-5.917 34.304s2.168 24.092 6.143 35.016l-0.227-0.712c0.768 3.060 1.209 6.572 1.209 10.188 0 6.415-1.388 12.506-3.88 17.989l0.111-0.273c-10.24 24.576-38.912 87.808-19.968 133.632 13.139 44.279 46.513 78.748 89.131 93.152l0.981 0.288 5.888 3.328c23.081 12.001 50.38 19.086 79.324 19.2h0.036c0.853 0.026 1.857 0.041 2.864 0.041 16.713 0 32.471-4.086 46.331-11.312l-0.555 0.263c15.36-8.448 29.952-24.32 51.2-73.984 29.952-70.4 22.528-130.304 1.792-158.464-5.265-6.968-8.433-15.776-8.433-25.324 0-3.644 0.461-7.18 1.329-10.553l-0.064 0.293c3.538-9.522 5.585-20.522 5.585-32s-2.047-22.478-5.796-32.655l0.211 0.655-3.584-4.096c-1.536-2.304-3.584-4.608-5.888-7.424-31.897-35.425-51.407-82.551-51.407-134.235 0-3.21 0.075-6.402 0.224-9.574l-0.017 0.449c0.584-72.289 50.197-132.829 117.189-150.036l1.083-0.236c62.464-22.272 128-51.2 139.264-125.952z" />
<glyph unicode="&#xe930;" glyph-name="wallet" d="M889.6 556.8v166.4c-0.145 45.892-37.308 83.055-83.186 83.2h-665.614c-45.892-0.145-83.055-37.308-83.2-83.186v-499.214c0.145-45.892 37.308-83.055 83.186-83.2h665.614c45.892 0.145 83.055 37.308 83.2 83.186v83.214c45.892 0.145 83.055 37.308 83.2 83.186v83.214c-0.145 45.892-37.308 83.055-83.186 83.2h-0.014zM99.328 723.2c-0.001 0.076-0.001 0.167-0.001 0.257 0 22.763 18.453 41.216 41.216 41.216 0.090 0 0.181 0 0.271-0.001h665.586c0.076 0.001 0.166 0.001 0.256 0.001 22.904 0 41.472-18.568 41.472-41.472 0 0 0-0.001 0-0.001v0-11.52c-11.928 7.199-26.324 11.475-41.715 11.52h-665.613c-15.32-0.013-29.637-4.295-41.828-11.721l0.356 0.201zM848.128 224c0-23.046-18.682-41.728-41.728-41.728v0h-665.6c0 0-0.001 0-0.001 0-22.904 0-41.472 18.568-41.472 41.472 0 0.090 0 0.18 0.001 0.27v-0.014 416c-0.001 0.076-0.001 0.167-0.001 0.257 0 22.763 18.453 41.216 41.216 41.216 0.090 0 0.181 0 0.271-0.001h665.586c0.076 0.001 0.166 0.001 0.256 0.001 22.904 0 41.472-18.568 41.472-41.472 0 0 0-0.001 0-0.001v0-83.2h-83.2c-45.95 0-83.2-37.25-83.2-83.2v0-83.2c0-45.95 37.25-83.2 83.2-83.2v0h83.2zM931.328 390.4c0-23.046-18.682-41.728-41.728-41.728v0h-124.672c-23.046 0-41.728 18.682-41.728 41.728v0 83.2c0 0 0 0.001 0 0.001 0 22.904 18.568 41.472 41.472 41.472 0.090 0 0.18 0 0.27-0.001h124.658c0.076 0.001 0.166 0.001 0.256 0.001 22.904 0 41.472-18.568 41.472-41.472 0 0 0-0.001 0-0.001v0zM140.8 719.872h665.6c0.094 0 0.205 0.001 0.316 0.001 14.636 0 28.317-4.094 39.958-11.2l-0.338 0.192 4.864-2.816v17.152c-0.144 24.684-20.116 44.656-44.786 44.8h-665.614c-24.684-0.144-44.656-20.116-44.8-44.786v-17.166l4.864 2.816c11.303 6.914 24.983 11.009 39.62 11.009 0.111 0 0.222 0 0.333-0.001h-0.017zM102.4 723.2c0 21.208 17.192 38.4 38.4 38.4v0h665.6c21.208 0 38.4-17.192 38.4-38.4v0-6.144c-11.169 5.804-24.386 9.211-38.398 9.216h-665.602c-14.014-0.005-27.231-3.412-38.872-9.438l0.472 0.222zM892.928 559.872v163.328c-0.146 47.678-38.83 86.272-86.528 86.272 0 0 0 0 0 0h-665.6c-47.647 0-86.272-38.625-86.272-86.272v0-499.2c0 0 0 0 0 0 0-47.698 38.594-86.382 86.258-86.528h665.614c47.73 0.145 86.383 38.798 86.528 86.514v80.142c46.306 1.701 83.2 39.651 83.2 86.217 0 0.019 0 0.038 0 0.058v-0.003 83.2c0 0.016 0 0.035 0 0.055 0 46.566-36.894 84.516-83.045 86.213l-0.155 0.005zM969.728 390.4c-0.145-44.195-35.933-79.983-80.114-80.128h-3.086v-86.272c-0.145-44.195-35.933-79.983-80.114-80.128h-665.614c-44.143 0.146-79.872 35.964-79.872 80.128 0 0 0 0 0 0v0 499.2c0 44.112 35.76 79.872 79.872 79.872v0h665.6c0 0 0 0 0 0 44.163 0 79.982-35.729 80.128-79.858v-169.742h3.072c0 0 0 0 0 0 44.163 0 79.982-35.729 80.128-79.858v-0.014zM889.6 518.4h-124.672c-24.742 0-44.8-20.058-44.8-44.8v0-83.2c0-24.742 20.058-44.8 44.8-44.8v0h124.672c24.684 0.144 44.656 20.116 44.8 44.786v83.214c-0.144 24.684-20.116 44.656-44.786 44.8h-0.014zM928 390.4c0-21.208-17.192-38.4-38.4-38.4v0h-124.672c-21.208 0-38.4 17.192-38.4 38.4v0 83.2c0 21.208 17.192 38.4 38.4 38.4v0h124.672c21.208 0 38.4-17.192 38.4-38.4v0zM684.8 390.4v83.2c0.146 44.143 35.964 79.872 80.128 79.872 0 0 0 0 0 0h86.272v86.528c-0.144 24.684-20.116 44.656-44.786 44.8h-665.614c-24.684-0.144-44.656-20.116-44.8-44.786v-416.014c0.144-24.684 20.116-44.656 44.786-44.8h665.614c24.684 0.144 44.656 20.116 44.8 44.786v86.286h-86.272c-44.253 0-80.128 35.875-80.128 80.128v0zM844.8 224c0-21.208-17.192-38.4-38.4-38.4v0h-665.6c-21.208 0-38.4 17.192-38.4 38.4v0 416c0 21.208 17.192 38.4 38.4 38.4v0h665.6c21.208 0 38.4-17.192 38.4-38.4v0-80.128h-79.872c-0.076 0-0.166 0-0.256 0-47.647 0-86.272-38.625-86.272-86.272 0 0 0 0 0 0v0-83.2c0-47.788 38.74-86.528 86.528-86.528v0h79.872z" />
</font>
</defs>
</svg>
